<svg width="261" height="107" viewBox="0 0 261 107" fill="none" xmlns="http://www.w3.org/2000/svg">
<path fill-rule="evenodd" clip-rule="evenodd" d="M185.064 20.4174C177.006 8.93643 151.862 0.562012 122.092 0.562012C85.8195 0.562012 56.4148 12.9944 56.4148 28.3306C56.4148 28.9099 56.4568 29.4851 56.5395 30.0556C39.8123 33.9975 28.6281 41.1611 28.6281 49.3445C28.6281 52.0125 29.8169 54.5721 31.9991 56.9471C13.0314 60.6346 0 68.2798 0 77.1131C0 89.5479 25.8234 99.6282 57.6781 99.6282C70.3656 99.6282 82.0964 98.0291 91.6197 95.319C105.549 102.12 125.55 106.383 147.774 106.383C180.225 106.383 207.939 97.2927 218.926 84.4847C243.106 79.5568 260.183 67.5286 260.183 53.4722C260.183 35.0274 230.779 20.0749 194.506 20.0749C191.3 20.0749 188.147 20.1917 185.064 20.4174Z" fill="url(#paint0_linear_552_1081)"/>
<defs>
<linearGradient id="paint0_linear_552_1081" x1="130.092" y1="0.562012" x2="130.092" y2="106.383" gradientUnits="userSpaceOnUse">
<stop stop-color="white"/>
<stop offset="1" stop-color="#855186"/>
</linearGradient>
</defs>
</svg>
