<svg width="1586" height="230" viewBox="0 0 1586 230" fill="none" xmlns="http://www.w3.org/2000/svg">
<path fill-rule="evenodd" clip-rule="evenodd" d="M1543 0.277588H100V189.569C113.385 192.321 123.647 196.705 134.323 201.266C154.566 209.915 176.299 219.2 223.637 219.2C271.97 219.2 291.561 211.282 311.152 203.365C330.743 195.448 350.334 187.53 398.667 187.53C447.001 187.53 466.592 195.448 486.182 203.365C505.773 211.282 525.364 219.2 573.698 219.2C622.031 219.2 641.622 211.282 661.213 203.365C680.804 195.448 700.395 187.53 748.728 187.53C797.061 187.53 816.652 195.448 836.243 203.365C855.834 211.282 875.425 219.2 923.758 219.2C972.091 219.2 991.682 211.282 1011.27 203.365C1030.86 195.448 1050.46 187.53 1098.79 187.53C1147.12 187.53 1166.71 195.448 1186.3 203.365C1205.89 211.282 1225.49 219.2 1273.82 219.2C1322.15 219.2 1341.74 211.282 1361.33 203.365C1380.92 195.448 1400.52 187.53 1448.85 187.53C1497.18 187.53 1516.77 195.448 1536.36 203.365C1538.56 204.254 1540.76 205.142 1543 206.019V0.277588Z" fill="url(#paint0_linear_605_2)"/>
<path fill-rule="evenodd" clip-rule="evenodd" d="M1543 0.277588H100V189.569C113.385 192.321 123.647 196.705 134.323 201.266C154.566 209.915 176.299 219.2 223.637 219.2C271.97 219.2 291.561 211.282 311.152 203.365C330.743 195.448 350.334 187.53 398.667 187.53C447.001 187.53 466.592 195.448 486.182 203.365C505.773 211.282 525.364 219.2 573.698 219.2C622.031 219.2 641.622 211.282 661.213 203.365C680.804 195.448 700.395 187.53 748.728 187.53C797.061 187.53 816.652 195.448 836.243 203.365C855.834 211.282 875.425 219.2 923.758 219.2C972.091 219.2 991.682 211.282 1011.27 203.365C1030.86 195.448 1050.46 187.53 1098.79 187.53C1147.12 187.53 1166.71 195.448 1186.3 203.365C1205.89 211.282 1225.49 219.2 1273.82 219.2C1322.15 219.2 1341.74 211.282 1361.33 203.365C1380.92 195.448 1400.52 187.53 1448.85 187.53C1497.18 187.53 1516.77 195.448 1536.36 203.365C1538.56 204.254 1540.76 205.142 1543 206.019V0.277588Z" fill="url(#paint1_linear_605_2)"/>
<path fill-rule="evenodd" clip-rule="evenodd" d="M631.73 28.165C631.73 29.1588 631.248 30.1394 630.309 31.1035C642.241 28.4634 665.541 26.1232 696.678 24.3046C693.642 24.37 690.544 24.4112 687.395 24.4267C657.791 24.5728 631.474 22.4099 617.715 19.1172C626.771 21.9285 631.73 24.9783 631.73 28.165ZM552.781 47.8538C584.643 44.769 608.881 40.6262 621.651 35.8798C624.616 39.7467 651.195 43.2249 692.533 45.7587C678.257 45.4067 663.462 45.2217 648.301 45.2217C613.998 45.2217 581.567 46.1689 552.781 47.8538ZM416.321 53.6098C450.624 53.6098 483.054 52.6626 511.84 50.9777C463.644 55.6441 432.891 62.7311 432.891 70.6665C432.891 78.7319 464.66 85.9209 514.222 90.5827C509.928 90.5404 505.6 90.519 501.242 90.519C469.373 90.519 439.121 91.6644 411.905 93.72C426.654 89.2711 434.962 84.2412 434.962 78.9153C434.962 67.8868 399.335 58.1274 344.676 52.1686C367.09 53.102 391.203 53.6098 416.321 53.6098ZM219.553 46.0608C237.572 46.0608 255.075 46.3982 271.804 47.034C228.264 42.3781 200.911 35.6489 200.911 28.165C200.911 15.399 280.5 4.82875 384.263 3H172.088C201.755 3.97251 224.368 7.62618 225.577 12.0928C227.025 17.4401 197.249 21.9277 159.071 22.1161C120.893 22.3044 88.7698 18.1223 87.3221 12.775C86.0485 8.07033 108.944 4.0312 140.467 3H0V204.12C3.35566 202.371 8.78283 200.732 15.9175 199.254C21.6266 196.16 31.9056 193.704 48.6069 192.368C63.6935 191.161 75.9135 191.29 86.2853 192.336C95.0246 192.018 104.164 191.827 113.592 191.781C115.682 191.771 117.761 191.767 119.829 191.771C64.6743 188.122 28.3402 182.24 26.5012 175.447C24.8375 169.302 51.7341 163.622 96.1449 159.498C90.5772 159.744 84.7221 159.889 78.662 159.919C38.6005 160.116 4.75306 155.212 3.06157 148.964C1.37008 142.716 32.4751 137.491 72.5365 137.293C82.9443 137.242 92.9326 137.535 102.047 138.106C91.0908 135.479 84.3001 132.328 83.3764 128.916C80.8445 119.564 123.327 111.731 178.82 111.183C79.3284 108.279 4.14309 94.9364 4.14309 78.9153C4.14309 60.7703 100.585 46.0608 219.553 46.0608ZM16.4092 217.409C9.04563 215.909 3.43824 214.234 0 212.436V229.207H33.7902C27.7726 225.885 21.1393 221.734 16.4092 217.409ZM265.616 221.515C254.4 223.171 240.839 224.178 223.637 224.178C209.342 224.178 197.382 223.328 187.092 221.901C205.774 220.162 220.649 217.738 229.815 214.908C236.619 217.42 249.062 219.671 265.616 221.515ZM436.345 194.443C425.996 193.14 413.727 192.368 398.667 192.368C386.513 192.368 376.177 192.871 367.201 193.75C307.583 194.503 258.039 198.611 236.1 204.119C228.827 200.328 211.902 197.083 189.202 194.872C213.516 195.518 239.528 195.806 266.491 195.673C360.017 195.212 439.385 189.809 474.961 182.387C474.111 183.619 473.84 184.871 474.183 186.139C475.376 190.544 483.864 194.692 498.102 198.398C481.003 196.615 459.911 195.248 436.345 194.443ZM646.175 214.077C646.03 214.127 645.884 214.178 645.738 214.229C590.641 215.053 544.651 216.736 517.894 218.817C534.762 216.079 544.181 212.818 543.245 209.36C542.916 208.143 541.321 206.963 538.594 205.833C567.585 209.737 604.638 212.627 646.175 214.077ZM857.54 216.129C851.191 214.188 845.595 212.04 840.144 209.851C904.401 204.193 945.491 194.558 942.586 183.828C942.538 183.652 942.479 183.477 942.409 183.302C957.622 187.664 987.95 191.359 1027.71 193.908C1021 193.795 1014.13 193.752 1007.16 193.787C934.796 194.144 878.349 202.604 881.078 212.683C881.601 214.616 884.263 216.468 888.734 218.197C881.176 217.427 870.589 216.731 857.54 216.129ZM913.557 224.052C907.078 223.888 901.17 223.565 895.741 223.109C898.438 222.667 900.292 222.214 901.231 221.756C904.913 222.567 909.038 223.335 913.557 224.052ZM1183.52 207.145C1174.97 203.694 1166.16 200.314 1154.73 197.659C1160.32 197.668 1165.95 197.659 1171.63 197.631C1300.97 196.992 1403.23 186.902 1400.04 175.093C1397.74 166.614 1341.69 159.554 1262.38 156.484C1295.06 155.357 1323.83 152.358 1345.5 148.123C1339.33 149.902 1335.95 151.833 1335.95 153.851C1335.95 162.731 1401.33 169.929 1481.98 169.929C1562.47 169.929 1627.75 162.759 1628 153.903V185.54C1627.79 177.377 1574.09 170.768 1507.87 170.768C1441.52 170.768 1387.74 177.403 1387.74 185.588C1387.74 188.896 1396.52 191.951 1411.38 194.418C1400.98 195.717 1392.52 197.552 1385.12 199.68C1383.12 199.687 1381.12 199.696 1379.11 199.706C1297.32 200.109 1225.77 203.024 1183.52 207.145ZM1585.43 222.004C1610.01 219.505 1623.93 216.584 1623.1 213.52C1621.74 208.491 1580.93 204.235 1519.41 201.813C1517.96 201.326 1516.48 200.848 1514.95 200.382C1577.87 199.931 1627.8 193.505 1628 185.636V224.158C1626.65 224.171 1625.28 224.178 1623.88 224.178C1608.44 224.178 1595.94 223.367 1585.43 222.004ZM612.942 17.7565C583.453 9.99574 522.001 4.29754 448.378 3H1628V17.0485C1612.31 8.9171 1558.23 3.06258 1495.62 3.37153C1428.25 3.70392 1374.59 11.0542 1369.11 20.2287C1357.89 11.0528 1290.01 4.21241 1209.96 4.60735C1123.97 5.03161 1056.5 13.6446 1059.26 23.8451C1059.65 25.2846 1061.42 26.6789 1064.41 28.0107C1036.35 24.8163 990.054 22.3413 934.329 21.1384C1019.37 20.4469 1085.82 16.1986 1084.53 11.4086C1083.18 6.44253 1009.53 2.77479 920.015 3.21643C834.554 3.63808 765.536 7.65309 760.633 12.3375C754.898 7.10611 721.229 3.18404 681.697 3.37909C639.23 3.58861 606.079 8.47014 607.652 14.2823C607.984 15.5077 609.833 16.6767 612.942 17.7565ZM1093.62 35.1556C1093.62 35.0355 1093.6 34.9157 1093.55 34.7963C1123.18 39.1286 1169.11 41.7973 1219.96 41.5465C1299.55 41.1538 1363.27 33.7464 1370.13 24.5581C1374.86 28.9711 1390.65 32.8556 1413.29 35.6643C1400.56 35.0542 1386.59 34.7497 1372.01 34.8216C1315.95 35.0982 1271.91 40.8356 1273.03 47.6737C1250.94 43.7719 1198.4 41.0274 1137.12 41.0274C1109.88 41.0274 1084.38 41.5693 1062.5 42.5139C1082.3 40.3458 1093.62 37.8337 1093.62 35.1556ZM1008.75 46.536C967.782 48.6831 915.043 49.9751 857.496 49.9751C820.252 49.9751 785.022 49.434 753.693 48.47C806.802 51.9961 845.974 58.1046 859.009 65.3544C878.42 60.3906 919.604 56.9657 967.272 56.9657C988.89 56.9657 1009.17 57.6701 1026.7 58.903C1003.89 57.0066 990.057 54.5178 990.057 51.7925C990.057 49.8835 996.845 48.0906 1008.75 46.536ZM1034.66 59.5147C1066.49 62.1801 1087.4 66.6814 1087.4 71.7852C1087.4 72.0329 1087.36 72.2791 1087.26 72.5238C1102.01 68.4109 1129.23 64.8796 1164.44 62.3721C1155.59 62.4939 1146.45 62.5576 1137.12 62.5576C1097.28 62.5576 1061.14 61.398 1034.66 59.5147ZM1249.36 58.7484C1262.64 58.4957 1276.36 58.3633 1290.39 58.3633C1304.99 58.3633 1319.25 58.5066 1333.04 58.7798C1311.46 57.5976 1293.83 55.5205 1283.38 52.9181C1280.24 55.129 1267.96 57.1412 1249.36 58.7484ZM761.494 13.9393C767.698 16.8195 798.754 19.1655 842.385 20.366C798.845 20.5386 758.51 21.4517 724.54 22.907C746.743 21.058 761.445 17.7177 761.494 13.9393ZM856.077 77.4045C848.221 80.7922 834.587 83.8977 816.503 86.564C837.855 85.8647 860.69 85.4861 884.422 85.4861C902.262 85.4861 919.595 85.7 936.173 86.1033C899.771 84.9032 870.18 81.6467 856.077 77.4045ZM946.761 86.3896C1035.33 89.0269 1099.83 97.1387 1099.83 106.737C1099.83 116.326 1035.45 124.431 947.014 127.076C1005.34 127.257 1055.97 131.194 1081.28 136.968C1076.31 134.353 1073.27 131.572 1072.49 128.681C1068.44 113.723 1126.28 101.102 1204.5 99.1084C1128.28 95.8356 1074.98 88.3388 1074.98 79.6139C1074.98 79.1545 1075.12 78.6985 1075.42 78.2464C1055.96 83.1938 1014.84 86.6047 967.272 86.6047C960.279 86.6047 953.426 86.531 946.761 86.3896ZM1498.07 73.9541C1480.05 67.5033 1431.97 62.2818 1369.63 59.8474C1372.65 59.8652 1375.7 59.8668 1378.78 59.8516C1435.3 59.5727 1479.6 53.7435 1477.73 46.8317C1476.92 43.8351 1467.56 41.127 1452.62 39.0432C1468.99 39.9459 1486.92 40.4029 1505.62 40.3106C1515.44 40.2622 1524.96 40.0646 1534.1 39.734C1507.65 43.7874 1490.81 54.563 1494.21 67.1217C1494.85 69.4795 1496.17 71.7676 1498.07 73.9541ZM1471.8 91.0766C1492.12 87.9529 1504.38 84.27 1505.68 80.3139C1513.09 85.085 1523.51 89.0482 1535.63 91.7326C1522.67 90.8896 1508.83 90.4638 1494.54 90.5343C1486.73 90.5728 1479.13 90.7581 1471.8 91.0766ZM1290.39 100.865C1337.69 100.865 1381.43 99.3606 1416.96 96.811C1392.82 101.32 1378.56 107.852 1380.51 115.046C1383.53 126.217 1424.66 135.409 1477.54 137.781C1426.99 137.947 1382.89 140.942 1357.86 145.377C1377.89 140.31 1388.96 133.963 1387.11 127.129C1383.86 115.12 1341.64 105.007 1284.19 100.856C1286.25 100.862 1288.31 100.865 1290.39 100.865ZM1628 153.8V82.1658C1617.56 90.097 1597.2 95.406 1572.47 95.528L1572.09 95.5295C1600.38 99.7814 1619.5 106.375 1621.53 113.857C1624.93 126.417 1578.93 136.956 1517.19 138.244C1580.68 139.975 1627.79 146.28 1628 153.8ZM1563.56 38.1127C1591.19 39.0187 1616.01 46.3247 1628 56.3945V26.7329C1618.51 31.6279 1594.95 35.7349 1563.56 38.1127ZM254.914 152.91C204.915 153.157 158.963 154.816 121.585 157.441C138.637 155.29 149.139 151.948 148.137 148.248C147.703 146.644 145.15 145.129 140.917 143.766C156.04 145.052 173.209 145.742 191.249 145.653C240.56 145.41 280.229 139.427 288.362 131.65C297.547 141.503 331.106 150.024 378.523 155.473C342.286 153.64 299.926 152.688 254.914 152.91ZM212.068 111.75C247.774 113.359 276.347 118.069 286.196 124.082C288.177 118.404 298.186 113.083 314.373 108.424C285.762 110.567 253.579 111.77 219.553 111.77C217.047 111.77 214.552 111.763 212.068 111.75ZM494.73 172.684C530.288 162.552 608.125 155.322 700.231 154.868C807.793 154.337 900.943 163.214 931.858 175.784C934.408 171.117 953.346 166.784 983.612 163.284C971.639 163.692 959.075 163.938 946.092 164.002C859.213 164.431 786.545 156.515 783.786 146.321C781.49 137.842 828.28 130.458 894.08 127.966C890.878 127.98 887.659 127.987 884.422 127.987C814.503 127.987 752.364 124.701 713.011 119.609C715.402 121.735 716.652 123.928 716.652 126.17C716.652 145.859 620.209 161.82 501.242 161.82C481.838 161.82 463.033 161.396 445.149 160.6C474.247 163.911 492.432 168.078 494.73 172.684ZM1160.05 154.867C1124.36 155.043 1090.74 155.939 1060.82 157.392C1085.37 153.987 1099.7 149.552 1098.41 144.768C1098.25 144.187 1097.86 143.613 1097.26 143.048C1115.4 148.326 1142.24 152.483 1173.79 154.836C1169.24 154.834 1164.66 154.845 1160.05 154.867ZM702.928 95.286C685.939 97.9012 674.599 100.908 670.607 104.138C654.9 100.836 635.743 98.0036 614.035 95.7912C625.194 96.0019 636.639 96.1114 648.301 96.1114C667.175 96.1114 685.482 95.8246 702.928 95.286ZM203.341 34.6015C201.252 26.8832 154.885 20.8467 99.7788 21.1186C44.6724 21.3904 1.69382 27.8678 3.7834 35.5861C5.87298 43.3045 52.2395 49.341 107.346 49.0691C162.452 48.7972 205.431 42.3199 203.341 34.6015Z" fill="white" fill-opacity="0.16"/>
<defs>
<linearGradient id="paint0_linear_605_2" x1="100" y1="112.057" x2="1543" y2="112.057" gradientUnits="userSpaceOnUse">
<stop offset="0.0002" stop-color="#816383"/>
<stop offset="0.51" stop-color="#E06E8D"/>
<stop offset="0.975" stop-color="#8F97B5"/>
</linearGradient>
<linearGradient id="paint1_linear_605_2" x1="100" y1="112.057" x2="1543" y2="112.057" gradientUnits="userSpaceOnUse">
<stop stop-color="#01496F"/>
<stop offset="0.18" stop-color="#2C5A79"/>
<stop offset="0.39" stop-color="#855186"/>
<stop offset="0.7" stop-color="#8F97B5"/>
<stop offset="0.92" stop-color="#0D4E72"/>
</linearGradient>
</defs>
</svg>
