<svg width="174" height="134" viewBox="0 0 174 134" fill="none" xmlns="http://www.w3.org/2000/svg">
<path fill-rule="evenodd" clip-rule="evenodd" d="M86.7374 24.0749C120.546 34.9299 145.508 65.5301 148.048 102.3C156.041 98.0301 166.203 99.6485 172.436 106.755C173.882 108.404 172.603 110.79 170.474 111.317C165.77 112.48 160.983 114.942 156.751 118.653C152.448 122.427 149.351 126.936 147.598 131.527C146.747 133.756 144.008 134.859 142.435 133.064C136.943 126.802 136.075 118.07 139.557 111.042C117.9 93.4393 86.8424 82.4098 52.3412 82.4098C16.6407 82.4098 -18.6602 53.6961 11.2419 34.1924C25.1511 25.12 41.7646 19.8474 59.6097 19.8474C60.8229 19.8474 62.0304 19.8718 63.2317 19.92C63.2597 19.7975 63.2886 19.6751 63.3185 19.5526C66.6671 5.81077 80.5216 -2.61458 94.2634 0.734026C96.9987 1.40057 97.4141 4.85032 95.565 6.97325C91.6207 11.5015 88.4887 17.3583 86.7374 24.0749Z" fill="#9C5F9D"/>
<path fill-rule="evenodd" clip-rule="evenodd" d="M70.3667 100.477C71.4822 102.864 70.2542 105.884 67.6219 105.755C55.4685 105.159 46.0998 94.8229 46.6963 82.6695C47.2928 70.5162 57.6286 61.1475 69.7819 61.744C72.201 61.8627 73.1125 64.7096 71.8952 66.8034C69.2057 71.4297 67.4841 77.1186 67.1794 83.3274C66.8695 89.6398 68.0699 95.5608 70.3667 100.477Z" fill="#855186"/>
<rect width="9.3454" height="17.3928" rx="4.6727" transform="matrix(-0.967052 0.254579 0.254579 0.967052 27.5479 40.9795)" fill="white"/>
<path d="M13.9576 49.7989C13.3007 47.3033 10.745 45.8127 8.24932 46.4697C5.75369 47.1267 4.26316 49.6824 4.92015 52.178L6.96885 59.9603C7.62584 62.456 10.1815 63.9465 12.6772 63.2895C15.1728 62.6325 16.6633 60.0768 16.0063 57.5812L13.9576 49.7989Z" fill="white"/>
</svg>
