<svg width="250" height="120" viewBox="0 0 250 120" fill="none" xmlns="http://www.w3.org/2000/svg">
<path fill-rule="evenodd" clip-rule="evenodd" d="M221.205 52.5324C222.281 49.0448 222.855 45.3744 222.855 41.5854C222.855 18.6596 201.836 0.074585 175.907 0.074585C153.328 0.074585 134.472 14.1674 129.977 32.9473C129.228 33.0407 128.476 33.1466 127.72 33.265C116.019 35.0993 105.316 39.6837 96.6802 45.981C91.0966 44.0643 84.7835 42.9846 78.0988 42.9846C59.1216 42.9846 43.139 51.6869 38.3404 63.5329C17.0564 64.6353 0.291992 76.7066 0.291992 91.4356C0.291992 106.891 18.7512 119.42 41.5219 119.42C59.7733 119.42 75.2549 111.371 80.6811 100.217C89.7352 113.874 109.37 121.338 131.655 117.844C144.069 115.898 155.358 110.858 164.248 103.96C172.724 112.942 186.852 118.823 202.848 118.823C228.777 118.823 249.796 103.371 249.796 84.3088C249.796 70.0359 238.011 57.7864 221.205 52.5324Z" fill="url(#paint0_linear_552_1095)"/>
<defs>
<linearGradient id="paint0_linear_552_1095" x1="125.044" y1="0.074585" x2="125.044" y2="119.421" gradientUnits="userSpaceOnUse">
<stop stop-color="#F8F8FB"/>
<stop offset="1" stop-color="#855186"/>
</linearGradient>
</defs>
</svg>
