<svg width="740" height="449" fill="none" xmlns="http://www.w3.org/2000/svg"><path fill-rule="evenodd" clip-rule="evenodd" d="M500.128 15.769c2.082-5.252 7.129-9.037 13.135-9.222 8.063-.248 14.801 6.087 15.049 14.15l1.586 51.527c.248 8.062-6.087 14.8-14.15 15.048-6.006.185-11.276-3.283-13.677-8.396a32.1 32.1 0 0 1-3.763.337l-81.584 2.512 5.278 171.469c.54 17.549-13.248 32.212-30.797 32.753-17.548.54-32.212-13.248-32.752-30.797l-6.256-203.244c-.541-17.549 13.248-32.213 30.796-32.753l.03-.001 113.329-3.488a32.096 32.096 0 0 1 3.776.105Z" fill="#D9D9D9"/><path fill-rule="evenodd" clip-rule="evenodd" d="M255.079 194.523c-2.077-17.434 10.372-33.25 27.806-35.327l201.912-24.056c17.434-2.077 33.25 10.372 35.327 27.806.207 1.731.27 3.446.199 5.133l64.62-7.146c78.404-8.669 147.545 51.357 149.972 130.201 2.433 79.048-63.214 143.293-142.191 139.153l-440.537-23.092c-32.837-1.721-61.342-19.292-78.121-45.158l1.37 44.517c.54 17.549-13.248 32.213-30.797 32.753-17.548.54-32.212-13.248-32.753-30.797L5.63 205.266c-.54-17.549 13.248-32.212 30.797-32.753 17.549-.54 32.213 13.248 32.753 30.797l1.725 56.027c15.217-26.956 42.745-46.289 75.568-49.919l109.072-12.06a31.97 31.97 0 0 1-.466-2.835Z" fill="#F5B051"/><path fill-rule="evenodd" clip-rule="evenodd" d="M266.293 291.732c.705 22.924-17.306 42.08-40.23 42.785-22.924.706-42.08-17.306-42.785-40.23-.706-22.924 17.306-42.079 40.23-42.785 22.924-.705 42.079 17.306 42.785 40.23Zm117.366-3.612c.706 22.924-17.306 42.079-40.23 42.785-22.924.706-42.079-17.306-42.785-40.23-.706-22.924 17.306-42.08 40.23-42.785 22.924-.706 42.08 17.306 42.785 40.23Zm77.137 39.173c22.924-.706 40.935-19.861 40.23-42.786-.706-22.924-19.862-40.935-42.786-40.229-22.924.705-40.935 19.861-40.23 42.785.706 22.924 19.862 40.935 42.786 40.23Z" fill="#74BCDD"/></svg>