<svg width="69" height="57" fill="none" xmlns="http://www.w3.org/2000/svg"><path d="M34.532 18.63c-1.465.474-1.867 2.356-.724 3.388l4.512 4.073c1.143 1.032 2.974.44 3.296-1.066l1.272-5.945c.322-1.506-1.107-2.795-2.572-2.321l-5.784 1.871Z" fill="#17558B"/><rect width="21.767" height="16.577" rx="5" transform="scale(-1 1) rotate(-7.756 65.421 267.041)" fill="#17558B"/><path d="M20.172 35.869c-1.465.474-1.868 2.356-.725 3.387l1.595 1.44c1.143 1.032 2.974.44 3.296-1.066l.45-2.101c.322-1.506-1.107-2.796-2.572-2.322l-2.044.662Z" fill="#17558B"/><rect width="15.19" height="11.568" rx="5" transform="scale(-1 1) rotate(-7.756 219.17 161.636)" fill="#17558B"/><path d="M50.157 38.882c-1.465.474-1.867 2.356-.724 3.387l3.156 2.85c1.143 1.031 2.974.439 3.296-1.067l.89-4.158c.321-1.506-1.108-2.795-2.572-2.321l-4.046 1.309Z" fill="#17558B"/><rect width="18.71" height="14.248" rx="5" transform="scale(-1 1) rotate(-7.756 216.017 388.653)" fill="#17558B"/></svg>