<svg width="292" height="203" viewBox="0 0 292 203" fill="none" xmlns="http://www.w3.org/2000/svg">
<path d="M243.784 23.9334C243.268 -6.88189 138.746 -6.86338 96.5016 17.8076C96.3474 17.8976 96.196 17.9393 96.0177 17.95C78.8817 18.9798 26.1174 122.492 3.95516 117.711C3.46038 117.604 2.93543 117.809 2.70937 118.262L0.200233 123.289C0.0728529 123.544 0.0605057 123.842 0.166298 124.106L2.86607 130.866C3.01185 131.231 3.36266 131.477 3.7552 131.496C34.4511 133.022 55.2058 146.156 96.1882 184.978C96.2429 185.03 96.3023 185.076 96.3673 185.114C138.525 209.863 243.267 209.915 243.784 179.067C243.786 178.919 243.753 178.768 243.69 178.635L218.91 126.08C218.479 125.165 219.525 124.261 220.371 124.815C251.798 145.421 264.139 150.99 276.394 150.844C295.69 152.286 291.515 128.672 291.809 101.5C291.515 74.3284 295.69 50.7143 276.394 52.1556C264.139 52.0102 251.798 57.579 220.371 78.1846C219.525 78.7389 218.479 77.8348 218.91 76.9203L243.69 24.3652C243.753 24.2318 243.786 24.0808 243.784 23.9334Z" fill="url(#paint0_linear_591_38)"/>
<rect width="25" height="50" rx="12.5" transform="matrix(1 0 -0.0191166 0.999817 75.7744 56)" fill="white"/>
<defs>
<linearGradient id="paint0_linear_591_38" x1="146" y1="0" x2="146" y2="203" gradientUnits="userSpaceOnUse">
<stop stop-color="#FFFFB6"/>
<stop offset="1" stop-color="#276D36"/>
</linearGradient>
</defs>
</svg>
