<svg width="431" height="321" viewBox="0 0 431 321" fill="none" xmlns="http://www.w3.org/2000/svg">
<path d="M121.942 76.6975C37.0736 109.676 20.1556 123.55 21.1315 143.508C21.3209 171.182 57.2049 185.548 118.22 211.117C118.591 211.273 118.84 211.633 118.844 212.036C118.887 215.957 119.3 236.28 123.295 243.164C123.399 243.344 123.562 243.475 123.755 243.554C134.411 247.876 141.651 246.873 154.754 243.956C154.882 243.928 155.009 243.871 155.116 243.796C171.087 232.562 174.126 226.59 171.203 216.738C171.124 216.472 170.933 216.248 170.681 216.13C168.931 215.308 167.311 214.684 165.508 214.117C164.383 213.763 164.6 211.919 165.779 211.878C185.839 211.194 196.586 208.959 212.532 204.34C212.753 204.276 213 204.292 213.212 204.382C273.85 230.059 298.786 219.439 297.45 178.664C297.427 177.968 298.096 177.431 298.76 177.641L306.02 179.941C390.481 214.831 409.545 205.504 414.807 159.542C421.737 100.552 393.594 99.4557 314.712 126.822C314.016 127.063 313.281 126.481 313.358 125.748C318.662 75.4391 298.883 56.8943 234.104 81.0882C233.991 81.1305 233.864 81.1537 233.743 81.1531C221.984 81.0939 215.868 80.1146 208.043 72.9552C163.314 29.5726 126.806 28.2744 122.593 75.8253C122.559 76.2069 122.299 76.5588 121.942 76.6975Z" fill="url(#paint0_linear_552_54)"/>
<path d="M66.5179 132.65C66.6515 125.664 72.4243 120 79.4119 120C86.3995 120 91.9557 125.664 91.8221 132.65L91.5463 147.078C91.4127 154.064 85.6399 159.728 78.6523 159.728C71.6647 159.728 66.1084 154.064 66.242 147.078L66.5179 132.65Z" fill="white"/>
<defs>
<linearGradient id="paint0_linear_552_54" x1="32.3882" y1="102.258" x2="398.512" y2="218.221" gradientUnits="userSpaceOnUse">
<stop stop-color="#FFFFB6"/>
<stop offset="1" stop-color="#F97979"/>
</linearGradient>
</defs>
</svg>
