<svg width="245" height="543" viewBox="0 0 245 543" fill="none" xmlns="http://www.w3.org/2000/svg">
<path d="M187.102 229.755C169.272 243.807 158.987 251.184 140.058 263.316L124.376 301.179L152.799 314.088C205.724 364.86 241.007 317.53 203.764 305.482C242.968 299.458 241.007 272.782 206.704 270.2C236.107 250.408 219.445 222.871 187.102 229.755Z" fill="url(#paint0_linear_552_29)"/>
<path d="M155.208 32.9823C155.208 -6.84582 99.9147 -14.6382 96.9527 32.1165C93.9906 78.8712 129.536 53.762 129.536 53.762C129.536 53.762 155.208 72.8104 155.208 32.9823Z" fill="url(#paint1_linear_552_29)"/>
<path d="M159.158 32.9823C175.943 -13.7724 232.223 13.0681 197.665 52.0303C195.194 54.8164 192.89 57.266 190.74 59.4131C193.055 57.6484 195.68 55.7671 198.653 53.762C237.16 27.787 269.744 78.0046 217.413 101.382C215.349 102.304 213.389 103.128 211.529 103.86C213.396 104.123 215.356 104.45 217.413 104.845C257.895 112.637 248.021 165.453 192.728 147.271C137.435 129.089 173.968 116.101 173.968 116.101C173.968 116.101 174.871 110.299 182.486 106.409C174.134 100.417 179.892 84.9315 179.892 84.9315C179.892 84.9315 167.884 81.7726 180.857 68.0636C162.408 81.494 161.132 64.1518 161.132 64.1518C161.132 64.1518 142.372 79.737 159.158 32.9823Z" fill="url(#paint2_linear_552_29)"/>
<path d="M189.766 149.868C222.599 164.263 211.626 204.514 171.63 193.515C190.942 203.387 192.558 234.223 149.284 226.926C97.9402 218.268 121.637 207.012 121.637 207.012C121.637 207.012 129.536 190.562 159.158 190.562C160.927 190.562 162.633 190.722 164.266 191.023C163.237 190.612 162.192 190.17 161.132 189.696C112.751 168.051 136.448 147.271 136.448 147.271C136.448 147.271 154.221 134.284 189.766 149.868Z" fill="url(#paint3_linear_552_29)"/>
<path d="M140.397 262.425C170.019 252.9 173.968 239.047 148.296 228.658C122.625 218.268 129.536 244.243 129.536 244.243C129.536 244.243 110.776 271.949 140.397 262.425Z" fill="url(#paint4_linear_552_29)"/>
<path d="M145.334 335.153C167.056 324.764 155.208 310.91 139.41 309.179C123.612 307.447 108.801 334.288 108.801 334.288C108.801 334.288 123.612 345.543 145.334 335.153Z" fill="url(#paint5_linear_552_29)"/>
<path d="M156.195 363.725C176.93 351.604 164.094 329.093 145.334 336.885C126.574 344.677 129.536 371.518 129.536 371.518C129.536 371.518 135.46 375.847 156.195 363.725Z" fill="url(#paint6_linear_552_29)"/>
<path d="M166.069 385.371C180.88 369.786 171.993 359.396 156.195 365.457C140.397 371.518 146.321 385.371 146.321 385.371C146.321 385.371 151.258 400.956 166.069 385.371Z" fill="url(#paint7_linear_552_29)"/>
<path d="M155.208 32.9823C155.208 -6.84582 99.9147 -14.6382 96.9527 32.1165C93.9906 78.8712 129.536 53.762 129.536 53.762C129.536 53.762 155.208 72.8104 155.208 32.9823Z" stroke="#9B3C3C"/>
<path d="M159.158 32.9823C175.943 -13.7724 232.223 13.0681 197.665 52.0303C195.194 54.8164 192.89 57.266 190.74 59.4131C193.055 57.6484 195.68 55.7671 198.653 53.762C237.16 27.787 269.744 78.0046 217.413 101.382C215.349 102.304 213.389 103.128 211.529 103.86C213.396 104.123 215.356 104.45 217.413 104.845C257.895 112.637 248.021 165.453 192.728 147.271C137.435 129.089 173.968 116.101 173.968 116.101C173.968 116.101 174.871 110.299 182.486 106.409C174.134 100.417 179.892 84.9315 179.892 84.9315C179.892 84.9315 167.884 81.7726 180.857 68.0636C162.408 81.494 161.132 64.1518 161.132 64.1518C161.132 64.1518 142.372 79.737 159.158 32.9823Z" stroke="#9B3C3C"/>
<path d="M189.766 149.868C222.599 164.263 211.626 204.514 171.63 193.515C190.942 203.387 192.558 234.223 149.284 226.926C97.9402 218.268 121.637 207.012 121.637 207.012C121.637 207.012 129.536 190.562 159.158 190.562C160.927 190.562 162.633 190.722 164.266 191.023C163.237 190.612 162.192 190.17 161.132 189.696C112.751 168.051 136.448 147.271 136.448 147.271C136.448 147.271 154.221 134.284 189.766 149.868Z" stroke="#9B3C3C"/>
<path d="M140.397 262.425C170.019 252.9 173.968 239.047 148.296 228.658C122.625 218.268 129.536 244.243 129.536 244.243C129.536 244.243 110.776 271.949 140.397 262.425Z" stroke="#9B3C3C"/>
<path d="M145.334 335.153C167.056 324.764 155.208 310.91 139.41 309.179C123.612 307.447 108.801 334.288 108.801 334.288C108.801 334.288 123.612 345.543 145.334 335.153Z" stroke="#9B3C3C"/>
<path d="M156.195 363.725C176.93 351.604 164.094 329.093 145.334 336.885C126.574 344.677 129.536 371.518 129.536 371.518C129.536 371.518 135.46 375.847 156.195 363.725Z" stroke="#9B3C3C"/>
<path d="M166.069 385.371C180.88 369.786 171.993 359.396 156.195 365.457C140.397 371.518 146.321 385.371 146.321 385.371C146.321 385.371 151.258 400.956 166.069 385.371Z" stroke="#9B3C3C"/>
<path d="M216.432 104.181C229.276 12.6647 30.8184 3.11634 42.4145 101.407C42.4282 101.524 42.4541 101.648 42.4883 101.76C47.7046 118.914 48.7991 128.484 49.3373 145.033C49.3503 145.432 49.2402 145.836 49.0262 146.172C41.1878 158.495 36.13 162.293 26.9623 166.237C26.7372 166.333 26.4884 166.388 26.2435 166.397C14.6311 166.829 9.90356 167.554 6.54598 169.428C6.09667 169.679 5.78695 170.124 5.67062 170.626C2.74068 183.25 5.74761 187.614 18.2095 190.461C18.5335 190.535 18.8806 190.524 19.1998 190.432C34.7041 185.949 45.0532 180.638 64.8536 167.27C65.6187 166.754 66.6448 166.823 67.3368 167.434C77.7886 176.662 85.3395 179.747 99.7059 180.165C100.826 180.197 101.727 181.132 101.657 182.251C100.66 198.268 94.1403 205.902 75.0608 216.49C6.96141 262.716 -2.99946 285.223 0.915122 322.751C6.32609 380.049 29.6789 400.797 83.9583 430.739C97.3398 436.481 102.727 441.6 109.538 452.993C109.62 453.129 109.687 453.281 109.734 453.433C115.9 473.553 114.874 483.454 104.096 497.646C103.861 497.955 103.527 498.195 103.16 498.323C72.5841 508.925 57.5852 508.654 36.9836 493.299C36.6745 493.069 36.4308 492.74 36.301 492.377C30.7878 476.959 34.2592 471.316 54.0619 468.991C55.2419 468.852 56.0777 467.721 55.6513 466.612C49.3335 450.18 13.6496 455.781 10.8013 476.526C7.83585 498.124 19.6992 530.089 43.4254 537.864C67.1516 545.639 112.628 544.775 141.298 517.994C169.931 491.247 186.561 450.865 172.001 397.254C171.964 397.118 171.911 396.981 171.846 396.856C142.803 340.709 132.413 310.309 141.298 261.413C154.597 201.363 162.992 173.063 183.808 156.017C211.547 133.151 215.493 122.36 216.432 104.181Z" fill="url(#paint8_linear_552_29)"/>
<rect width="25" height="50" rx="12.5" transform="matrix(1 0 -0.0217936 0.999762 84.0898 67)" fill="white"/>
<path d="M6.09552 170.521C13.9808 172.493 20.8806 182.35 18.9092 190.235C6.47363 187.351 2.15274 184.321 6.09552 170.521Z" fill="#922D2D"/>
<defs>
<linearGradient id="paint0_linear_552_29" x1="178.588" y1="228.676" x2="178.588" y2="337.1" gradientUnits="userSpaceOnUse">
<stop stop-color="#FFA277"/>
<stop offset="1" stop-color="#922D2D"/>
</linearGradient>
<linearGradient id="paint1_linear_552_29" x1="170.703" y1="0" x2="170.703" y2="392.298" gradientUnits="userSpaceOnUse">
<stop stop-color="#FFA277"/>
<stop offset="1" stop-color="#922D2D"/>
</linearGradient>
<linearGradient id="paint2_linear_552_29" x1="170.703" y1="0" x2="170.703" y2="392.298" gradientUnits="userSpaceOnUse">
<stop stop-color="#FFA277"/>
<stop offset="1" stop-color="#922D2D"/>
</linearGradient>
<linearGradient id="paint3_linear_552_29" x1="170.703" y1="0" x2="170.703" y2="392.298" gradientUnits="userSpaceOnUse">
<stop stop-color="#FFA277"/>
<stop offset="1" stop-color="#922D2D"/>
</linearGradient>
<linearGradient id="paint4_linear_552_29" x1="170.703" y1="0" x2="170.703" y2="392.298" gradientUnits="userSpaceOnUse">
<stop stop-color="#FFA277"/>
<stop offset="1" stop-color="#922D2D"/>
</linearGradient>
<linearGradient id="paint5_linear_552_29" x1="170.703" y1="0" x2="170.703" y2="392.298" gradientUnits="userSpaceOnUse">
<stop stop-color="#FFA277"/>
<stop offset="1" stop-color="#922D2D"/>
</linearGradient>
<linearGradient id="paint6_linear_552_29" x1="170.703" y1="0" x2="170.703" y2="392.298" gradientUnits="userSpaceOnUse">
<stop stop-color="#FFA277"/>
<stop offset="1" stop-color="#922D2D"/>
</linearGradient>
<linearGradient id="paint7_linear_552_29" x1="170.703" y1="0" x2="170.703" y2="392.298" gradientUnits="userSpaceOnUse">
<stop stop-color="#FFA277"/>
<stop offset="1" stop-color="#922D2D"/>
</linearGradient>
<linearGradient id="paint8_linear_552_29" x1="108.606" y1="31.5415" x2="108.606" y2="542.12" gradientUnits="userSpaceOnUse">
<stop stop-color="#FFA277"/>
<stop offset="1" stop-color="#922D2D"/>
</linearGradient>
</defs>
</svg>
