<svg width="456" height="335" viewBox="0 0 456 335" fill="none" xmlns="http://www.w3.org/2000/svg">
<path d="M79.3085 0C137.465 3.64062 149.155 33.681 147.452 116.362C147.434 117.283 147.924 118.165 148.731 118.613C149.181 118.863 149.698 118.967 150.211 118.91L159.44 117.885H166.267C171.039 117.885 175.787 118.568 180.366 119.914L187.316 121.957C199.96 125.673 209.958 135.385 214.04 147.915C224.715 180.683 191.678 210.689 160.086 196.92L140.387 188.335C136.412 186.602 132.719 184.294 129.168 181.805C111.154 169.176 94.7998 166.845 68.2906 164.594C41.4345 162.314 26.2672 152.456 12.533 132.881C10.2453 129.621 8.50037 125.969 7.3179 122.165C-17.1129 43.5853 24.7066 2.80364 79.3085 0Z" fill="url(#paint0_linear_552_20)"/>
<path d="M451.16 270.439C446.375 276.447 390.602 282.727 358.233 241.38L355.015 236.574L389.617 225.253C412.476 242 425.275 248.601 448.084 257.538C453.117 259.51 455.944 264.431 451.16 270.439Z" fill="url(#paint1_linear_552_20)"/>
<path d="M174.506 331.413C128.903 302.851 105.51 241.89 136.444 187.949L174.506 220.201C164.088 254.079 190.533 310.283 190.533 322.516C190.533 334.75 187.026 336.971 174.506 331.413Z" fill="url(#paint2_linear_552_20)"/>
<path d="M424.873 312.507C418.863 316.955 363.5 307.179 341.737 258.013L339.734 252.452L375.793 251.34C394.031 274.024 404.882 284.042 424.873 299.161C429.284 302.498 430.883 308.058 424.873 312.507Z" fill="url(#paint3_linear_552_20)"/>
<path d="M245.58 308.058C236.566 311.394 202.89 299.486 174.464 261.349L168.454 207.967L212.526 236.882L246.582 290.264C252.506 299.215 254.595 304.722 245.58 308.058Z" fill="url(#paint4_linear_552_20)"/>
<path d="M303.675 58.9416C247.583 48.9317 148.634 87.0037 132.395 145.687C116.156 204.371 186.483 234.657 260.604 249.116C334.726 263.574 410.849 259.123 419.864 210.191C428.88 161.259 359.766 68.9515 303.675 58.9416Z" fill="url(#paint5_linear_552_20)"/>
<path d="M30.7169 52.4977C30.8488 45.5954 36.5523 40 43.4558 40C50.3594 40 55.8488 45.5954 55.7169 52.4977L55.2389 77.4931C55.107 84.3954 49.4035 89.9909 42.5 89.9909C35.5964 89.9909 30.107 84.3954 30.2389 77.4932L30.7169 52.4977Z" fill="white"/>
<defs>
<linearGradient id="paint0_linear_552_20" x1="120.878" y1="0" x2="120.878" y2="232.434" gradientUnits="userSpaceOnUse">
<stop stop-color="#A5C6CD"/>
<stop offset="1" stop-color="#3F747F"/>
</linearGradient>
<linearGradient id="paint1_linear_552_20" x1="397.81" y1="222.845" x2="415.198" y2="282.005" gradientUnits="userSpaceOnUse">
<stop stop-color="#A5C6CD"/>
<stop offset="1" stop-color="#3F747F"/>
</linearGradient>
<linearGradient id="paint2_linear_552_20" x1="156.456" y1="187.949" x2="156.456" y2="334.297" gradientUnits="userSpaceOnUse">
<stop stop-color="#A5C6CD"/>
<stop offset="1" stop-color="#3F747F"/>
</linearGradient>
<linearGradient id="paint3_linear_552_20" x1="384.269" y1="251.34" x2="384.269" y2="313.47" gradientUnits="userSpaceOnUse">
<stop stop-color="#A5C6CD"/>
<stop offset="1" stop-color="#3F747F"/>
</linearGradient>
<linearGradient id="paint4_linear_552_20" x1="210.072" y1="207.967" x2="210.072" y2="308.592" gradientUnits="userSpaceOnUse">
<stop stop-color="#A5C6CD"/>
<stop offset="1" stop-color="#3F747F"/>
</linearGradient>
<linearGradient id="paint5_linear_552_20" x1="275.35" y1="57.3462" x2="275.35" y2="256.351" gradientUnits="userSpaceOnUse">
<stop stop-color="#A5C6CD"/>
<stop offset="1" stop-color="#3F747F"/>
</linearGradient>
</defs>
</svg>
