<svg width="265" height="107" viewBox="0 0 265 107" fill="none" xmlns="http://www.w3.org/2000/svg">
  <path
    d="M265 106.576H0.472534C0.472534 106.576 20.9004 86.1784 27.6234 83.1068C34.3465 80.0352 44.2855 68.8435 54.7744 59.6379C64.8034 50.8359 65.28 45.461 75.4699 34.8252C84.3023 25.6064 102.884 12.2089 104.978 10.1187C104.26 10.3102 104.093 10.2988 104.68 10.0125C105.233 9.74331 105.3 9.79745 104.978 10.1187C109.333 8.95888 133.955 0.356201 133.955 0.356201C133.955 0.356201 156.312 2.23586 164.412 10.0125C172.513 17.7892 172.428 20.6163 186.65 32.3801C200.355 49.8825 208.112 61.9333 228.36 71.4018C251.812 86.6088 251.144 93.2746 265 106.576Z"
    fill="url(#paint0_linear_240_406)" />
  <defs>
    <linearGradient id="paint0_linear_240_406" x1="132.736" y1="-42.8239" x2="131.682" y2="106.585"
      gradientUnits="userSpaceOnUse">
      <stop stop-color="#D75F14" />
      <stop offset="1" stop-color="#5D2807" />
    </linearGradient>
  </defs>
</svg>