<svg width="1586" height="227" viewBox="0 0 1586 227" fill="none" xmlns="http://www.w3.org/2000/svg">
<path fill-rule="evenodd" clip-rule="evenodd" d="M631.73 25.165C631.73 26.1588 631.248 27.1394 630.309 28.1035C642.241 25.4634 665.541 23.1232 696.678 21.3046C693.642 21.37 690.544 21.4112 687.395 21.4267C657.791 21.5728 631.474 19.4099 617.715 16.1172C626.771 18.9285 631.73 21.9783 631.73 25.165ZM552.782 44.8538C584.643 41.769 608.881 37.6262 621.651 32.8798C624.616 36.7467 651.195 40.2249 692.533 42.7587C678.257 42.4067 663.462 42.2217 648.301 42.2217C613.998 42.2217 581.567 43.1689 552.782 44.8538ZM416.321 50.6098C450.624 50.6098 483.054 49.6627 511.84 47.9777C463.644 52.6441 432.891 59.7311 432.891 67.6665C432.891 75.732 464.66 82.9209 514.222 87.5827C509.928 87.5405 505.6 87.519 501.242 87.519C469.373 87.519 439.121 88.6644 411.905 90.72C426.654 86.2711 434.962 81.2412 434.962 75.9154C434.962 64.8868 399.335 55.1274 344.676 49.1686C367.09 50.102 391.203 50.6098 416.321 50.6098ZM219.553 43.0608C237.572 43.0608 255.075 43.3983 271.805 44.034C228.264 39.3782 200.911 32.6489 200.911 25.165C200.911 12.399 280.5 1.82874 384.264 0H172.088C201.755 0.972502 224.368 4.62618 225.577 9.09285C227.024 14.4401 197.249 18.9277 159.071 19.1161C120.893 19.3044 88.7698 15.1223 87.3221 9.77498C86.0484 5.07032 108.944 1.03119 140.467 0H0V201.12C3.35567 199.371 8.78285 197.732 15.9175 196.254C21.6266 193.16 31.9057 190.704 48.6069 189.368C63.6935 188.161 75.9135 188.29 86.2853 189.336C95.0246 189.018 104.164 188.827 113.592 188.781C115.682 188.771 117.761 188.767 119.829 188.771C64.6741 185.122 28.3402 179.24 26.5012 172.447C24.8375 166.302 51.7342 160.622 96.1452 156.498C90.5774 156.744 84.7222 156.889 78.662 156.919C38.6005 157.116 4.75304 152.212 3.06155 145.964C1.37006 139.716 32.4751 134.491 72.5365 134.293C82.9442 134.242 92.9325 134.535 102.047 135.106C91.0907 132.479 84.3001 129.328 83.3763 125.916C80.8445 116.564 123.327 108.731 178.819 108.183C79.3283 105.279 4.14307 91.9364 4.14307 75.9154C4.14307 57.7703 100.585 43.0608 219.553 43.0608ZM16.4092 214.409C9.04564 212.909 3.43825 211.234 0 209.436V226.207H33.7902C27.7727 222.885 21.1393 218.734 16.4092 214.409ZM265.616 218.515C254.4 220.171 240.839 221.178 223.637 221.178C209.342 221.178 197.382 220.328 187.092 218.901C205.774 217.162 220.649 214.738 229.815 211.908C236.619 214.42 249.062 216.671 265.616 218.515ZM436.345 191.444C425.997 190.14 413.727 189.368 398.667 189.368C386.513 189.368 376.176 189.871 367.2 190.75C307.583 191.503 258.039 195.611 236.1 201.119C228.827 197.328 211.902 194.083 189.202 191.872C213.516 192.518 239.528 192.806 266.491 192.673C360.017 192.212 439.384 186.809 474.961 179.387C474.111 180.619 473.84 181.871 474.183 183.139C475.376 187.544 483.864 191.692 498.102 195.398C481.003 193.615 459.911 192.248 436.345 191.444ZM646.175 211.077C646.03 211.127 645.884 211.178 645.738 211.229C590.641 212.053 544.651 213.736 517.895 215.817C534.762 213.079 544.181 209.818 543.245 206.36C542.916 205.143 541.321 203.963 538.594 202.833C567.585 206.737 604.638 209.627 646.175 211.077ZM857.54 213.129C851.191 211.188 845.595 209.04 840.144 206.851C904.402 201.193 945.491 191.558 942.586 180.828C942.538 180.652 942.479 180.477 942.408 180.302C957.621 184.664 987.95 188.359 1027.71 190.908C1021 190.795 1014.13 190.752 1007.16 190.787C934.796 191.144 878.349 199.604 881.078 209.683C881.601 211.616 884.263 213.468 888.734 215.197C881.176 214.427 870.589 213.731 857.54 213.129ZM913.557 221.052C907.078 220.888 901.17 220.565 895.741 220.109C898.438 219.667 900.292 219.214 901.231 218.756C904.913 219.567 909.038 220.335 913.557 221.052ZM1183.52 204.145C1174.97 200.694 1166.16 197.314 1154.73 194.659C1160.32 194.668 1165.95 194.659 1171.63 194.631C1300.97 193.992 1403.23 183.902 1400.04 172.093C1397.74 163.614 1341.69 156.554 1262.38 153.484C1295.06 152.357 1323.83 149.358 1345.5 145.123C1339.33 146.902 1335.95 148.833 1335.95 150.851C1335.95 159.731 1401.33 166.929 1481.98 166.929C1562.47 166.929 1627.75 159.759 1628 150.903V182.545C1627.81 174.38 1574.1 167.768 1507.87 167.768C1441.52 167.768 1387.74 174.403 1387.74 182.588C1387.74 185.896 1396.52 188.951 1411.38 191.418C1400.98 192.717 1392.52 194.552 1385.12 196.68C1383.12 196.687 1381.12 196.696 1379.11 196.706C1297.32 197.109 1225.77 200.024 1183.52 204.145ZM1585.43 219.004C1610.01 216.505 1623.93 213.584 1623.1 210.52C1621.74 205.491 1580.93 201.235 1519.41 198.813C1517.96 198.326 1516.48 197.848 1514.95 197.382C1577.89 196.931 1627.82 190.502 1628 182.63V221.158C1626.65 221.171 1625.28 221.178 1623.88 221.178C1608.44 221.178 1595.94 220.367 1585.43 219.004ZM612.942 14.7566C583.453 6.99574 522.001 1.29753 448.378 0H1628V14.0485C1612.31 5.9171 1558.23 0.0625827 1495.62 0.371533C1428.25 0.703927 1374.59 8.0542 1369.11 17.2287C1357.89 8.05284 1290.01 1.21241 1209.96 1.60735C1123.97 2.03161 1056.5 10.6446 1059.26 20.8451C1059.65 22.2846 1061.42 23.6789 1064.41 25.0107C1036.35 21.8163 990.054 19.3413 934.329 18.1384C1019.37 17.447 1085.82 13.1986 1084.53 8.40856C1083.18 3.44253 1009.53 -0.225209 920.015 0.216431C834.554 0.638082 765.536 4.6531 760.633 9.33746C754.898 4.10611 721.229 0.184046 681.697 0.379089C639.23 0.588617 606.079 5.47015 607.652 11.2823C607.984 12.5077 609.833 13.6767 612.942 14.7566ZM1093.62 32.1556C1093.62 32.0355 1093.6 31.9157 1093.55 31.7963C1123.18 36.1286 1169.11 38.7973 1219.96 38.5465C1299.55 38.1538 1363.27 30.7464 1370.13 21.5581C1374.86 25.9711 1390.65 29.8556 1413.29 32.6644C1400.56 32.0542 1386.59 31.7497 1372.01 31.8216C1315.95 32.0982 1271.91 37.8356 1273.03 44.6737C1250.94 40.7719 1198.4 38.0274 1137.12 38.0274C1109.88 38.0274 1084.38 38.5693 1062.5 39.5139C1082.3 37.3458 1093.62 34.8337 1093.62 32.1556ZM1008.75 43.536C967.782 45.6831 915.043 46.9752 857.496 46.9752C820.252 46.9752 785.022 46.434 753.693 45.47C806.802 48.9961 845.974 55.1046 859.009 62.3544C878.42 57.3906 919.604 53.9657 967.272 53.9657C988.89 53.9657 1009.18 54.6701 1026.7 55.9031C1003.89 54.0066 990.057 51.5178 990.057 48.7925C990.057 46.8835 996.845 45.0906 1008.75 43.536ZM1034.65 56.5147C1066.49 59.1801 1087.4 63.6814 1087.4 68.7852C1087.4 69.0329 1087.36 69.2791 1087.26 69.5238C1102.01 65.4109 1129.23 61.8796 1164.44 59.3721C1155.59 59.4939 1146.45 59.5576 1137.12 59.5576C1097.28 59.5576 1061.14 58.398 1034.65 56.5147ZM1249.36 55.7484C1262.64 55.4957 1276.36 55.3633 1290.39 55.3633C1304.99 55.3633 1319.25 55.5067 1333.04 55.7798C1311.46 54.5976 1293.83 52.5206 1283.38 49.9181C1280.24 52.1291 1267.96 54.1412 1249.36 55.7484ZM761.494 10.9393C767.698 13.8195 798.754 16.1655 842.385 17.366C798.846 17.5386 758.51 18.4518 724.54 19.907C746.743 18.058 761.445 14.7177 761.494 10.9393ZM856.077 74.4045C848.221 77.7922 834.587 80.8977 816.503 83.564C837.855 82.8647 860.69 82.4861 884.422 82.4861C902.262 82.4861 919.595 82.7001 936.173 83.1034C899.771 81.9032 870.179 78.6467 856.077 74.4045ZM946.761 83.3896C1035.33 86.0269 1099.83 94.1388 1099.83 103.737C1099.83 113.326 1035.46 121.431 947.014 124.076C1005.34 124.257 1055.97 128.194 1081.28 133.968C1076.31 131.353 1073.27 128.572 1072.49 125.681C1068.44 110.723 1126.28 98.1024 1204.5 96.1084C1128.28 92.8356 1074.98 85.3388 1074.98 76.6139C1074.98 76.1545 1075.12 75.6985 1075.42 75.2464C1055.96 80.1938 1014.84 83.6047 967.272 83.6047C960.279 83.6047 953.426 83.531 946.761 83.3896ZM1498.07 70.9542C1480.05 64.5033 1431.97 59.2818 1369.63 56.8474C1372.65 56.8652 1375.7 56.8668 1378.78 56.8516C1435.3 56.5727 1479.6 50.7435 1477.73 43.8317C1476.92 40.8351 1467.56 38.127 1452.62 36.0431C1468.99 36.9459 1486.92 37.4029 1505.62 37.3106C1515.44 37.2622 1524.96 37.0646 1534.1 36.734C1507.65 40.7874 1490.81 51.563 1494.21 64.1217C1494.85 66.4795 1496.17 68.7676 1498.07 70.9542ZM1471.8 88.0766C1492.12 84.9529 1504.38 81.27 1505.68 77.3139C1513.09 82.085 1523.51 86.0482 1535.63 88.7326C1522.67 87.8896 1508.83 87.4638 1494.54 87.5343C1486.73 87.5728 1479.13 87.7581 1471.8 88.0766ZM1290.39 97.8646C1337.69 97.8646 1381.43 96.3606 1416.96 93.811C1392.82 98.3205 1378.56 104.852 1380.51 112.046C1383.53 123.217 1424.66 132.409 1477.54 134.781C1426.99 134.947 1382.89 137.942 1357.86 142.377C1377.89 137.31 1388.96 130.963 1387.11 124.129C1383.86 112.12 1341.64 102.007 1284.19 97.8559C1286.25 97.8617 1288.31 97.8646 1290.39 97.8646ZM1628 150.8V79.1658C1617.56 87.0969 1597.2 92.406 1572.47 92.528L1572.09 92.5295C1600.38 96.7814 1619.5 103.375 1621.53 110.857C1624.93 123.417 1578.93 133.956 1517.19 135.244C1580.68 136.975 1627.79 143.28 1628 150.8ZM1563.56 35.1127C1591.19 36.0187 1616.01 43.3247 1628 53.3946V23.7329C1618.51 28.6278 1594.95 32.7349 1563.56 35.1127ZM254.914 149.91C204.915 150.157 158.963 151.816 121.585 154.441C138.637 152.29 149.139 148.948 148.137 145.248C147.703 143.644 145.15 142.129 140.917 140.766C156.04 142.052 173.209 142.742 191.249 142.653C240.56 142.41 280.229 136.427 288.362 128.65C297.547 138.503 331.106 147.024 378.523 152.473C342.286 150.64 299.926 149.688 254.914 149.91ZM212.068 108.75C247.774 110.359 276.347 115.069 286.196 121.082C288.177 115.404 298.186 110.083 314.373 105.424C285.762 107.567 253.579 108.77 219.553 108.77C217.048 108.77 214.552 108.763 212.068 108.75ZM494.729 169.684C530.288 159.552 608.125 152.322 700.231 151.868C807.793 151.337 900.943 160.214 931.858 172.784C934.408 168.117 953.346 163.784 983.612 160.284C971.639 160.692 959.075 160.938 946.092 161.002C859.213 161.431 786.545 153.515 783.786 143.321C781.49 134.842 828.279 127.458 894.08 124.966C890.878 124.98 887.658 124.987 884.422 124.987C814.503 124.987 752.364 121.701 713.011 116.609C715.402 118.735 716.652 120.928 716.652 123.17C716.652 142.859 620.209 158.82 501.242 158.82C481.838 158.82 463.033 158.396 445.149 157.6C474.247 160.911 492.432 165.078 494.729 169.684ZM1160.05 151.867C1124.36 152.043 1090.74 152.939 1060.82 154.392C1085.37 150.987 1099.7 146.552 1098.41 141.768C1098.25 141.187 1097.86 140.613 1097.26 140.048C1115.4 145.326 1142.24 149.483 1173.79 151.836C1169.24 151.834 1164.66 151.845 1160.05 151.867ZM702.928 92.286C685.939 94.9012 674.599 97.9078 670.607 101.138C654.9 97.8356 635.743 95.0036 614.035 92.7912C625.194 93.0019 636.639 93.1114 648.301 93.1114C667.175 93.1114 685.482 92.8246 702.928 92.286ZM203.341 31.6015C201.252 23.8832 154.885 17.8467 99.7788 18.1186C44.6724 18.3905 1.6938 24.8678 3.78338 32.5861C5.87296 40.3045 52.2394 46.341 107.346 46.0691C162.452 45.7972 205.431 39.3199 203.341 31.6015Z" fill="white" fill-opacity="0.16"/>
</svg>
