<svg width="873" height="908" viewBox="0 0 873 908" fill="none" xmlns="http://www.w3.org/2000/svg">
<path d="M603.763 859C561.75 850.935 545.026 844.59 536 831L609.5 845L628 871L603.763 859Z" fill="white" stroke="white"/>
<path d="M229.5 119C301.383 93.8941 423.647 133.441 459 223.5C480.66 299.353 427.283 353.21 344.5 317.5C319.628 303.674 308.855 291.13 286.5 273.5C258.568 256.643 237.494 281.874 261 303.5C277.542 320.28 339.154 338.069 381 361C411.823 375.39 444.605 407.503 466 456.5C481.791 492.904 484.084 535 469 579C457.415 612.794 439.454 631.977 416.677 653.998C413.579 656.993 410.093 659.585 406.281 661.595C317.41 708.448 219.521 703.285 169.5 679C101.742 646.103 77.3788 619.474 65.16 547.978C64.7114 545.353 64.4836 542.644 64.5487 539.982C65.9394 483.185 96.9224 455.163 136.5 444C169.242 434.765 211.858 450.077 297.485 523.321C301.46 526.721 305.901 529.793 311.022 530.863C333.819 535.625 355.087 518.892 340.281 492.455C338.583 489.423 336.238 486.772 333.666 484.434C305.383 458.724 279.266 448.488 218.5 431.5C172 418.5 136.26 388.24 111 330.5C101.079 296.074 100.499 237.703 124 210.5C165.406 158.536 188.517 137.702 229.5 119Z" fill="#2F83A2" stroke="#2F83A2"/>
<path d="M809.5 881C781 901.5 614.5 908 628.5 849L633 837L809.5 881Z" fill="white" stroke="white"/>
<path d="M557.998 800.5C512.496 800.5 489.222 765.859 489.498 739L489 343.5C489 301.5 524.5 278.5 558 278.5C591.5 278.5 622 301 622 343V445C622 451 623 453.5 627.5 453.5H728.5L730.5 453.5C735 453.5 736 451 736 445V344C736 302 771.5 279 805 279C838.5 279 869 301.5 869 343.5V445.5L872.502 739C872.778 765.859 849.504 800.5 804.002 800.5C758.5 800.5 735 764.5 736.5 739V595C736.512 590.638 735.72 589.093 731.5 589.5H630.5C626.28 589.093 625.488 590.638 625.5 595V739C627 764.5 603.5 800.5 557.998 800.5Z" fill="#FF6F3B"/>
<path d="M736 446V344C736 302 771.5 279 805 279C838.5 279 869 301.5 869 343.5V445.5L872.502 739C872.778 765.859 849.504 800.5 804.002 800.5C758.5 800.5 735 764.5 736.5 739V595C736.512 590.638 735.72 589.093 731.5 589.5H630.5C626.28 589.093 625.488 590.638 625.5 595V739C627 764.5 603.5 800.5 557.998 800.5C512.496 800.5 489.222 765.859 489.498 739L489 343.5C489 301.5 524.5 278.5 558 278.5C591.5 278.5 622 301 622 343C622 343 622 439 622 445C622 451 623 453.5 627.5 453.5C632 453.5 728.5 453.5 728.5 453.5L730.5 453.5C735 453.5 736 451 736 445" stroke="#FF6F3B"/>
<circle cx="837" cy="687" r="16" fill="white"/>
<path d="M836.774 726.233C836.774 754.233 817.274 757.233 808 757.233" stroke="white" stroke-width="30" stroke-linecap="round"/>
<path d="M589.244 653C589.244 701.5 597.726 748.5 564.226 761" stroke="white" stroke-width="30" stroke-linecap="round"/>
<path d="M588.5 808.999C571.541 816.481 560.505 821.969 536.178 828.948C536.062 828.981 535.927 829.052 535.834 829.129C526.616 836.69 601.159 844.229 608.432 844.945C608.813 844.982 609.086 845.227 609.228 845.582C610.287 848.213 615.033 859.302 623.5 869.1C635.391 882.86 649.78 896.295 662.216 894.543C662.402 894.517 662.588 894.444 662.674 894.277C665.1 889.545 627.054 849.982 630 849C632.966 848.011 634.68 848.337 637.89 849.461C637.963 849.487 638.034 849.522 638.099 849.563C676.576 874.154 697.366 881.179 712 884C718.993 885.348 761.409 893.483 805.359 883.532C805.452 883.511 805.544 883.475 805.627 883.429C826.922 871.487 831.474 854.641 838.9 849.075C838.967 849.024 839.036 848.986 839.114 848.954C849.009 844.911 865.101 827.366 860.182 814.935C860.073 814.659 859.833 814.432 859.535 814.442C856.235 814.552 853.318 825.626 847 828C845.142 828.442 844.052 828.466 842 828C835.387 825.515 823.5 809.5 823.5 815C823.5 826 828 838.5 830.5 841.5C832.988 844.485 827.222 851.939 819.615 854.462C819.539 854.488 819.458 854.503 819.378 854.509C794.468 856.346 780.538 856.668 756 854.5C739 851.5 715.889 840.437 712 830.499C708.135 814.67 736.82 808.496 730 804.499C723.198 800.512 713.386 797.485 702.583 800.972C702.528 800.99 702.473 801.013 702.422 801.04C686.19 809.632 679.993 811.502 675.5 812.999C671 814.499 653.318 818.525 638 812.999C605.665 803.345 600 804.499 588.5 808.999Z" fill="#2F83A2"/>
<path d="M605.855 860.865C605.1 860.513 604.275 861.186 604.476 861.994C610.582 886.609 623.247 902.117 632.5 906.5C641.818 910.914 628.046 880.692 626.572 871.041C626.519 870.696 626.307 870.41 625.991 870.262L605.855 860.865Z" fill="#2F83A2"/>
<path d="M588.5 808.999L588.318 808.533L588.308 808.537L588.298 808.541L588.5 808.999ZM638 812.999L638.17 812.529L638.157 812.524L638.143 812.52L638 812.999ZM730 804.499L730.253 804.068L730 804.499ZM712 830.499L711.514 830.618L711.522 830.65L711.535 830.681L712 830.499ZM756 854.5L755.913 854.992L755.935 854.996L755.956 854.998L756 854.5ZM842 828L841.824 828.468L841.856 828.48L841.89 828.488L842 828ZM847 828L847.116 828.486L847.147 828.479L847.176 828.468L847 828ZM712 884L712.095 883.509L712 884ZM623.5 869.1L623.122 869.427L623.122 869.427L623.5 869.1ZM604.476 861.994L604.961 861.873L604.476 861.994ZM605.855 860.865L605.643 861.319L605.855 860.865ZM608.432 844.945L608.383 845.442L608.432 844.945ZM609.228 845.582L608.765 845.768L609.228 845.582ZM638.099 849.563L638.368 849.142L638.099 849.563ZM637.89 849.461L637.725 849.933L637.89 849.461ZM626.572 871.041L626.078 871.116L626.572 871.041ZM625.991 870.262L625.78 870.716L625.991 870.262ZM859.535 814.442L859.552 814.942L859.535 814.442ZM860.182 814.935L860.647 814.751L860.182 814.935ZM662.674 894.277L663.119 894.505L662.674 894.277ZM662.216 894.543L662.146 894.048L662.216 894.543ZM819.378 854.509L819.415 855.008L819.378 854.509ZM819.615 854.462L819.772 854.937L819.615 854.462ZM839.114 848.954L838.925 848.491L839.114 848.954ZM838.9 849.075L838.6 848.674L838.9 849.075ZM805.627 883.429L805.872 883.865L805.627 883.429ZM805.359 883.532L805.249 883.044L805.359 883.532ZM702.422 801.04L702.188 800.598L702.422 801.04ZM702.583 800.972L702.736 801.448L702.583 800.972ZM536.178 828.948L536.316 829.429L536.178 828.948ZM535.834 829.129L536.151 829.515L535.834 829.129ZM536.316 829.429C560.682 822.438 571.749 816.936 588.702 809.456L588.298 808.541C571.334 816.026 560.329 821.499 536.04 828.467L536.316 829.429ZM588.682 809.465C594.408 807.224 598.621 805.84 605.411 806.191C612.241 806.543 621.689 808.651 637.857 813.478L638.143 812.52C621.976 807.693 612.424 805.551 605.463 805.192C598.462 804.831 594.092 806.274 588.318 808.533L588.682 809.465ZM637.831 813.469C645.579 816.264 653.905 816.638 660.843 816.132C667.782 815.626 673.368 814.237 675.658 813.473L675.342 812.525C673.132 813.261 667.628 814.635 660.771 815.135C653.913 815.635 645.74 815.259 638.17 812.529L637.831 813.469ZM675.658 813.473C680.171 811.969 686.395 810.089 702.656 801.482L702.188 800.598C685.985 809.175 679.815 811.034 675.342 812.525L675.658 813.473ZM702.736 801.448C713.362 798.018 723.024 800.989 729.747 804.93L730.253 804.068C723.372 800.034 713.41 796.952 702.429 800.497L702.736 801.448ZM729.747 804.93C730.135 805.157 730.347 805.365 730.454 805.538C730.551 805.696 730.573 805.843 730.537 806.01C730.498 806.195 730.381 806.427 730.151 806.712C729.923 806.994 729.605 807.302 729.201 807.638C728.392 808.311 727.291 809.053 726.009 809.89C724.736 810.721 723.29 811.64 721.824 812.651C718.896 814.669 715.825 817.09 713.734 820.031C711.63 822.989 710.507 826.49 711.514 830.618L712.486 830.38C711.561 826.594 712.574 823.387 714.549 820.611C716.535 817.818 719.485 815.477 722.392 813.474C723.844 812.473 725.27 811.567 726.556 810.727C727.833 809.894 728.981 809.122 729.841 808.406C730.272 808.048 730.644 807.693 730.929 807.341C731.212 806.991 731.43 806.616 731.515 806.219C731.604 805.804 731.539 805.393 731.305 805.014C731.081 804.65 730.718 804.34 730.253 804.068L729.747 804.93ZM756.087 854.008C747.643 852.517 737.664 849.02 729.315 844.658C725.142 842.478 721.39 840.088 718.445 837.636C715.493 835.176 713.393 832.687 712.466 830.317L711.535 830.681C712.552 833.28 714.8 835.9 717.805 838.404C720.819 840.915 724.636 843.342 728.852 845.544C737.281 849.949 747.357 853.483 755.913 854.992L756.087 854.008ZM755.956 854.998C780.527 857.169 794.486 856.846 819.415 855.008L819.342 854.01C794.45 855.846 780.548 856.167 756.044 854.002L755.956 854.998ZM819.772 854.937C823.671 853.644 827.092 851.092 829.23 848.47C830.299 847.16 831.068 845.807 831.402 844.559C831.735 843.311 831.648 842.096 830.884 841.18L830.116 841.82C830.597 842.397 830.721 843.233 830.435 844.301C830.15 845.368 829.469 846.596 828.455 847.838C826.431 850.321 823.166 852.758 819.457 853.988L819.772 854.937ZM830.884 841.18C830.306 840.486 829.579 839.195 828.81 837.44C828.046 835.696 827.256 833.529 826.542 831.109C825.114 826.264 824 820.439 824 815H823C823 820.561 824.137 826.486 825.583 831.391C826.307 833.846 827.111 836.054 827.894 837.841C828.672 839.617 829.444 841.014 830.116 841.82L830.884 841.18ZM824 815C824 814.691 824.044 814.517 824.086 814.429C824.118 814.363 824.137 814.365 824.144 814.363C824.18 814.354 824.28 814.348 824.477 814.417C824.668 814.483 824.907 814.604 825.194 814.785C826.36 815.519 828.014 817.042 829.925 818.867C831.817 820.674 833.936 822.75 835.993 824.525C838.038 826.291 840.08 827.812 841.824 828.468L842.176 827.532C840.614 826.945 838.69 825.532 836.647 823.768C834.615 822.014 832.522 819.964 830.616 818.144C828.729 816.342 826.997 814.738 825.727 813.938C825.406 813.736 825.095 813.573 824.805 813.472C824.52 813.373 824.206 813.317 823.904 813.392C823.573 813.474 823.33 813.694 823.185 813.995C823.05 814.276 823 814.621 823 815H824ZM841.89 828.488C842.935 828.725 843.761 828.844 844.575 828.841C845.389 828.837 846.167 828.712 847.116 828.486L846.884 827.514C845.975 827.73 845.279 827.838 844.571 827.841C843.862 827.843 843.117 827.741 842.111 827.512L841.89 828.488ZM859.519 813.942C858.963 813.961 858.457 814.209 858.001 814.564C857.545 814.92 857.106 815.408 856.676 815.969C855.821 817.084 854.93 818.586 853.976 820.106C853.012 821.643 851.97 823.224 850.785 824.564C849.6 825.906 848.298 826.978 846.824 827.532L847.176 828.468C848.862 827.835 850.293 826.632 851.535 825.226C852.777 823.82 853.856 822.18 854.823 820.638C855.801 819.079 856.652 817.643 857.47 816.577C857.876 816.047 858.256 815.634 858.616 815.353C858.975 815.073 859.282 814.951 859.552 814.942L859.519 813.942ZM839.303 849.417C844.361 847.35 850.926 841.88 855.609 835.382C860.278 828.903 863.205 821.216 860.647 814.751L859.717 815.119C862.078 821.085 859.418 828.385 854.798 834.798C850.191 841.19 843.763 846.514 838.925 848.491L839.303 849.417ZM838.6 848.674C836.675 850.117 834.96 852.271 833.155 854.823C831.329 857.402 829.427 860.362 827.062 863.564C822.361 869.927 815.949 877.067 805.383 882.993L805.872 883.865C816.6 877.848 823.111 870.594 827.866 864.158C830.229 860.959 832.189 857.918 833.971 855.4C835.772 852.855 837.411 850.815 839.199 849.475L838.6 848.674ZM805.249 883.044C761.406 892.971 719.076 884.855 712.095 883.509L711.905 884.491C718.909 885.841 761.412 893.995 805.47 884.02L805.249 883.044ZM712.095 883.509C697.543 880.704 676.813 873.712 638.368 849.142L637.83 849.985C676.34 874.596 697.189 881.654 711.905 884.491L712.095 883.509ZM638.055 848.989C636.446 848.426 635.164 848.044 633.895 847.94C632.612 847.835 631.373 848.015 629.842 848.526L630.158 849.474C631.594 848.996 632.695 848.845 633.813 848.936C634.945 849.029 636.124 849.372 637.725 849.933L638.055 848.989ZM629.842 848.526C629.713 848.569 629.591 848.647 629.497 848.767C629.405 848.885 629.363 849.016 629.346 849.134C629.316 849.353 629.368 849.582 629.434 849.778C629.571 850.183 629.856 850.704 630.236 851.302C631.005 852.511 632.254 854.173 633.812 856.134C636.932 860.062 641.343 865.256 645.758 870.553C650.179 875.856 654.604 881.263 657.773 885.638C659.358 887.827 660.617 889.741 661.402 891.244C661.796 891.998 662.06 892.628 662.191 893.126C662.327 893.645 662.293 893.923 662.229 894.048L663.119 894.505C663.357 894.039 663.31 893.453 663.158 892.872C662.999 892.27 662.698 891.565 662.289 890.782C661.469 889.212 660.177 887.252 658.583 885.051C655.392 880.646 650.945 875.214 646.526 869.912C642.101 864.603 637.705 859.427 634.595 855.512C633.039 853.553 631.818 851.926 631.08 850.765C630.706 850.178 630.478 849.743 630.382 849.459C630.332 849.31 630.338 849.26 630.337 849.272C630.335 849.286 630.325 849.331 630.287 849.381C630.246 849.434 630.195 849.462 630.158 849.474L629.842 848.526ZM608.481 844.447C604.846 844.089 584.404 842.027 566.027 839.11C556.833 837.651 548.182 835.981 542.412 834.211C539.51 833.321 537.409 832.425 536.32 831.559C535.772 831.123 535.572 830.766 535.548 830.501C535.527 830.264 535.637 829.937 536.151 829.515L535.517 828.742C534.878 829.266 534.49 829.884 534.552 830.588C534.612 831.264 535.075 831.846 535.697 832.341C536.949 833.337 539.216 834.276 542.119 835.167C547.961 836.96 556.672 838.638 565.87 840.098C584.279 843.02 604.745 845.084 608.383 845.442L608.481 844.447ZM662.146 894.048C656.126 894.896 649.556 892.072 642.949 887.235C636.356 882.409 629.816 875.644 623.878 868.773L623.122 869.427C629.075 876.317 635.674 883.149 642.358 888.042C649.028 892.925 655.87 895.942 662.285 895.038L662.146 894.048ZM623.878 868.773C615.465 859.037 610.743 848.008 609.692 845.395L608.765 845.768C609.831 848.419 614.602 859.568 623.122 869.427L623.878 868.773ZM632.714 906.048C628.197 903.909 622.78 899.013 617.722 891.553C612.671 884.103 608.001 874.127 604.961 861.873L603.99 862.114C607.057 874.475 611.773 884.561 616.894 892.115C622.009 899.658 627.55 904.709 632.286 906.952L632.714 906.048ZM632.286 906.952C633.49 907.522 634.548 907.645 635.299 907.025C635.658 906.729 635.884 906.307 636.02 905.832C636.157 905.356 636.213 904.796 636.212 904.178C636.208 901.731 635.291 897.997 634.062 893.901C632.828 889.788 631.255 885.229 629.906 881.118C628.549 876.986 627.427 873.329 627.066 870.965L626.078 871.116C626.454 873.578 627.606 877.318 628.955 881.43C630.312 885.562 631.875 890.092 633.104 894.189C634.338 898.302 635.209 901.9 635.212 904.18C635.213 904.744 635.16 905.202 635.059 905.556C634.957 905.91 634.816 906.127 634.663 906.254C634.389 906.48 633.84 906.581 632.714 906.048L632.286 906.952ZM605.643 861.319L625.78 870.716L626.202 869.809L606.066 860.412L605.643 861.319ZM604.961 861.873C604.863 861.479 605.265 861.142 605.643 861.319L606.066 860.412C604.936 859.885 603.687 860.893 603.99 862.114L604.961 861.873ZM608.383 845.442C608.544 845.458 608.677 845.551 608.765 845.768L609.692 845.395C609.494 844.902 609.082 844.506 608.481 844.447L608.383 845.442ZM638.368 849.142C638.272 849.08 638.165 849.028 638.055 848.989L637.725 849.933C637.76 849.946 637.797 849.964 637.83 849.985L638.368 849.142ZM627.066 870.965C626.989 870.457 626.672 870.028 626.202 869.809L625.78 870.716C625.943 870.792 626.05 870.935 626.078 871.116L627.066 870.965ZM859.552 814.942C859.562 814.941 859.581 814.943 859.614 814.969C859.65 814.998 859.69 815.05 859.717 815.119L860.647 814.751C860.493 814.361 860.104 813.923 859.519 813.942L859.552 814.942ZM662.229 894.048C662.235 894.037 662.242 894.028 662.248 894.022C662.253 894.017 662.255 894.017 662.249 894.02C662.243 894.023 662.232 894.028 662.214 894.034C662.195 894.039 662.173 894.044 662.146 894.048L662.285 895.038C662.521 895.005 662.919 894.894 663.119 894.505L662.229 894.048ZM819.415 855.008C819.534 854.999 819.655 854.976 819.772 854.937L819.457 853.988C819.423 853.999 819.383 854.007 819.342 854.01L819.415 855.008ZM838.925 848.491C838.811 848.537 838.704 848.596 838.6 848.674L839.199 849.475C839.23 849.452 839.262 849.434 839.303 849.417L838.925 848.491ZM805.383 882.993C805.341 883.016 805.294 883.034 805.249 883.044L805.47 884.02C805.61 883.988 805.747 883.935 805.872 883.865L805.383 882.993ZM702.656 801.482C702.682 801.468 702.711 801.457 702.736 801.448L702.429 800.497C702.346 800.523 702.264 800.559 702.188 800.598L702.656 801.482ZM536.04 828.467C535.858 828.519 535.662 828.623 535.517 828.742L536.151 829.515C536.192 829.482 536.266 829.443 536.316 829.429L536.04 828.467Z" fill="#2F83A2"/>
<circle cx="593" cy="825" r="6" fill="white"/>
<path fill-rule="evenodd" clip-rule="evenodd" d="M110.287 56.8097C111.287 43.3094 119.435 32.5402 130.935 33.6905C153.815 35.9784 153.144 67.9334 168.197 92.8839C170.958 97.4606 176.033 100.638 180.372 97.5165C193.554 88.0313 213.972 54.0274 243.528 56.9311C253.516 57.9125 260.102 67.9712 256.552 77.3588C246.803 103.142 211.485 126.447 214.818 142.11C218.109 157.578 281.651 172.723 272.009 202.801C270.721 206.818 267.603 210.089 263.606 211.437C238.002 220.071 188.303 193.586 179.316 205.616C161.462 229.515 173.318 277.609 144.317 269.612C115.315 261.615 131.817 204.109 120.817 192.612C109.816 181.116 34.3163 203.113 31.2873 177.81C28.4028 153.715 83.6079 154.199 112.631 127.53C115.512 124.883 117.588 121.432 118.245 117.575C121.822 96.6085 109.339 69.6067 110.287 56.8097Z" fill="#FF6F3B"/>
<rect x="125" y="52.0431" width="6.53934" height="37.259" rx="3.26967" transform="rotate(-18.2086 125 52.0431)" fill="white"/>
<rect x="139" y="94.0431" width="6.53934" height="27" rx="3.26967" transform="rotate(-18.2086 139 94.0431)" fill="white"/>
<rect x="236.285" y="70.6733" width="6.53934" height="37.259" rx="3.26967" transform="rotate(46.8235 236.285 70.6733)" fill="white"/>
<rect x="204.12" y="101.093" width="6.53934" height="27" rx="3.26967" transform="rotate(46.8235 204.12 101.093)" fill="white"/>
<rect x="254.249" y="192.111" width="6.53934" height="37.259" rx="3.26967" transform="rotate(111.907 254.249 192.111)" fill="white"/>
<rect x="213.109" y="175.755" width="6.53934" height="27" rx="3.26967" transform="rotate(111.907 213.109 175.755)" fill="white"/>
<rect x="151.4" y="252.542" width="6.53934" height="37.259" rx="3.26967" transform="rotate(-179.275 151.4 252.542)" fill="white"/>
<rect x="151.786" y="208.272" width="6.53934" height="27" rx="3.26967" transform="rotate(-179.275 151.786 208.272)" fill="white"/>
<rect x="51.8657" y="178.651" width="6.53934" height="37.259" rx="3.26967" transform="rotate(-100.572 51.8657 178.651)" fill="white"/>
<rect x="95.3535" y="170.357" width="6.53934" height="27" rx="3.26967" transform="rotate(-100.572 95.3535 170.357)" fill="white"/>
<path fill-rule="evenodd" clip-rule="evenodd" d="M291.856 612.779C296.472 600.053 307.23 591.891 317.99 596.11C339.397 604.504 330.104 635.085 337.843 663.178C339.263 668.332 343.288 672.764 348.31 670.933C364.067 665.187 394.33 636.354 422.805 650.136C430.332 653.779 434.118 662.859 429.678 669.944C415.968 691.82 370.454 706.897 369.404 723.184C368.386 738.965 425.459 770.741 408.038 797.087C405.711 800.606 401.824 802.911 397.611 803.127C370.626 804.51 329.948 765.564 318.042 774.713C294.386 792.889 292.785 842.398 267.03 826.851C241.275 811.304 272.722 760.409 265.243 746.364C257.765 732.32 179.129 733.065 183.06 707.887C186.804 683.91 239.818 699.315 274.975 681.496C278.465 679.727 281.397 676.966 283.074 673.431C292.191 654.215 287.48 624.842 291.856 612.779Z" fill="#FF6F3B"/>
<circle cx="313.189" cy="677.187" r="10" transform="rotate(75.4728 313.189 677.187)" fill="white"/>
<circle cx="313.094" cy="625.092" r="5" transform="rotate(75.4728 313.094 625.092)" fill="white"/>
<circle cx="313.142" cy="648.14" r="7.5" transform="rotate(75.4728 313.142 648.14)" fill="white"/>
<circle cx="275.578" cy="713.209" r="10" transform="rotate(-12.5287 275.578 713.209)" fill="white"/>
<circle cx="223.512" cy="711.486" r="5" transform="rotate(-12.5287 223.512 711.486)" fill="white"/>
<circle cx="246.547" cy="712.243" r="7.5" transform="rotate(-12.5287 246.547 712.243)" fill="white"/>
<circle cx="297.687" cy="750.808" r="10" transform="rotate(-83.0044 297.687 750.808)" fill="white"/>
<circle cx="278.662" cy="799.305" r="5" transform="rotate(-83.0044 278.662 799.305)" fill="white"/>
<circle cx="287.074" cy="777.847" r="7.5" transform="rotate(-83.0044 287.074 777.847)" fill="white"/>
<circle cx="342.179" cy="744.177" r="10" transform="rotate(-154.253 342.179 744.177)" fill="white"/>
<circle cx="381.986" cy="777.781" r="5" transform="rotate(-154.253 381.986 777.781)" fill="white"/>
<circle cx="364.371" cy="762.918" r="7.5" transform="rotate(-154.253 364.371 762.918)" fill="white"/>
<circle cx="349.568" cy="698.856" r="10" transform="rotate(136.489 349.568 698.856)" fill="white"/>
<circle cx="395.092" cy="673.531" r="5" transform="rotate(136.489 395.092 673.531)" fill="white"/>
<circle cx="374.955" cy="684.74" r="7.5" transform="rotate(136.489 374.955 684.74)" fill="white"/>
<circle cx="427" cy="276" r="16" fill="white"/>
<path d="M346.624 161.299C384.702 169.461 416.591 199.047 423.277 234.201" stroke="white" stroke-width="30" stroke-linecap="round"/>
<circle cx="244.903" cy="536.555" r="16" transform="rotate(-40.6876 244.903 536.555)" fill="white"/>
<path d="M114.5 499C153 457 200.5 493.5 214.501 508.5" stroke="white" stroke-width="30" stroke-linecap="round"/>
<path d="M462.385 541.995C462.604 550.829 455.619 558.167 446.785 558.385C437.952 558.604 430.613 551.619 430.395 542.785C430.177 533.952 437.161 526.613 445.995 526.395C454.829 526.177 462.167 533.161 462.385 541.995Z" fill="white"/>
<path d="M363 394C399.5 407 432.664 450.722 439.173 499.864" stroke="white" stroke-width="30" stroke-linecap="round"/>
<circle cx="589" cy="421.5" r="16" fill="white"/>
<path d="M560 321C588.5 330 590.5 355.5 588.5 381" stroke="white" stroke-width="30" stroke-linecap="round"/>
<circle cx="837" cy="421.5" r="16" fill="white"/>
<path d="M808 321C836.5 330 838.5 355.5 836.5 381" stroke="white" stroke-width="30" stroke-linecap="round"/>
</svg>
