<svg width="156" height="113" fill="none" xmlns="http://www.w3.org/2000/svg"><path fill-rule="evenodd" clip-rule="evenodd" d="M39 58.077V113h117V54.652L154.5 54 141 23.5c-3.5-1.5-10.9-4.7-12.5-5.5-1.6-.8-8.667-1.667-12-2h-37c-1.2 0-6.167.667-8.5 1l-9.5 2.5-13 9-5 27.5-4.5 2.077Z" fill="url(#a)"/><path fill-rule="evenodd" clip-rule="evenodd" d="M39 60h117c0-24.301-8.691-44-41-44h-2.094C141.349 16 149 35.25 149 59H46c0-23.627 7.414-42.803 35.654-43H79.5C47.422 16.202 39 35.824 39 60Z" fill="#DBAF00"/><path fill-rule="evenodd" clip-rule="evenodd" d="M39 59h.005c.232-23.715 8.86-42.8 40.495-43h2.154C53.414 16.197 46 35.373 46 59h45v-3h13v3h45c0-23.75-7.651-43-36.094-43H115c31.864 0 40.756 19.16 40.995 43H156v54H39V59Zm52 6v10h13V65h8v43H83V65h8Zm58 0v43h-29V65h29Zm-74 43V65H46v43h29Z" fill="url(#b)"/><path fill-rule="evenodd" clip-rule="evenodd" d="M98.721 63.205a1.818 1.818 0 1 0-2.351 0L95 68h5.091l-1.37-4.795Z" fill="#232323"/><path d="m20 30 3.5-14 3 14 3.5 3-3.5 2.5-3 8.5-3.5-8.5-5-2.5 5-3Z" fill="url(#c)"/><path d="M4 32.5 6.8 21l2.4 11.5 2.8 2.464-2.8 2.054L6.8 44 4 37.018l-4-2.054L4 32.5Z" fill="url(#d)"/><path d="m9 14 3.5-14 3 14 3.5 3-3.5 2.5-3 8.5L9 19.5 4 17l5-3Z" fill="url(#e)"/><defs><linearGradient id="a" x1="97.5" y1="16" x2="97.5" y2="113" gradientUnits="userSpaceOnUse"><stop stop-color="#8F3333"/><stop offset=".245" stop-color="#612323"/><stop offset="1" stop-color="#3C1616"/></linearGradient><linearGradient id="b" x1="97.5" y1="16" x2="97.5" y2="113" gradientUnits="userSpaceOnUse"><stop stop-color="#FFE680"/><stop offset=".2" stop-color="#DBAF00"/><stop offset=".42" stop-color="#F2D253"/><stop offset="1" stop-color="#C39C00"/></linearGradient><linearGradient id="c" x1="22.5" y1="16" x2="22.5" y2="44" gradientUnits="userSpaceOnUse"><stop stop-color="#FFFFFD"/><stop offset=".41" stop-color="#E6BF25"/><stop offset=".845" stop-color="#B5961D"/><stop offset="1" stop-color="#806A15"/></linearGradient><linearGradient id="d" x1="6" y1="21" x2="6" y2="44" gradientUnits="userSpaceOnUse"><stop stop-color="#FFFFFD"/><stop offset=".41" stop-color="#E6BF25"/><stop offset=".845" stop-color="#B5961D"/><stop offset="1" stop-color="#806A15"/></linearGradient><linearGradient id="e" x1="11.5" y1="0" x2="11.5" y2="28" gradientUnits="userSpaceOnUse"><stop stop-color="#FFFFFD"/><stop offset=".41" stop-color="#E6BF25"/><stop offset=".845" stop-color="#B5961D"/><stop offset="1" stop-color="#806A15"/></linearGradient></defs></svg>