<svg width="383" height="135" fill="none" preserveAspectRatio="meet" xmlns="http://www.w3.org/2000/svg"><path d="M12.366 10.695 99.679 0 296.97 8.348h68.337l-5.701 28.576 5.701 28.065L383 96.87l-13.368 31.139h-90.361L81.873 135l-73.547-4.042 5.55-19.994L0 44.864l12.366-34.169Z" fill="url(#a)"/><path d="M12.366 10.695 99.679 0 296.97 8.348h68.337l-5.701 28.576 5.701 28.065L383 96.87l-13.368 31.139h-90.361L81.873 135l-73.547-4.042 5.55-19.994L0 44.864l12.366-34.169Z" fill="url(#b)"/><path d="M13.693 15.667 96.657 7l176.405 10.706 89.242-2.43-6.35 25.922 6.35 24.557L373 94.99l-10.696 30.404-89.242-2.631L82.88 129l-70.858-3.606 5.348-17.833L4 48.604l9.693-32.937Z" fill="url(#c)"/><defs><linearGradient id="a" x1="191.5" y1="3.347" x2="191.5" y2="135" gradientUnits="userSpaceOnUse"><stop stop-color="#041D33"/><stop offset="1" stop-color="#181642"/></linearGradient><linearGradient id="b" x1="308.815" y1="-11.293" x2="289.426" y2="136.618" gradientUnits="userSpaceOnUse"><stop stop-color="#3474AC"/><stop offset="1" stop-color="#181642"/></linearGradient><linearGradient id="c" x1="184.364" y1="11.574" x2="184.364" y2="129" gradientUnits="userSpaceOnUse"><stop stop-color="#041D33"/><stop offset="1" stop-color="#181642"/></linearGradient></defs></svg>