<svg width="48" height="50" viewBox="0 0 48 50" fill="none" xmlns="http://www.w3.org/2000/svg">
<path d="M35.8223 20.3451C36.5766 26.0969 36.2098 29.5879 35.1489 33.6045C34.4063 36.4161 40.9417 37.6638 38.1892 42.1238" stroke="#252746" stroke-width="6" stroke-linecap="round"/>
<path d="M24.0792 25.8768C24.9865 31.7749 26.1611 33.3266 25.1683 37.4082C24.4734 40.2654 29.4427 41.5688 27.9474 46.1762" stroke="#252746" stroke-width="6" stroke-linecap="round"/>
<path d="M13.639 25.8143C14.3789 31.5524 13.7352 32.9493 12.668 36.9598C11.921 39.7671 18.4817 41.0084 16.912 45.5447" stroke="#252746" stroke-width="6" stroke-linecap="round"/>
<rect y="5.84766" width="43.3333" height="33" rx="10" transform="rotate(-7.75579 0 5.84766)" fill="#A5C6CD"/>
<rect x="25.0361" y="9.79395" width="9" height="16.2206" rx="4.5" transform="rotate(-7.80331 25.0361 9.79395)" fill="white"/>
<rect x="10.9917" y="11.4697" width="9" height="16.6637" rx="4.5" transform="rotate(-7.80331 10.9917 11.4697)" fill="white"/>
</svg>
