<svg width="219" height="312" viewBox="0 0 219 312" fill="none" xmlns="http://www.w3.org/2000/svg">
<path d="M142.515 22.9273L156.441 8.17355C157.215 7.35388 158.543 8.24143 158.081 9.26963L153.18 20.1814C152.942 20.7121 153.205 21.3335 153.752 21.5314L159.168 23.4906C159.881 23.7488 160.059 24.677 159.49 25.18L145.207 37.8132C144.334 38.5855 143.07 37.4933 143.708 36.5174L150.487 26.1378C150.922 25.4714 150.442 24.5882 149.646 24.591L143.246 24.6137C142.367 24.6168 141.912 23.5663 142.515 22.9273Z" fill="#F9E84C" stroke="#F9E84C"/>
<path d="M162.093 27.4559L175.317 26.1217C176.438 26.0086 176.86 27.5485 175.838 28.0235L169.207 31.105C168.679 31.3501 168.472 31.9922 168.756 32.5L170.547 35.7026C170.918 36.3651 170.444 37.1827 169.685 37.1907L157.524 37.3184C156.358 37.3307 156.118 35.6775 157.239 35.357L164.05 33.4093C164.815 33.1904 165.031 32.2085 164.427 31.6896L161.542 29.2091C160.876 28.6362 161.219 27.5441 162.093 27.4559Z" fill="#F9E84C" stroke="#F9E84C"/>
<path d="M127.723 23.7106L127.844 10.4209C127.854 9.29386 129.431 9.04245 129.792 10.1105L132.129 17.0392C132.315 17.5905 132.93 17.8672 133.466 17.6405L136.845 16.2106C137.544 15.9148 138.305 16.4752 138.23 17.2306L137.026 29.3323C136.911 30.4922 135.241 30.5504 135.045 29.4013L133.855 22.4176C133.721 21.6329 132.768 21.3115 132.187 21.8546L129.405 24.4508C128.763 25.0504 127.715 24.5893 127.723 23.7106Z" fill="#F9E84C" stroke="#F9E84C"/>
<path d="M70.4035 97.0024C58.537 110.959 35.097 143.855 36.2687 163.785C37.7333 188.698 26.3587 214.118 18.3579 218.502" stroke="#887AC7"/>
<path d="M107.454 120.678C94.5241 139.013 77.8027 160.339 77.8025 203.857C77.8023 247.138 68.638 249.166 51.3436 298.414" stroke="#887AC7"/>
<path d="M144.65 156.921C151.007 134.639 135.853 99.3408 135.853 99.3408L128.379 108.062C128.379 108.062 144.379 136.242 139.298 155.607C136.601 165.887 125.953 165.909 123.822 176.437C121.686 186.986 124.053 190.983 123.198 201.795C122.203 214.395 113.244 212.997 112.681 225.603C111.793 245.492 108.483 324.319 117.106 308.5C125.076 293.878 117.401 248.13 118.835 229.753C119.819 217.152 127.691 208.675 128.539 196.069C129.195 186.309 127.534 187.362 129.174 177.752C130.936 167.433 141.833 166.792 144.65 156.921Z" fill="url(#paint0_linear_379_1628)"/>
<path d="M90.5356 110.978C77.9368 127.95 52.8391 167.672 53.2392 190.78C53.7393 219.665 41.1858 249.939 32.8903 255.538" stroke="#887AC7"/>
<path d="M70.0563 139.058C73.2048 114.203 99.8243 89.8638 99.8243 89.8638L102.867 102.563C102.867 102.563 78.2706 119.669 75.153 141.005C73.4979 152.332 82.6204 158.699 80.3841 169.922C78.1434 181.168 70.5339 180.071 67.0937 190.802C63.0842 203.308 75.3437 210.791 70.9606 223.044C64.045 242.376 31.6706 276.665 30.3822 256.57C29.1914 237.997 49.6357 240.172 55.4992 221.943C59.5196 209.444 55.6967 200.452 59.8357 188.029C63.0403 178.41 68.9076 176.481 71.2101 166.417C73.6823 155.611 68.6615 150.069 70.0563 139.058Z" fill="url(#paint1_linear_379_1628)"/>
<path d="M94.0921 167.705C92.82 144.824 114.798 117.013 114.798 117.013L126.5 117.014C126.5 117.014 111.323 134.006 103.941 151.999C100.515 160.35 104.17 181.722 103.941 192.242C103.711 202.782 98.433 211.804 93.1691 223.839C88.646 234.179 92.5135 235.95 90.3473 247.88C87.7762 262.039 80.4593 299.199 75.6478 281.58C71.2004 265.295 84.2184 255.871 86.7925 238.274C88.5575 226.207 85.7632 220.247 92.6349 213.711C98.9907 207.667 99.552 201.333 100.051 191.832C100.587 181.631 94.6557 177.842 94.0921 167.705Z" fill="url(#paint2_linear_379_1628)"/>
<path d="M152.614 117.17C144.169 137.8 134.023 184.247 134.023 206.687C134.023 235.579 101.284 259.884 94.5149 268.101" stroke="#887AC7"/>
<path d="M171.133 108.506C169.233 131.574 157.528 177.44 147.765 196.244C135.195 220.454 152.054 263.232 154.151 274.752" stroke="#887AC7"/>
<path d="M125.658 122.579C117.213 143.209 101.672 189.996 107.067 212.096C113.81 239.722 108.293 273.138 101.524 281.355" stroke="#887AC7"/>
<path d="M81.6935 75.867C78.0273 97.6308 66.6364 142.387 50.4029 147.304C30.111 153.45 17.2188 178.304 18.661 191.312" stroke="#887AC7"/>
<path d="M54.4155 79.6968C54.3734 75.6339 58.6684 70.7087 62.0299 68.4262C103.719 40.1191 181.081 55.4454 184.476 105.722C184.696 108.988 187.254 120.049 184.491 121.804C182.018 123.374 181.165 119.888 178.46 121.012C174.813 122.527 178.034 125.836 174.612 127.807C170.754 130.03 170.787 124.196 166.481 125.33C162.073 126.492 165.955 130.752 161.461 131.515C156.707 132.322 157.492 126.733 152.67 126.746C148.213 126.758 148.774 131.472 144.331 131.128C140.224 130.81 141.562 127.43 137.488 126.826C133.381 126.217 133.362 129.743 129.253 129.149C124.453 128.455 126.156 123.987 121.412 122.975C117.091 122.053 116.064 125.782 111.743 124.861C106.999 123.849 108.369 119.781 104.002 117.671C99.3598 115.429 96.5562 119.009 91.9857 116.625C87.6995 114.389 90.3233 110.409 85.5624 109.569C82.4086 109.012 81.3068 109.444 78.1781 108.76C73.0419 107.637 76.6336 103.082 72.1919 100.269C68.7474 98.0877 67.4284 98.3972 64.3925 95.6757C61.2607 92.8681 63.3036 88.8318 61.0834 85.2595C58.7579 81.518 54.4611 84.1019 54.4155 79.6968Z" fill="url(#paint3_linear_379_1628)"/>
<path d="M185.369 109.653C180.542 125.503 148.575 129.806 113.97 119.266C79.3651 108.725 55.2259 87.3319 60.0537 71.4823C64.8814 55.6327 101.656 35.5448 136.261 46.0853C170.866 56.6259 190.197 93.8033 185.369 109.653Z" fill="url(#paint4_linear_379_1628)"/>
<ellipse cx="131.035" cy="70.1052" rx="5.5" ry="10" transform="rotate(16.9405 131.035 70.1052)" fill="url(#paint5_linear_379_1628)"/>
<ellipse cx="152.192" cy="65.3154" rx="5.5" ry="10" transform="rotate(-37.9191 152.192 65.3154)" fill="url(#paint6_linear_379_1628)"/>
<ellipse cx="5.5" cy="10" rx="5.5" ry="10" transform="matrix(-0.312332 -0.949973 -0.949973 0.312332 126.767 57.3008)" fill="url(#paint7_linear_379_1628)"/>
<defs>
<linearGradient id="paint0_linear_379_1628" x1="141.605" y1="100.753" x2="91.4957" y2="304.822" gradientUnits="userSpaceOnUse">
<stop stop-color="#3915DB"/>
<stop offset="1" stop-color="#090327"/>
</linearGradient>
<linearGradient id="paint1_linear_379_1628" x1="88.9277" y1="85.7005" x2="22.933" y2="258.425" gradientUnits="userSpaceOnUse">
<stop stop-color="#3915DB"/>
<stop offset="1" stop-color="#090327"/>
</linearGradient>
<linearGradient id="paint2_linear_379_1628" x1="106.019" y1="114.856" x2="87.8611" y2="287.216" gradientUnits="userSpaceOnUse">
<stop stop-color="#3915DB"/>
<stop offset="1" stop-color="#090327"/>
</linearGradient>
<linearGradient id="paint3_linear_379_1628" x1="112.151" y1="125.014" x2="133.121" y2="56.1668" gradientUnits="userSpaceOnUse">
<stop stop-color="#7D6FBC"/>
<stop offset="0.62" stop-color="#D6D2EA"/>
</linearGradient>
<linearGradient id="paint4_linear_379_1628" x1="113.97" y1="119.266" x2="136.261" y2="46.0853" gradientUnits="userSpaceOnUse">
<stop stop-color="#19066E"/>
<stop offset="1" stop-color="#765AF2"/>
</linearGradient>
<linearGradient id="paint5_linear_379_1628" x1="131.035" y1="80.1052" x2="131.035" y2="60.1052" gradientUnits="userSpaceOnUse">
<stop offset="0.36" stop-color="#330FD0"/>
<stop offset="1" stop-color="#6447E7"/>
</linearGradient>
<linearGradient id="paint6_linear_379_1628" x1="152.192" y1="75.3154" x2="152.192" y2="55.3154" gradientUnits="userSpaceOnUse">
<stop offset="0.36" stop-color="#330FD0"/>
<stop offset="1" stop-color="#6447E7"/>
</linearGradient>
<linearGradient id="paint7_linear_379_1628" x1="5.5" y1="20" x2="5.5" y2="0" gradientUnits="userSpaceOnUse">
<stop offset="0.36" stop-color="#330FD0"/>
<stop offset="1" stop-color="#6447E7"/>
</linearGradient>
</defs>
</svg>
