<svg xmlns="http://www.w3.org/2000/svg" xmlns:xlink="http://www.w3.org/1999/xlink" width="1080" zoomAndPan="magnify" viewBox="0 0 810 809.999993" height="1080" preserveAspectRatio="xMidYMid meet" version="1.0"><defs><filter x="0%" y="0%" width="100%" height="100%" id="bf4899ffa4"><feColorMatrix values="0 0 0 0 1 0 0 0 0 1 0 0 0 0 1 0 0 0 1 0" color-interpolation-filters="sRGB"/></filter><clipPath id="164105858d"><path d="M 1 0 L 809 0 L 809 804.75 L 1 804.75 Z M 1 0 " clip-rule="nonzero"/></clipPath><clipPath id="5e7541f187"><path d="M 328.410156 115.855469 L 481.589844 115.855469 L 481.589844 674.835938 L 328.410156 674.835938 Z M 328.410156 115.855469 " clip-rule="nonzero"/></clipPath><clipPath id="1115c62b3c"><path d="M 0.410156 0.855469 L 153.589844 0.855469 L 153.589844 559.835938 L 0.410156 559.835938 Z M 0.410156 0.855469 " clip-rule="nonzero"/></clipPath><clipPath id="c8922c0757"><rect x="0" width="154" y="0" height="560"/></clipPath><mask id="928a239260"><g filter="url(#bf4899ffa4)"><rect x="-81" width="972" fill="#000000" y="-80.999999" height="971.999992" fill-opacity="0.43"/></g></mask><clipPath id="07a4156928"><path d="M 0.460938 0.460938 L 437.539062 0.460938 L 437.539062 437.539062 L 0.460938 437.539062 Z M 0.460938 0.460938 " clip-rule="nonzero"/></clipPath><clipPath id="dae93bbb92"><path d="M 219 0.460938 C 98.304688 0.460938 0.460938 98.304688 0.460938 219 C 0.460938 339.695312 98.304688 437.539062 219 437.539062 C 339.695312 437.539062 437.539062 339.695312 437.539062 219 C 437.539062 98.304688 339.695312 0.460938 219 0.460938 Z M 219 0.460938 " clip-rule="nonzero"/></clipPath><clipPath id="6005592edd"><path d="M 0.460938 0.460938 L 437.539062 0.460938 L 437.539062 437.539062 L 0.460938 437.539062 Z M 0.460938 0.460938 " clip-rule="nonzero"/></clipPath><clipPath id="d733161055"><path d="M 219 0.460938 C 98.304688 0.460938 0.460938 98.304688 0.460938 219 C 0.460938 339.695312 98.304688 437.539062 219 437.539062 C 339.695312 437.539062 437.539062 339.695312 437.539062 219 C 437.539062 98.304688 339.695312 0.460938 219 0.460938 Z M 219 0.460938 " clip-rule="nonzero"/></clipPath><clipPath id="0d743d8086"><rect x="0" width="438" y="0" height="438"/></clipPath><clipPath id="6b80271080"><rect x="0" width="438" y="0" height="438"/></clipPath></defs><path fill="#7c3878" d="M 444.734375 185.160156 C 445.324219 185.246094 445.890625 185.359375 446.429688 185.496094 C 446.96875 185.632812 447.441406 185.785156 447.84375 185.953125 C 448.25 186.117188 448.554688 186.285156 448.761719 186.457031 C 448.96875 186.628906 449.058594 186.785156 449.039062 186.933594 C 449.015625 187.082031 448.882812 187.207031 448.636719 187.3125 C 448.386719 187.414062 448.046875 187.488281 447.613281 187.53125 C 447.179688 187.574219 446.683594 187.585938 446.128906 187.5625 C 445.570312 187.539062 444.996094 187.480469 444.40625 187.394531 C 443.8125 187.308594 443.246094 187.195312 442.707031 187.058594 C 442.167969 186.921875 441.695312 186.769531 441.292969 186.601562 C 440.886719 186.4375 440.582031 186.269531 440.375 186.097656 C 440.167969 185.925781 440.078125 185.769531 440.097656 185.621094 C 440.121094 185.472656 440.253906 185.347656 440.503906 185.242188 C 440.75 185.140625 441.089844 185.066406 441.523438 185.023438 C 441.957031 184.980469 442.453125 184.96875 443.011719 184.992188 C 443.566406 185.015625 444.140625 185.074219 444.734375 185.160156 Z M 444.734375 185.160156 " fill-opacity="1" fill-rule="nonzero"/><g clip-path="url(#164105858d)"><path fill="#7c3878" d="M 804 498.546875 L 637.496094 402.386719 L 804 306.226562 C 808.195312 303.808594 809.648438 298.484375 807.226562 294.128906 L 699.773438 108.097656 C 697.351562 103.90625 692.027344 102.453125 687.671875 104.871094 L 521.167969 201.03125 L 521.167969 8.875 C 521.167969 4.035156 517.292969 0 512.292969 0 L 297.546875 0 C 292.707031 0 288.671875 3.871094 288.671875 8.875 L 288.671875 201.195312 L 122.328125 104.871094 C 118.132812 102.453125 112.808594 103.90625 110.226562 108.097656 L 2.773438 294.289062 C 0.351562 298.484375 1.804688 303.808594 6 306.390625 L 172.503906 402.550781 L 6 498.546875 C 1.804688 500.96875 0.351562 506.292969 2.773438 510.648438 L 110.226562 696.675781 C 112.648438 700.871094 117.972656 702.324219 122.328125 699.902344 L 288.832031 603.742188 L 288.832031 796.0625 C 288.832031 800.902344 292.707031 804.9375 297.707031 804.9375 L 512.617188 804.9375 C 517.457031 804.9375 521.488281 801.066406 521.488281 796.0625 L 521.488281 603.742188 L 687.996094 699.902344 C 692.191406 702.324219 697.515625 700.871094 700.09375 696.675781 L 807.550781 510.648438 C 809.648438 506.292969 808.195312 500.96875 804 498.546875 Z M 419.199219 652.308594 C 416.777344 655.535156 413.390625 653.597656 411.9375 653.113281 C 411.292969 652.628906 410.648438 652.308594 410 651.984375 C 410 651.824219 410 651.5 410 651.339844 L 410.164062 641.496094 C 415.164062 645.046875 418.875 647.144531 419.035156 647.304688 C 420.8125 648.757812 420.488281 650.695312 419.199219 652.308594 Z M 476.957031 196.191406 C 467.921875 214.746094 416.617188 220.878906 416.617188 220.878906 C 414.84375 221.363281 412.90625 221.847656 411.292969 222.328125 L 408.226562 423.039062 C 411.453125 421.585938 413.550781 420.621094 413.550781 420.621094 C 432.589844 411.101562 443.5625 404.484375 443.5625 384.964844 C 443.5625 370.765625 432.429688 364.632812 414.519531 356.246094 L 415.003906 321.070312 C 443.5625 335.109375 470.34375 351.402344 470.34375 385.125 C 470.34375 421.585938 443.5625 437.398438 417.746094 450.308594 C 416.132812 451.113281 414.519531 451.921875 412.90625 452.726562 C 411.132812 453.695312 409.355469 454.664062 407.582031 455.632812 L 405.96875 567.117188 C 409.195312 565.667969 411.292969 564.539062 411.292969 564.539062 C 417.585938 560.828125 422.746094 556.46875 422.746094 551.144531 C 422.746094 546.628906 417.746094 541.789062 411.613281 537.269531 L 412.097656 509.84375 C 427.265625 521.136719 440.171875 529.042969 440.171875 549.046875 C 440.171875 570.183594 424.683594 575.992188 411.132812 581.316406 C 409.355469 582.125 407.582031 582.769531 405.808594 583.574219 L 404.675781 658.921875 C 404.675781 661.019531 402.902344 662.632812 400.804688 662.632812 C 398.707031 662.632812 396.933594 661.019531 396.933594 658.921875 L 396.609375 641.980469 C 394.675781 640.53125 392.898438 638.917969 391.125 637.464844 C 378.863281 627.300781 366.277344 614.554688 366.277344 599.386719 C 366.277344 584.058594 378.703125 578.898438 390.15625 574.378906 L 390.316406 589.222656 C 384.507812 591.964844 379.183594 596.320312 379.183594 603.257812 C 378.863281 610.84375 384.1875 618.585938 390.800781 625.6875 C 390.800781 625.6875 393.0625 627.785156 396.289062 630.6875 L 394.675781 526.300781 C 392.898438 525.007812 391.125 523.554688 389.1875 521.941406 C 373.375 510.003906 361.113281 499.195312 361.113281 472.570312 C 361.113281 451.113281 372.410156 441.59375 387.898438 433.203125 L 388.382812 468.214844 C 386.605469 470.3125 385.640625 472.25 385.640625 474.347656 C 385.640625 478.542969 386.605469 482.414062 388.542969 486.285156 C 388.542969 486.285156 390.640625 489.027344 394.027344 492.738281 L 391.769531 345.59375 C 389.832031 344.628906 388.058594 343.660156 386.445312 342.851562 C 359.824219 329.136719 332.234375 310.90625 332.234375 277.347656 C 332.234375 241.367188 350.789062 214.101562 384.347656 198.453125 L 384.832031 235.074219 C 372.730469 244.273438 364.339844 257.664062 364.339844 277.1875 C 364.339844 288.640625 372.410156 297.191406 385.960938 305.742188 C 385.960938 305.742188 388.058594 306.875 391.285156 308.648438 L 389.1875 169.894531 C 385.640625 166.503906 383.703125 161.664062 384.347656 156.339844 C 385.15625 148.917969 391.125 143.109375 398.546875 142.304688 C 408.226562 141.175781 416.457031 148.757812 416.457031 158.277344 C 416.457031 162.792969 414.519531 166.988281 411.453125 169.894531 L 411.132812 189.253906 C 414.359375 188.449219 416.457031 187.964844 416.457031 187.964844 C 420.003906 187.15625 423.714844 186.511719 427.425781 186.027344 C 428.71875 185.867188 430.652344 185.707031 433.074219 185.707031 C 433.234375 185.707031 433.234375 185.707031 433.394531 185.707031 C 437.914062 185.382812 436.140625 182.316406 442.269531 182.800781 C 447.273438 183.285156 453.726562 186.671875 456.953125 186.835938 C 466.957031 188.125 475.828125 190.546875 476.3125 194.578125 C 477.121094 195.222656 477.121094 195.707031 476.957031 196.191406 Z M 476.957031 196.191406 " fill-opacity="1" fill-rule="nonzero"/></g><g clip-path="url(#5e7541f187)"><g transform="matrix(1, 0, 0, 1, 328, 115)"><g clip-path="url(#c8922c0757)"><g clip-path="url(#1115c62b3c)"><path fill="#7c3878" d="M 0.410156 0.855469 L 153.589844 0.855469 L 153.589844 559.71875 L 0.410156 559.71875 Z M 0.410156 0.855469 " fill-opacity="1" fill-rule="nonzero"/></g></g></g></g><g mask="url(#928a239260)"><g transform="matrix(1, 0, 0, 1, 186, 186)"><g clip-path="url(#6b80271080)"><g clip-path="url(#07a4156928)"><g clip-path="url(#dae93bbb92)"><g transform="matrix(1, 0, 0, 1, 0, 0.000000000000028422)"><g clip-path="url(#0d743d8086)"><g clip-path="url(#6005592edd)"><g clip-path="url(#d733161055)"><path fill="#141418" d="M 0.460938 0.460938 L 437.539062 0.460938 L 437.539062 437.539062 L 0.460938 437.539062 Z M 0.460938 0.460938 " fill-opacity="1" fill-rule="nonzero"/></g></g></g></g></g></g></g></g></g></svg>