<svg width="84" height="87" fill="none" xmlns="http://www.w3.org/2000/svg"><path d="M40.952 25.828c-.68 4.344-1.692 6.805-3.32 9.5-1.141 1.886 3.346 4.189.392 6.845M31.23 27.344c-.6 4.483-.076 5.862-1.67 8.619-1.115 1.93 2.22 3.938.15 6.97M23.65 25.07c-.687 4.331-1.453 5.21-3.085 7.899-1.143 1.882 3.364 4.186 1.253 7.15" stroke="#17558B" stroke-width="6" stroke-linecap="round"/><rect x="18.413" y="8.206" width="31.846" height="24.013" rx="4.5" transform="rotate(8.603 18.413 8.206)" fill="#17558B" stroke="#17558B"/><path d="M67.518 44.638c-.68 4.344-1.691 6.805-3.32 9.5-1.14 1.886 3.346 4.188.392 6.844M60.134 44.638c-.599 4.483-.076 5.862-1.67 8.619-1.115 1.93 2.221 3.938.15 6.97M55.134 42.638c-.687 4.33-1.453 5.21-3.085 7.898-1.143 1.883 3.364 4.186 1.254 7.15" stroke="#17558B" stroke-width="3" stroke-linecap="round"/><rect x="50.576" y="36.502" width="22.328" height="16.765" rx="4.5" transform="rotate(8.603 50.576 36.502)" fill="#17558B" stroke="#17558B"/><path d="M25.518 56.342c-.68 4.344-1.691 6.805-3.32 9.5-1.14 1.886 3.346 4.188.392 6.844M18.134 56.342c-.599 4.483-.076 5.862-1.67 8.619-1.115 1.93 2.221 3.938.15 6.97M13.134 54.342c-.687 4.33-1.453 5.21-3.085 7.898-1.143 1.883 3.364 4.186 1.254 7.15" stroke="#17558B" stroke-width="3" stroke-linecap="round"/><rect x="8.576" y="48.206" width="22.328" height="16.765" rx="4.5" transform="rotate(8.603 8.576 48.206)" fill="#17558B" stroke="#17558B"/></svg>