<svg width="1777" height="712" viewBox="0 0 1777 712" fill="none" xmlns="http://www.w3.org/2000/svg">
<path d="M1132.87 513.534C1098.07 605.003 1064.68 639.271 888.473 639.271C720.633 639.271 673.278 587.648 650.061 486.587C632.089 408.357 635.517 241.93 888.473 241.931C1107.33 241.931 1153.08 380.68 1132.87 513.534Z" fill="#060521"/>
<path d="M779.458 422.373C794.002 422.373 805.792 417.384 805.792 411.231C805.792 405.078 794.002 400.09 779.458 400.09C764.914 400.09 753.124 405.078 753.124 411.231C753.124 417.384 764.914 422.373 779.458 422.373Z" fill="white"/>
<path d="M986.58 422.373C1001.12 422.373 1012.91 417.384 1012.91 411.231C1012.91 405.078 1001.12 400.09 986.58 400.09C972.036 400.09 960.246 405.078 960.246 411.231C960.246 417.384 972.036 422.373 986.58 422.373Z" fill="white"/>
<path d="M592.071 402.597C660.572 484.016 672.643 519.463 712.476 519.463L732.357 633.112C660.572 633.112 612.988 630.709 521.156 443.403C430.324 258.138 465.329 133.581 490.98 76.3625C514.105 24.7767 564.611 1.0002 592.071 1C619.532 0.999804 660.572 1 670.229 46.3568C676.617 76.3625 677.773 102.035 660.572 109.856C643.371 117.677 617.42 111.835 617.42 96.5982C617.42 81.3615 648.2 107.066 648.2 76.3625C648.2 45.6595 577.888 6.93129 545.297 96.5982C512.706 186.265 523.57 321.179 592.071 402.597Z" fill="#060521" stroke="black"/>
<path d="M1184.17 415.286C1115.67 492.223 1103.6 525.719 1063.76 525.719L1043.88 633.112C1115.67 633.112 1163.25 630.841 1255.08 453.846C1345.92 278.778 1310.91 161.078 1285.26 107.009C1262.13 58.2628 1211.63 35.7951 1184.17 35.7949C1156.71 35.7947 1115.67 35.7949 1106.01 78.655C1099.62 107.009 1098.47 131.268 1115.67 138.659C1132.87 146.049 1158.82 140.529 1158.82 126.131C1158.82 111.733 1128.04 136.022 1128.04 107.009C1128.04 77.9961 1198.35 41.3997 1230.94 126.131C1263.53 210.862 1252.67 338.349 1184.17 415.286Z" fill="#060521" stroke="black"/>
<path d="M402.071 465.327C448.356 502.795 484.357 525.104 547.221 539.668C592.29 550.11 758.172 554.671 757.048 612.303C755.753 678.763 611.09 666.028 529.862 632.859C449.125 599.891 351.717 529.291 317.061 485.808C272.123 429.424 247.313 379.891 254.111 314.985C257.575 281.913 263.589 249.782 283.453 232.754C295.559 222.377 307.863 219.915 325.282 221.125C348.385 222.732 362.699 233.744 369.607 249.782C373.608 259.072 376.059 266.163 369.607 274.7C362.641 283.917 339.123 298.634 337.455 288.198C336.543 282.487 345.571 274.7 345.571 274.7C345.571 274.7 348.139 266.256 345.571 261.41C341.008 252.798 337.736 247.452 325.282 249.782C301.861 254.163 304.099 289.299 304.992 314.985C307.243 379.773 342.388 417.015 402.071 465.327Z" fill="#060521" stroke="black"/>
<path d="M1373.31 448.344C1330.19 491.87 1300.17 509.095 1244.93 541.777C1182.93 578.467 1026.39 540.898 1027.04 607.995C1027.8 685.473 1208.39 655.332 1285.95 622.688C1365.64 589.145 1408.35 535.823 1452.39 466.927C1494.16 401.58 1530.54 349.296 1524.2 274.001C1520.97 235.637 1518.47 200.844 1483.78 178.642C1470.48 170.128 1461.04 163.739 1444.83 165.157C1423.36 167.034 1409.97 179.737 1403.55 198.388C1399.84 209.16 1397.57 217.384 1403.55 227.285C1410.03 238.015 1445.26 246.387 1437.51 236.053C1434.2 231.637 1425.93 227.285 1425.93 227.285C1424.64 221.38 1423.56 217.493 1425.93 211.873C1430.17 201.844 1440.66 199.927 1452.39 198.388C1484.94 194.117 1476.15 244.21 1475.33 274.001C1473.25 349.203 1428.78 392.364 1373.31 448.344Z" fill="#060521" stroke="black"/>
<path d="M1313.5 536.67C1077.75 653.119 555.798 604.012 399.56 536.695C399.518 536.677 399.54 536.681 399.496 536.669C398.057 536.271 0.5 426.481 0.5 510V710.578C0.5 711.13 0.947715 711.505 1.5 711.505H1776C1776.55 711.505 1777 711.057 1777 710.505V477.667C1777 477.19 1776.68 476.783 1776.21 476.691C1656.5 453.05 1432.84 477.72 1313.5 536.67Z" fill="#0C0C0C"/>
<path d="M605.974 632.139C604.847 629.098 601.506 623.246 597.154 624.158C597.154 628.718 603.034 631.379 605.974 632.139Z" fill="#17558B"/>
<path d="M603.282 606.042C605.449 606.351 607.292 608.234 608.631 610.266C609.581 611.71 608.509 613.455 607.126 612.756C605.033 611.699 602.909 610.1 602.096 607.959C601.714 606.953 602.402 605.916 603.282 606.042Z" fill="#17558B"/>
<path d="M596.447 662.923C596.447 662.923 602.276 648.079 605.974 632.139M629.79 553.469C619.044 575 609.379 589.064 608.939 611.616C608.817 617.887 607.602 625.119 605.974 632.139M605.974 632.139C604.847 629.098 601.506 623.246 597.154 624.158C597.154 628.718 603.034 631.379 605.974 632.139ZM608.631 610.266C607.292 608.234 605.449 606.351 603.282 606.042C602.402 605.916 601.714 606.953 602.096 607.959C602.909 610.1 605.033 611.699 607.126 612.756C608.509 613.455 609.581 611.71 608.631 610.266Z" stroke="#17558B" stroke-linecap="round"/>
<path d="M601.433 618.116C604.956 618.002 607.783 621.577 609.32 624.447C609.703 625.162 609.057 625.911 608.292 625.641C605.233 624.56 601.257 622.356 600.684 619.03C600.603 618.558 600.955 618.132 601.433 618.116Z" fill="#17558B"/>
<path d="M605.591 585.059C608.872 584.975 611.507 588.529 612.942 591.386C613.305 592.109 612.647 592.84 611.892 592.551C609.034 591.457 605.373 589.262 604.847 585.964C604.772 585.496 605.117 585.071 605.591 585.059Z" fill="#17558B"/>
<path d="M609.173 576.979C612.696 576.865 615.524 580.44 617.06 583.31C617.443 584.026 616.797 584.774 616.032 584.504C612.974 583.423 608.997 581.219 608.424 577.893C608.343 577.421 608.695 576.995 609.173 576.979Z" fill="#17558B"/>
<path d="M613.319 570.366C616.359 570.315 618.8 573.843 620.134 576.686C620.477 577.416 619.805 578.129 619.061 577.819C616.406 576.711 613.06 574.525 612.581 571.261C612.513 570.797 612.85 570.374 613.319 570.366Z" fill="#17558B"/>
<path d="M622.832 552C625.632 551.986 627.879 555.483 629.113 558.31C629.434 559.047 628.75 559.742 628.018 559.407C625.567 558.283 622.534 556.109 622.102 552.883C622.04 552.424 622.369 552.002 622.832 552Z" fill="#17558B"/>
<path d="M631.949 568.158C628.426 568.273 625.598 564.697 624.062 561.827C623.679 561.112 624.325 560.363 625.09 560.634C628.148 561.715 632.125 563.919 632.698 567.245C632.779 567.717 632.427 568.143 631.949 568.158Z" fill="#17558B"/>
<path d="M627.78 578.443C624.257 578.557 621.43 574.981 619.893 572.111C619.51 571.396 620.156 570.647 620.921 570.918C623.98 571.999 627.956 574.203 628.529 577.529C628.61 578.001 628.258 578.427 627.78 578.443Z" fill="#17558B"/>
<path d="M620.063 593.136C617.023 593.187 614.582 589.659 613.248 586.816C612.905 586.086 613.577 585.373 614.321 585.683C616.976 586.791 620.322 588.977 620.801 592.241C620.869 592.705 620.532 593.128 620.063 593.136Z" fill="#17558B"/>
<path d="M623.623 585.056C620.342 585.14 617.707 581.586 616.272 578.729C615.909 578.007 616.567 577.275 617.322 577.564C620.18 578.658 623.841 580.854 624.367 584.151C624.442 584.619 624.097 585.044 623.623 585.056Z" fill="#17558B"/>
<path d="M618.231 599.748C615.102 599.795 612.565 597.14 611.1 594.868C610.655 594.178 611.272 593.398 612.054 593.647C614.836 594.531 618.331 596.261 618.969 598.834C619.087 599.307 618.719 599.741 618.231 599.748Z" fill="#17558B"/>
<path d="M617.077 608.56C613.492 608.699 610.625 604.665 609.104 601.507C608.753 600.779 609.417 600.05 610.171 600.339C613.257 601.523 617.3 603.961 617.824 607.651C617.891 608.118 617.549 608.542 617.077 608.56Z" fill="#17558B"/>
<path d="M614.703 623.254C611.662 623.305 609.221 619.777 607.887 616.934C607.545 616.204 608.217 615.491 608.96 615.801C611.616 616.909 614.962 619.096 615.441 622.359C615.509 622.823 615.172 623.247 614.703 623.254Z" fill="#17558B"/>
<path d="M588.85 593.001C592.209 592.929 594.934 595.599 596.504 597.882C596.972 598.563 596.368 599.362 595.575 599.129C592.597 598.253 588.804 596.518 588.111 593.922C587.984 593.447 588.358 593.012 588.85 593.001Z" fill="#17558B"/>
<path d="M616.307 560.082C619.589 559.997 622.223 563.551 623.659 566.409C624.021 567.131 623.363 567.863 622.609 567.574C619.751 566.48 616.089 564.284 615.563 560.987C615.489 560.518 615.833 560.094 616.307 560.082Z" fill="#17558B"/>
<path d="M1481.49 534.479C1483.11 530.288 1487.91 522.219 1494.16 523.477C1494.16 529.764 1485.71 533.432 1481.49 534.479Z" fill="#17558B"/>
<path d="M1485.36 498.502C1482.24 498.928 1479.6 501.524 1477.67 504.326C1476.31 506.316 1477.85 508.722 1479.84 507.759C1482.84 506.302 1485.89 504.097 1487.06 501.145C1487.61 499.758 1486.62 498.329 1485.36 498.502Z" fill="#17558B"/>
<path d="M1495.18 576.918C1495.18 576.918 1486.8 556.455 1481.49 534.479M1447.28 426.025C1462.71 455.708 1476.6 475.097 1477.23 506.187C1477.41 514.833 1479.15 524.803 1481.49 534.479M1481.49 534.479C1483.11 530.288 1487.91 522.219 1494.16 523.477C1494.16 529.764 1485.71 533.432 1481.49 534.479ZM1477.67 504.326C1479.6 501.524 1482.24 498.928 1485.36 498.502C1486.62 498.329 1487.61 499.758 1487.06 501.145C1485.89 504.097 1482.84 506.302 1479.84 507.759C1477.85 508.722 1476.31 506.316 1477.67 504.326Z" stroke="#17558B" stroke-linecap="round"/>
<path d="M1488.37 515.165C1482.86 514.739 1478.49 520.393 1476.33 524.524C1475.96 525.245 1476.6 526.014 1477.38 525.773C1481.94 524.362 1488.48 521.139 1489.14 516.104C1489.2 515.626 1488.85 515.203 1488.37 515.165Z" fill="#17558B"/>
<path d="M1482.39 469.591C1477.25 469.197 1473.17 474.831 1471.15 478.95C1470.79 479.678 1471.45 480.429 1472.22 480.172C1476.49 478.746 1482.55 475.529 1483.15 470.523C1483.21 470.049 1482.87 469.627 1482.39 469.591Z" fill="#17558B"/>
<path d="M1477.25 458.454C1471.74 458.028 1467.37 463.682 1465.21 467.813C1464.84 468.535 1465.48 469.303 1466.26 469.062C1470.82 467.651 1477.36 464.428 1478.02 459.393C1478.08 458.916 1477.73 458.492 1477.25 458.454Z" fill="#17558B"/>
<path d="M1471.28 449.334C1466.5 448.977 1462.71 454.584 1460.84 458.691C1460.5 459.426 1461.17 460.159 1461.93 459.884C1465.91 458.439 1471.48 455.23 1472.04 450.258C1472.09 449.789 1471.75 449.369 1471.28 449.334Z" fill="#17558B"/>
<path d="M1457.61 424.013C1453.19 423.696 1449.69 429.273 1447.96 433.366C1447.64 434.107 1448.32 434.822 1449.07 434.525C1452.77 433.059 1457.85 429.861 1458.36 424.928C1458.4 424.465 1458.07 424.046 1457.61 424.013Z" fill="#17558B"/>
<path d="M1443.83 446.257C1449.33 446.684 1453.7 441.03 1455.86 436.899C1456.23 436.177 1455.59 435.409 1454.81 435.65C1450.25 437.061 1443.71 440.284 1443.05 445.319C1442.99 445.796 1443.35 446.22 1443.83 446.257Z" fill="#17558B"/>
<path d="M1449.81 460.434C1455.32 460.861 1459.69 455.206 1461.85 451.076C1462.22 450.354 1461.58 449.586 1460.8 449.827C1456.24 451.237 1449.7 454.46 1449.04 459.496C1448.98 459.973 1449.33 460.397 1449.81 460.434Z" fill="#17558B"/>
<path d="M1460.91 480.695C1465.69 481.052 1469.48 475.444 1471.35 471.337C1471.69 470.603 1471.02 469.869 1470.26 470.145C1466.28 471.589 1460.7 474.798 1460.15 479.77C1460.1 480.239 1460.44 480.66 1460.91 480.695Z" fill="#17558B"/>
<path d="M1455.79 469.552C1460.93 469.945 1465.01 464.312 1467.03 460.192C1467.38 459.465 1466.73 458.714 1465.96 458.97C1461.69 460.397 1455.63 463.613 1455.02 468.619C1454.97 469.093 1455.31 469.515 1455.79 469.552Z" fill="#17558B"/>
<path d="M1463.52 489.811C1468.49 490.103 1472.47 485.789 1474.54 482.46C1474.97 481.76 1474.36 480.958 1473.56 481.178C1469.36 482.341 1463.5 484.905 1462.75 488.871C1462.66 489.353 1463.03 489.782 1463.52 489.811Z" fill="#17558B"/>
<path d="M1465.19 501.951C1470.77 502.435 1475.18 496.111 1477.32 491.588C1477.66 490.857 1477 490.111 1476.23 490.369C1471.65 491.91 1465.03 495.459 1464.43 501.017C1464.38 501.49 1464.72 501.91 1465.19 501.951Z" fill="#17558B"/>
<path d="M1468.61 522.216C1473.39 522.573 1477.18 516.966 1479.05 512.858C1479.39 512.124 1478.72 511.391 1477.96 511.666C1473.98 513.111 1468.4 516.319 1467.85 521.292C1467.8 521.761 1468.14 522.181 1468.61 522.216Z" fill="#17558B"/>
<path d="M1484.91 480.728C1479.59 480.408 1475.33 484.736 1473.11 488.074C1472.65 488.766 1473.26 489.588 1474.07 489.381C1478.55 488.23 1484.88 485.66 1485.68 481.673C1485.78 481.188 1485.41 480.757 1484.91 480.728Z" fill="#17558B"/>
<path d="M1466.99 435.159C1461.85 434.766 1457.77 440.399 1455.75 444.519C1455.4 445.246 1456.06 445.997 1456.82 445.741C1461.1 444.314 1467.15 441.097 1467.76 436.091C1467.82 435.618 1467.47 435.196 1466.99 435.159Z" fill="#17558B"/>
<path d="M187.156 524.486C189.695 535.536 202.467 531.639 205.094 542.659C206.33 547.847 206.223 555.749 206.128 558.769C206.107 559.405 206.673 559.905 207.301 559.804L213.961 558.734C214.507 558.646 214.881 558.136 214.81 557.588C214.441 554.726 213.603 546.32 215.738 541.471C218.591 534.993 231.558 534.425 228.551 528.049C225.926 522.484 214.318 525.904 211.757 520.296C208.881 514.001 227.509 509.955 227.565 502.769C227.634 493.831 216.272 504.178 214.949 503.582C211.795 502.159 210.782 497.643 211.205 494.318C212.556 483.671 224.001 486.648 220.272 476.859C217.964 470.802 214.118 466.188 208.642 467.12C201.854 468.274 208.126 485.12 201.348 486.361C195.441 487.443 194.375 471.111 189.324 474.959C186.043 477.458 186.011 481.556 185.974 486.222L185.973 486.361C185.889 496.99 200.133 494.833 202.334 505.127C203.371 509.978 205.073 514.187 202.334 517.955C198.194 523.649 189.516 505.644 185.973 511.896C183.657 515.982 186.06 519.717 187.156 524.486Z" fill="#17558B"/>
<path d="M1067.45 602.15C1067.69 617.536 1082.47 615.679 1082.81 631.048C1082.97 638.536 1080.91 649.523 1080.18 653.176C1080.05 653.809 1080.53 654.434 1081.17 654.461L1088.96 654.787C1089.48 654.809 1089.91 654.416 1089.94 653.884C1090.14 650.432 1091.1 638.369 1094.65 632.246C1099.24 624.36 1113.47 626.99 1111.65 617.71C1110.07 609.611 1096.67 611.134 1095.16 602.995C1093.47 593.856 1114.65 593.332 1116.35 583.773C1118.47 571.883 1103.75 582.701 1102.45 581.561C1099.34 578.841 1099.27 572.56 1100.49 568.24C1104.39 554.408 1116.16 561.364 1114.34 547.349C1113.21 538.676 1110.08 531.525 1103.92 531.335C1096.27 531.1 1099.24 555.182 1091.59 555.065C1084.92 554.963 1087.49 532.926 1081.12 536.733C1076.98 539.206 1076.01 544.657 1074.91 550.864L1074.87 551.048C1072.35 565.188 1088.34 566.035 1088.38 580.324C1088.4 587.058 1089.29 593.109 1085.45 597.413C1079.65 603.919 1074.32 577.665 1069.04 585.068C1065.59 589.907 1067.35 595.511 1067.45 602.15Z" fill="#17558B"/>
</svg>
