<svg width="1777" height="842" viewBox="0 0 1777 842" fill="none" xmlns="http://www.w3.org/2000/svg">
<path d="M1180.49 614.633C1138.82 724.151 1098.84 765.181 887.865 765.181C686.906 765.181 630.207 703.371 602.409 582.369C580.891 488.703 584.995 289.437 887.865 289.438C1149.91 289.438 1204.68 455.564 1180.49 614.633Z" fill="#060521"/>
<path d="M757.338 505.484C774.751 505.484 788.868 499.512 788.868 492.144C788.868 484.777 774.751 478.805 757.338 478.805C739.924 478.805 725.808 484.777 725.808 492.144C725.808 499.512 739.924 505.484 757.338 505.484Z" fill="white"/>
<path d="M1005.33 505.484C1022.74 505.484 1036.86 499.512 1036.86 492.144C1036.86 484.777 1022.74 478.805 1005.33 478.805C987.915 478.805 973.799 484.777 973.799 492.144C973.799 499.512 987.915 505.484 1005.33 505.484Z" fill="white"/>
<path d="M532.977 481.807C614.994 579.291 629.447 621.732 677.14 621.732L700.943 757.806C614.994 757.806 558.021 754.929 448.068 530.664C339.313 308.843 381.226 159.709 411.938 91.1997C439.626 29.4351 500.097 0.967033 532.977 0.966797C565.856 0.966562 614.994 0.966797 626.556 55.2733C634.205 91.1997 635.589 121.938 614.994 131.302C594.399 140.666 563.327 133.671 563.327 115.428C563.327 97.1851 600.18 127.961 600.18 91.1997C600.18 54.4384 515.995 8.06844 476.973 115.428C437.952 222.788 450.959 384.323 532.977 481.807Z" fill="#060521" stroke="black"/>
<path d="M1241.9 497C1159.89 589.118 1145.43 629.223 1097.74 629.223L1073.94 757.807C1159.89 757.807 1216.86 755.088 1326.81 543.168C1435.57 333.556 1393.66 192.632 1362.94 127.894C1335.25 69.5292 1274.78 42.6282 1241.9 42.6279C1209.02 42.6277 1159.89 42.6279 1148.32 93.9451C1140.68 127.894 1139.29 156.94 1159.89 165.789C1180.48 174.638 1211.55 168.028 1211.55 150.789C1211.55 133.55 1174.7 162.632 1174.7 127.894C1174.7 93.1561 1258.89 49.3387 1297.91 150.789C1336.93 252.239 1323.92 404.882 1241.9 497Z" fill="#060521" stroke="black"/>
<path d="M305.485 556.915C360.903 601.775 404.009 628.486 479.276 645.924C533.239 658.426 731.851 663.887 730.506 732.891C728.955 812.465 555.748 797.217 458.492 757.503C361.825 718.03 245.195 633.499 203.701 581.436C149.897 513.927 120.191 454.62 128.33 376.907C132.478 337.309 139.679 298.838 163.462 278.45C177.957 266.025 192.689 263.077 213.544 264.527C241.207 266.45 258.345 279.635 266.616 298.838C271.406 309.961 274.341 318.451 266.616 328.673C258.275 339.709 230.116 357.33 228.12 344.834C227.028 337.997 237.837 328.673 237.837 328.673C237.837 328.673 240.912 318.563 237.837 312.761C232.373 302.449 228.456 296.048 213.544 298.838C185.502 304.084 188.182 346.152 189.251 376.907C191.946 454.478 234.026 499.069 305.485 556.915Z" fill="#060521" stroke="black"/>
<path d="M1468.37 536.58C1416.74 588.694 1380.79 609.317 1314.66 648.448C1240.42 692.378 1053 647.396 1053.78 727.732C1054.68 820.498 1270.9 784.41 1363.77 745.325C1459.19 705.163 1510.32 641.319 1563.05 558.829C1613.06 480.589 1656.62 417.988 1649.03 327.835C1645.17 281.902 1642.17 240.243 1600.64 213.66C1584.71 203.466 1573.41 195.816 1554 197.514C1528.3 199.762 1512.26 214.971 1504.57 237.302C1500.13 250.2 1497.42 260.047 1504.57 271.901C1512.33 284.749 1554.52 294.772 1545.24 282.399C1541.27 277.112 1531.37 271.901 1531.37 271.901C1529.83 264.832 1528.53 260.177 1531.37 253.448C1536.45 241.441 1549 239.145 1563.05 237.302C1602.02 232.188 1591.5 292.166 1590.52 327.835C1588.02 417.876 1534.78 469.553 1468.37 536.58Z" fill="#060521" stroke="black"/>
<path d="M1313.5 666.67C1077.78 783.105 555.931 734.025 399.619 666.721C399.535 666.685 399.574 666.68 399.483 666.667C396.536 666.271 0.5 613.058 0.5 628.5V840.607C0.5 841.159 0.947715 841.505 1.5 841.505H1776C1776.55 841.505 1777 841.057 1777 840.505V607.667C1777 607.19 1776.68 606.783 1776.21 606.691C1656.5 583.05 1432.84 607.72 1313.5 666.67Z" fill="#0C0C0C"/>
<path d="M605.974 762.139C604.847 759.098 601.506 753.246 597.154 754.158C597.154 758.718 603.034 761.379 605.974 762.139Z" fill="#17558B"/>
<path d="M603.282 736.042C605.449 736.351 607.292 738.234 608.631 740.266C609.581 741.71 608.509 743.455 607.126 742.756C605.033 741.699 602.909 740.1 602.096 737.959C601.714 736.953 602.402 735.916 603.282 736.042Z" fill="#17558B"/>
<path d="M596.447 792.923C596.447 792.923 602.276 778.079 605.974 762.139M629.79 683.469C619.044 705 609.379 719.064 608.939 741.616C608.817 747.887 607.602 755.119 605.974 762.139M605.974 762.139C604.847 759.098 601.506 753.246 597.154 754.158C597.154 758.718 603.034 761.379 605.974 762.139ZM608.631 740.266C607.292 738.234 605.449 736.351 603.282 736.042C602.402 735.916 601.714 736.953 602.096 737.959C602.909 740.1 605.033 741.699 607.126 742.756C608.509 743.455 609.581 741.71 608.631 740.266Z" stroke="#17558B" stroke-linecap="round"/>
<path d="M601.433 748.116C604.956 748.002 607.783 751.577 609.32 754.447C609.703 755.162 609.057 755.911 608.292 755.641C605.233 754.56 601.257 752.356 600.684 749.03C600.603 748.558 600.955 748.132 601.433 748.116Z" fill="#17558B"/>
<path d="M605.591 715.059C608.872 714.975 611.507 718.529 612.942 721.386C613.305 722.109 612.647 722.84 611.892 722.551C609.034 721.457 605.373 719.262 604.847 715.964C604.772 715.496 605.117 715.071 605.591 715.059Z" fill="#17558B"/>
<path d="M609.173 706.979C612.696 706.865 615.524 710.44 617.06 713.31C617.443 714.026 616.797 714.774 616.032 714.504C612.974 713.423 608.997 711.219 608.424 707.893C608.343 707.421 608.695 706.995 609.173 706.979Z" fill="#17558B"/>
<path d="M613.319 700.366C616.359 700.315 618.8 703.843 620.134 706.686C620.477 707.416 619.805 708.129 619.061 707.819C616.406 706.711 613.06 704.525 612.581 701.261C612.513 700.797 612.85 700.374 613.319 700.366Z" fill="#17558B"/>
<path d="M622.832 682C625.632 681.986 627.879 685.483 629.113 688.31C629.434 689.047 628.75 689.742 628.018 689.407C625.567 688.283 622.534 686.109 622.102 682.883C622.04 682.424 622.369 682.002 622.832 682Z" fill="#17558B"/>
<path d="M631.949 698.158C628.426 698.273 625.598 694.697 624.062 691.827C623.679 691.112 624.325 690.363 625.09 690.634C628.148 691.715 632.125 693.919 632.698 697.245C632.779 697.717 632.427 698.143 631.949 698.158Z" fill="#17558B"/>
<path d="M627.78 708.443C624.257 708.557 621.43 704.981 619.893 702.111C619.51 701.396 620.156 700.647 620.921 700.918C623.98 701.999 627.956 704.203 628.529 707.529C628.61 708.001 628.258 708.427 627.78 708.443Z" fill="#17558B"/>
<path d="M620.063 723.136C617.023 723.187 614.582 719.659 613.248 716.816C612.905 716.086 613.577 715.373 614.321 715.683C616.976 716.791 620.322 718.977 620.801 722.241C620.869 722.705 620.532 723.128 620.063 723.136Z" fill="#17558B"/>
<path d="M623.623 715.056C620.342 715.14 617.707 711.586 616.272 708.729C615.909 708.007 616.567 707.275 617.322 707.564C620.18 708.658 623.841 710.854 624.367 714.151C624.442 714.619 624.097 715.044 623.623 715.056Z" fill="#17558B"/>
<path d="M618.231 729.748C615.102 729.795 612.565 727.14 611.1 724.868C610.655 724.178 611.272 723.398 612.054 723.647C614.836 724.531 618.331 726.261 618.969 728.834C619.087 729.307 618.719 729.741 618.231 729.748Z" fill="#17558B"/>
<path d="M617.077 738.56C613.492 738.699 610.625 734.665 609.104 731.507C608.753 730.779 609.417 730.05 610.171 730.339C613.257 731.523 617.3 733.961 617.824 737.651C617.891 738.118 617.549 738.542 617.077 738.56Z" fill="#17558B"/>
<path d="M614.703 753.254C611.662 753.305 609.221 749.777 607.887 746.934C607.545 746.204 608.217 745.491 608.96 745.801C611.616 746.909 614.962 749.096 615.441 752.359C615.509 752.823 615.172 753.247 614.703 753.254Z" fill="#17558B"/>
<path d="M588.85 723.001C592.209 722.929 594.934 725.599 596.504 727.882C596.972 728.563 596.368 729.362 595.575 729.129C592.597 728.253 588.804 726.518 588.111 723.922C587.984 723.447 588.358 723.012 588.85 723.001Z" fill="#17558B"/>
<path d="M616.307 690.082C619.589 689.997 622.223 693.551 623.659 696.409C624.021 697.131 623.363 697.863 622.609 697.574C619.751 696.48 616.089 694.284 615.563 690.987C615.489 690.518 615.833 690.094 616.307 690.082Z" fill="#17558B"/>
<path d="M1481.49 664.479C1483.11 660.288 1487.91 652.219 1494.16 653.477C1494.16 659.764 1485.71 663.432 1481.49 664.479Z" fill="#17558B"/>
<path d="M1485.36 628.502C1482.24 628.928 1479.6 631.524 1477.67 634.326C1476.31 636.316 1477.85 638.722 1479.84 637.759C1482.84 636.302 1485.89 634.097 1487.06 631.145C1487.61 629.758 1486.62 628.329 1485.36 628.502Z" fill="#17558B"/>
<path d="M1495.18 706.918C1495.18 706.918 1486.8 686.455 1481.49 664.479M1447.28 556.025C1462.71 585.708 1476.6 605.097 1477.23 636.187C1477.41 644.833 1479.15 654.803 1481.49 664.479M1481.49 664.479C1483.11 660.288 1487.91 652.219 1494.16 653.477C1494.16 659.764 1485.71 663.432 1481.49 664.479ZM1477.67 634.326C1479.6 631.524 1482.24 628.928 1485.36 628.502C1486.62 628.329 1487.61 629.758 1487.06 631.145C1485.89 634.097 1482.84 636.302 1479.84 637.759C1477.85 638.722 1476.31 636.316 1477.67 634.326Z" stroke="#17558B" stroke-linecap="round"/>
<path d="M1488.37 645.165C1482.86 644.739 1478.49 650.393 1476.33 654.524C1475.96 655.245 1476.6 656.014 1477.38 655.773C1481.94 654.362 1488.48 651.139 1489.14 646.104C1489.2 645.626 1488.85 645.203 1488.37 645.165Z" fill="#17558B"/>
<path d="M1482.39 599.591C1477.25 599.197 1473.17 604.831 1471.15 608.95C1470.79 609.678 1471.45 610.429 1472.22 610.172C1476.49 608.746 1482.55 605.529 1483.15 600.523C1483.21 600.049 1482.87 599.627 1482.39 599.591Z" fill="#17558B"/>
<path d="M1477.25 588.454C1471.74 588.028 1467.37 593.682 1465.21 597.813C1464.84 598.535 1465.48 599.303 1466.26 599.062C1470.82 597.651 1477.36 594.428 1478.02 589.393C1478.08 588.916 1477.73 588.492 1477.25 588.454Z" fill="#17558B"/>
<path d="M1471.28 579.334C1466.5 578.977 1462.71 584.584 1460.84 588.691C1460.5 589.426 1461.17 590.159 1461.93 589.884C1465.91 588.439 1471.48 585.23 1472.04 580.258C1472.09 579.789 1471.75 579.369 1471.28 579.334Z" fill="#17558B"/>
<path d="M1457.61 554.013C1453.19 553.696 1449.69 559.273 1447.96 563.366C1447.64 564.107 1448.32 564.822 1449.07 564.525C1452.77 563.059 1457.85 559.861 1458.36 554.928C1458.4 554.465 1458.07 554.046 1457.61 554.013Z" fill="#17558B"/>
<path d="M1443.83 576.257C1449.33 576.684 1453.7 571.03 1455.86 566.899C1456.23 566.177 1455.59 565.409 1454.81 565.65C1450.25 567.061 1443.71 570.284 1443.05 575.319C1442.99 575.796 1443.35 576.22 1443.83 576.257Z" fill="#17558B"/>
<path d="M1449.81 590.434C1455.32 590.861 1459.69 585.206 1461.85 581.076C1462.22 580.354 1461.58 579.586 1460.8 579.827C1456.24 581.237 1449.7 584.46 1449.04 589.496C1448.98 589.973 1449.33 590.397 1449.81 590.434Z" fill="#17558B"/>
<path d="M1460.91 610.695C1465.69 611.052 1469.48 605.444 1471.35 601.337C1471.69 600.603 1471.02 599.869 1470.26 600.145C1466.28 601.589 1460.7 604.798 1460.15 609.77C1460.1 610.239 1460.44 610.66 1460.91 610.695Z" fill="#17558B"/>
<path d="M1455.79 599.552C1460.93 599.945 1465.01 594.312 1467.03 590.192C1467.38 589.465 1466.73 588.714 1465.96 588.97C1461.69 590.397 1455.63 593.613 1455.02 598.619C1454.97 599.093 1455.31 599.515 1455.79 599.552Z" fill="#17558B"/>
<path d="M1463.52 619.811C1468.49 620.103 1472.47 615.789 1474.54 612.46C1474.97 611.76 1474.36 610.958 1473.56 611.178C1469.36 612.341 1463.5 614.905 1462.75 618.871C1462.66 619.353 1463.03 619.782 1463.52 619.811Z" fill="#17558B"/>
<path d="M1465.19 631.951C1470.77 632.435 1475.18 626.111 1477.32 621.588C1477.66 620.857 1477 620.111 1476.23 620.369C1471.65 621.91 1465.03 625.459 1464.43 631.017C1464.38 631.49 1464.72 631.91 1465.19 631.951Z" fill="#17558B"/>
<path d="M1468.61 652.216C1473.39 652.573 1477.18 646.966 1479.05 642.858C1479.39 642.124 1478.72 641.391 1477.96 641.666C1473.98 643.111 1468.4 646.319 1467.85 651.292C1467.8 651.761 1468.14 652.181 1468.61 652.216Z" fill="#17558B"/>
<path d="M1484.91 610.728C1479.59 610.408 1475.33 614.736 1473.11 618.074C1472.65 618.766 1473.26 619.588 1474.07 619.381C1478.55 618.23 1484.88 615.66 1485.68 611.673C1485.78 611.188 1485.41 610.757 1484.91 610.728Z" fill="#17558B"/>
<path d="M1466.99 565.159C1461.85 564.766 1457.77 570.399 1455.75 574.519C1455.4 575.246 1456.06 575.997 1456.82 575.741C1461.1 574.314 1467.15 571.097 1467.76 566.091C1467.82 565.618 1467.47 565.196 1466.99 565.159Z" fill="#17558B"/>
<path d="M187.156 654.486C189.695 665.536 202.467 661.639 205.094 672.659C206.33 677.847 206.223 685.749 206.128 688.769C206.107 689.405 206.673 689.905 207.301 689.804L213.961 688.734C214.507 688.646 214.881 688.136 214.81 687.588C214.441 684.726 213.603 676.32 215.738 671.471C218.591 664.993 231.558 664.425 228.551 658.049C225.926 652.484 214.318 655.904 211.757 650.296C208.881 644.001 227.509 639.955 227.565 632.769C227.634 623.831 216.272 634.178 214.949 633.582C211.795 632.159 210.782 627.643 211.205 624.318C212.556 613.671 224.001 616.648 220.272 606.859C217.964 600.802 214.118 596.188 208.642 597.12C201.854 598.274 208.126 615.12 201.348 616.361C195.441 617.443 194.375 601.111 189.324 604.959C186.043 607.458 186.011 611.556 185.974 616.222L185.973 616.361C185.889 626.99 200.133 624.833 202.334 635.127C203.371 639.978 205.073 644.187 202.334 647.955C198.194 653.649 189.516 635.644 185.973 641.896C183.657 645.982 186.06 649.717 187.156 654.486Z" fill="#17558B"/>
<path d="M1067.45 732.15C1067.69 747.536 1082.47 745.679 1082.81 761.048C1082.97 768.536 1080.91 779.523 1080.18 783.176C1080.05 783.809 1080.53 784.434 1081.17 784.461L1088.96 784.787C1089.48 784.809 1089.91 784.416 1089.94 783.884C1090.14 780.432 1091.1 768.369 1094.65 762.246C1099.24 754.36 1113.47 756.99 1111.65 747.71C1110.07 739.611 1096.67 741.134 1095.16 732.995C1093.47 723.856 1114.65 723.332 1116.35 713.773C1118.47 701.883 1103.75 712.701 1102.45 711.561C1099.34 708.841 1099.27 702.56 1100.49 698.24C1104.39 684.408 1116.16 691.364 1114.34 677.349C1113.21 668.676 1110.08 661.525 1103.92 661.335C1096.27 661.1 1099.24 685.182 1091.59 685.065C1084.92 684.963 1087.49 662.926 1081.12 666.733C1076.98 669.206 1076.01 674.657 1074.91 680.864L1074.87 681.048C1072.35 695.188 1088.34 696.035 1088.38 710.324C1088.4 717.058 1089.29 723.109 1085.45 727.413C1079.65 733.919 1074.32 707.665 1069.04 715.068C1065.59 719.907 1067.35 725.511 1067.45 732.15Z" fill="#17558B"/>
</svg>
