<svg width="153" height="89" fill="none" xmlns="http://www.w3.org/2000/svg"><path d="M99.804 51.637c-1.465.474-1.867 2.356-.724 3.387l28.283 25.53c1.143 1.032 2.974.44 3.296-1.066l7.968-37.259c.321-1.505-1.107-2.795-2.572-2.321l-36.25 11.729Z" fill="#CDA5C7"/><rect width="75.353" height="57.385" rx="5" transform="scale(-1 1) rotate(-7.756 118.094 830.94)" fill="#CDA5C7"/><rect width="15.65" height="28.206" rx="7.825" transform="scale(-1 1) rotate(-7.803 169.19 448.557)" fill="#fff"/><rect width="15.65" height="27.758" rx="7.825" transform="scale(-1 1) rotate(-7.803 181.213 596.232)" fill="#fff"/><ellipse cx="19" cy="32.5" rx="6" ry="5.5" fill="#fff"/><circle cx="5.5" cy="26.5" r="5.5" fill="#fff"/><circle cx="15.5" cy="9.5" r="9.5" fill="#fff"/></svg>