<svg width="432" height="620" fill="none" xmlns="http://www.w3.org/2000/svg"><path d="M12.44 27.478 110.827 0l221.278 27.478 79.938-8.525-6.43 120.934 6.43 137.389L432 433.341 416.921 585.77H315L92.348 620 9.39 600.211l6.261-97.875L0 178.758l12.44-151.28Z" fill="url(#a)"/><path d="M12.44 27.478 110.827 0l221.278 27.478 79.938-8.525-6.43 120.934 6.43 137.389L432 433.341 416.921 585.77H315L92.348 620 9.39 600.211l6.261-97.875L0 178.758l12.44-151.28Z" fill="url(#b)"/><path d="m10.933 34.106 97.64-20.905 220.161 32.352 75.398-13.438-16.211 75.327 16.211 182.494 12.063 149.318-12.063 155.29-100.656-13.439L88.969 612.96 9.048 594.544l6.031-91.084L0 202.337 10.933 34.106Z" fill="url(#c)"/><defs><linearGradient id="a" x1="216" y1="-24.48" x2="216" y2="620" gradientUnits="userSpaceOnUse"><stop stop-color="#041D33"/><stop offset="1" stop-color="#181642"/></linearGradient><linearGradient id="b" x1="348.324" y1="-96.147" x2="31.765" y2="460.265" gradientUnits="userSpaceOnUse"><stop stop-color="#3474AC"/><stop offset="1" stop-color="#181642"/></linearGradient><linearGradient id="c" x1="208.098" y1="13.201" x2="208.098" y2="612.96" gradientUnits="userSpaceOnUse"><stop stop-color="#041D33"/><stop offset="1" stop-color="#181642"/></linearGradient></defs></svg>