<svg width="1443" height="220" viewBox="0 0 1443 220" fill="none" xmlns="http://www.w3.org/2000/svg">
<path fill-rule="evenodd" clip-rule="evenodd" d="M1443 0.277344H0V189.569C13.3852 192.321 23.647 196.705 34.3233 201.266C54.5663 209.915 76.2992 219.2 123.637 219.2C171.97 219.2 191.561 211.282 211.152 203.365C230.743 195.447 250.334 187.53 298.667 187.53C347.001 187.53 366.592 195.447 386.182 203.365C405.773 211.282 425.364 219.2 473.698 219.2C522.031 219.2 541.622 211.282 561.213 203.365C580.804 195.447 600.395 187.53 648.728 187.53C697.061 187.53 716.652 195.447 736.243 203.365C755.834 211.282 775.425 219.2 823.758 219.2C872.091 219.2 891.682 211.282 911.273 203.365C930.864 195.447 950.455 187.53 998.788 187.53C1047.12 187.53 1066.71 195.447 1086.3 203.365C1105.89 211.282 1125.49 219.2 1173.82 219.2C1222.15 219.2 1241.74 211.282 1261.33 203.365C1280.92 195.447 1300.52 187.53 1348.85 187.53C1397.18 187.53 1416.77 195.447 1436.36 203.365C1438.56 204.253 1440.76 205.142 1443 206.019V0.277344Z" fill="url(#paint0_linear_379_351)"/>
<defs>
<linearGradient id="paint0_linear_379_351" x1="0" y1="112.057" x2="1443" y2="112.057" gradientUnits="userSpaceOnUse">
<stop offset="0.24" stop-color="#2BACC9"/>
<stop offset="0.395" stop-color="#2BACC9"/>
<stop offset="0.74" stop-color="#F383A2"/>
<stop offset="1" stop-color="#8F97B5"/>
</linearGradient>
</defs>
</svg>
