<svg width="379" height="288" viewBox="0 0 379 288" fill="none" xmlns="http://www.w3.org/2000/svg">
<path d="M60.8439 202.113C56.47 186.724 56.8952 177.475 60.9776 161.423C61.0886 160.986 60.8906 160.52 60.5005 160.295C37.0915 146.808 26.102 137.096 28.3666 102.702C28.4012 102.177 28.014 101.696 27.4935 101.618C1.29602 97.7232 -5.3089 86.5885 3.98999 45.8019C4.16924 45.0157 5.16397 44.7357 5.70497 45.3337L24.0834 65.6467C24.5796 66.1951 25.4788 66.0339 25.7534 65.3472L35.5229 40.9236C35.7854 40.2674 36.6334 40.0895 37.1398 40.5824C57.9647 60.8539 62.768 81.011 36.4774 101.439C36.227 101.634 36.0735 101.947 36.0809 102.264C36.5738 123.546 44.0843 133.871 63.4704 146.934C63.9771 147.275 64.6769 147.083 64.941 146.532C79.532 116.088 101.996 96.7647 128.823 85.8768L125.713 71.9347C125.616 71.4995 125.819 71.0526 126.211 70.8391L136.632 65.1546C137.133 64.8812 137.761 65.0823 138.011 65.596L145.191 80.3948C160.331 76.3117 176.512 74.4733 193.204 74.4733C210.892 74.4733 226.859 76.5375 241.217 81.1492L247.391 67.6516C247.603 67.187 248.132 66.9573 248.617 67.1189L260.025 70.9215C260.502 71.0806 260.786 71.5692 260.69 72.0627L257.585 87.887C279.416 99.0773 296.901 117.879 310.556 146.531C310.819 147.082 311.519 147.275 312.026 146.934C331.412 133.871 338.923 123.546 339.415 102.264C339.423 101.947 339.269 101.634 339.019 101.439C312.728 81.011 317.532 60.8539 338.357 40.5824C338.863 40.0895 339.711 40.2674 339.973 40.9236L349.743 65.3472C350.018 66.0339 350.917 66.1951 351.413 65.6467L369.791 45.3337C370.332 44.7357 371.327 45.0157 371.506 45.8019C380.805 86.5885 374.2 97.7232 348.003 101.618C347.482 101.696 347.095 102.177 347.13 102.702C349.394 137.096 338.405 146.808 314.996 160.295C314.606 160.52 314.408 160.986 314.519 161.423C318.587 177.418 319.023 186.658 314.699 201.949C314.517 202.592 315.006 203.236 315.673 203.241C349.594 203.537 371.207 215.052 377.993 236.706C378.268 237.584 377.291 238.279 376.528 237.765C354.544 222.938 342.635 217.96 323.676 214.267C323.301 214.194 322.912 214.342 322.683 214.647L320.717 217.269C320.28 217.851 320.61 218.694 321.32 218.854C357.234 226.966 367.038 237.597 372.067 262.774C372.127 263.072 372.049 263.389 371.845 263.615C369.046 266.713 366.832 266.306 362.578 263.414C362.424 263.309 362.3 263.159 362.225 262.988C354.056 244.537 341.921 237.448 310.106 229.46C310.013 229.437 309.906 229.427 309.81 229.431C284.847 230.483 306.047 232.536 307.683 232.689C307.755 232.696 307.818 232.71 307.886 232.732C336.89 241.952 344.407 254.241 348.141 283.871C348.151 283.945 348.152 284.025 348.144 284.1C347.644 288.888 346.234 288.934 341.702 284.085C341.641 284.02 341.586 283.942 341.545 283.863C325.071 252.396 312.223 244.056 283.774 243.61C249.258 247.718 224.849 251.249 191.022 251.249C155.012 251.249 139.333 247.718 104.817 243.61C76.3683 244.056 63.5194 252.396 47.0462 283.863C47.0048 283.942 46.9498 284.02 46.8887 284.085C42.3565 288.934 40.947 288.888 40.4471 284.1C40.4393 284.025 40.4403 283.945 40.4497 283.871C44.1837 254.241 51.701 241.952 80.7044 232.732C80.7733 232.71 80.8363 232.696 80.9082 232.689C82.5441 232.536 103.744 230.483 78.7805 229.431C78.6847 229.427 78.5778 229.437 78.4848 229.46C46.6703 237.448 34.5349 244.537 26.3657 262.988C26.2904 263.159 26.1666 263.309 26.0128 263.414C21.7591 266.306 19.5452 266.713 16.7459 263.615C16.5422 263.389 16.4639 263.072 16.5234 262.774C21.5524 237.597 31.3568 226.966 67.2711 218.854C67.9809 218.694 68.3106 217.851 67.874 217.269L65.9079 214.647C65.6786 214.342 65.2903 214.194 64.9152 214.267C45.9555 217.96 34.0465 222.938 12.063 237.765C11.3 238.279 10.312 237.578 10.5626 236.692C16.604 215.343 28.0164 207.857 60.0003 203.396C60.6067 203.311 61.0113 202.702 60.8439 202.113Z" fill="url(#paint0_linear_552_42)"/>
<rect width="44.0433" height="69.1611" rx="22.0216" transform="matrix(0.938349 -0.34569 0.327689 0.944786 88 15.2251)" fill="url(#paint1_linear_552_42)"/>
<rect width="44.0433" height="69.1611" rx="22.0216" transform="matrix(0.938349 -0.34569 0.327689 0.944786 88 15.2251)" stroke="#8837BD"/>
<path d="M104.096 33.4522C101.834 26.9298 105.252 19.7078 111.729 17.3213C118.207 14.9348 125.293 18.2876 127.555 24.81L135.747 48.4296C138.009 54.952 134.592 62.174 128.114 64.5605C121.636 66.947 114.551 63.5942 112.288 57.0718L104.096 33.4522Z" fill="white"/>
<path d="M104.096 33.4522C101.834 26.9298 105.252 19.7078 111.729 17.3213C118.207 14.9348 125.293 18.2876 127.555 24.81L135.747 48.4296C138.009 54.952 134.592 62.174 128.114 64.5605C121.636 66.947 114.551 63.5942 112.288 57.0718L104.096 33.4522Z" stroke="#8837BD"/>
<rect width="44.04" height="69.156" rx="22.02" transform="matrix(-0.938349 -0.34569 -0.327689 0.944786 297.987 17.2241)" fill="url(#paint2_linear_552_42)"/>
<rect width="44.04" height="69.156" rx="22.02" transform="matrix(-0.938349 -0.34569 -0.327689 0.944786 297.987 17.2241)" stroke="#8837BD"/>
<path d="M281.747 34.4522C284.009 27.9298 280.592 20.7078 274.114 18.3213C267.636 15.9348 260.551 19.2876 258.288 25.81L250.096 49.4296C247.834 55.952 251.251 63.174 257.729 65.5605C264.207 67.947 271.293 64.5942 273.555 58.0718L281.747 34.4522Z" fill="white"/>
<path d="M281.747 34.4522C284.009 27.9298 280.592 20.7078 274.114 18.3213C267.636 15.9348 260.551 19.2876 258.288 25.81L250.096 49.4296C247.834 55.952 251.251 63.174 257.729 65.5605C264.207 67.947 271.293 64.5942 273.555 58.0718L281.747 34.4522Z" stroke="#8837BD"/>
<defs>
<linearGradient id="paint0_linear_552_42" x1="189.355" y1="39.5547" x2="189.355" y2="287.706" gradientUnits="userSpaceOnUse">
<stop stop-color="#8837BD"/>
<stop offset="1" stop-color="#3F1A57"/>
</linearGradient>
<linearGradient id="paint1_linear_552_42" x1="22.0216" y1="0" x2="22.0216" y2="69.1611" gradientUnits="userSpaceOnUse">
<stop stop-color="#8837BD"/>
<stop offset="1" stop-color="#3F1A57"/>
</linearGradient>
<linearGradient id="paint2_linear_552_42" x1="22.02" y1="0" x2="22.02" y2="69.156" gradientUnits="userSpaceOnUse">
<stop stop-color="#8837BD"/>
<stop offset="1" stop-color="#3F1A57"/>
</linearGradient>
</defs>
</svg>
