<svg version="1.0" xmlns="http://www.w3.org/2000/svg" width="862.667" height="181.333" viewBox="0 0 647 136"><path d="M73.6 3.6C66.4 7.4 60.2 14.5 54 26c-3 5.6-6.3 10.8-7.5 11.5-1.1.8-4.1 1.7-6.7 2-4.2.6-4.8 1-4.8 3.1 0 2.3.3 2.4 6.1 2.4 5.3 0 6 .2 5.5 1.7-.3 1-4.4 16.9-9.1 35.3-9.3 36.2-12.1 43.3-18.4 47.6-2 1.3-5 2.4-6.9 2.4H8.9l1.7-3c1.7-2.8 1.7-3-.1-5-4.8-5.3-12 1.4-8.5 8 1.6 3 7.4 4.4 12.7 3.1 10-2.6 18.1-11 25.2-26.2C44.5 99.1 47.5 89.3 54 64l4.7-18.5 5.4-.5c4.7-.4 5.4-.8 5.7-2.8.3-2 0-2.2-4.8-2.2-3.8 0-5.1-.4-4.8-1.3.3-.6 2-5.6 3.7-11C68.9 12.7 76 4 83.1 4c3.6 0 4.1 1 2.7 5.1-1 2.9-.9 3.4 1.2 5.1 2.8 2.3 4.2 2.3 7 0 3.3-2.7 3-7-.9-10.4C88.8 0 80.8-.1 73.6 3.6zM174 2.9c-7.3 1.2-9.6 2-9.8 3.3-.3 1.4.3 1.6 3.2 1.1 4.1-.6 6.6.9 6.6 4.1.1 1.1-5.5 21.4-12.2 44.9-11.7 40.7-12.2 42.9-10.8 45.5 1.3 2.2 2.4 2.8 6.1 3 3.6.2 5.2-.2 8.5-2.7 5.8-4.1 11.8-11.7 11-13.8-.5-1.3-1.6-.7-5.4 3.5-6.2 6.7-8.8 6.9-8.2.7.1-1.6 11-40.1 24.1-85.3l1.8-6.2-2.7.1c-1.5.1-7 .9-12.2 1.8zM90.1 39.1c-6.4 2.6-16.3 13.1-14.3 15.1.8.8 2.3-.1 5.5-3.5 4.5-4.9 6.4-5.7 7.3-3.2.3.7-1.8 9.8-4.6 20.1-2.9 10.3-5.7 21.5-6.3 25-1 5.8-.9 6.6.9 9.1 2.7 3.6 5.9 4.3 11.9 2.6 6.1-1.8 15.3-10.8 23.9-23.3 3.2-4.7 5.5-7.6 5.2-6.5-.4 1.1-2.1 7.1-3.7 13.3-2.5 9.8-2.7 11.8-1.7 13.9 1.7 3.5 4.6 4.3 9.2 2.8 6.4-2.2 17.3-14.3 14.5-16.1-.7-.4-2.8 1.3-5.1 4s-4.8 4.6-6 4.6c-1.8 0-1.9-.4-1.3-3.8.3-2 3.8-14.5 7.6-27.6 3.8-13.2 6.9-24.3 6.9-24.8 0-.4-2.4-.8-5.4-.8h-5.4l-2.7 8.7c-3.7 12-6.5 17.8-12.6 26.9-9.5 14.1-18.6 21.9-23.4 20-2.4-.9-1.9-3.8 4.5-25.9 3.3-11.4 6-22.5 6-24.6 0-6.1-4.4-8.6-10.9-6zM216.4 40C198.1 46.5 184 65.6 184 83.9c.1 9.2 5.1 17.3 12.5 20.1 4.2 1.6 15.2 1.4 20.3-.4 8.5-3.1 21.7-14.5 19.4-16.8-.8-.8-2.2-.1-5.6 3-7.4 6.8-12.7 8.8-22.3 8.3-3.6-.1-9-4.2-10.5-8-1.6-4.1-1-15.1 1.1-21.3 2.9-8.4 6.6-14.1 12.7-19.7s10.7-7.4 17.3-6.9c6.1.4 7.3 2.6 3.8 6.8-3.4 4-3.5 7.4-.2 9.6 6.7 4.4 13.3-6.2 9-14.5-2.9-5.8-14.9-7.8-25.1-4.1zM267.5 39.6c-14.6 2.4-14.5 2.4-13.8 4 .4 1.2 1.4 1.4 3.5 1 4.2-.8 6.8.9 6.8 4.3 0 1.6-3.4 14.2-7.5 28.1-4.1 13.9-7.5 25.6-7.5 26.1s2.5.9 5.5.9h5.4l1.1-4.3c2.3-9.1 6.3-19.5 9.7-25.2 8.7-14.5 19.4-26.8 21.5-24.7.6.6 1.6 2.1 2.2 3.4 2.9 5.7 9.7 1.9 11.1-6.2.9-5.2-.1-7.9-3.2-8.7-6-1.4-17 8-27.5 23.7-5.6 8.4-6.1 9.1-5.4 7 1.7-4.9 8.6-28.8 8.6-29.8 0-1.4.1-1.4-10.5.4zM320.9 40c-3.5 1.8-12.9 11.4-12.9 13 0 2.5 2.4 1.5 6.1-2.5 4.1-4.4 6.8-5.7 7-3.3.3 2.8-.5 6-5.3 23.3-2.8 9.9-5.3 20.6-5.6 23.8-.4 5.1-.2 6.1 1.8 8.2 2.9 3 8.4 3.3 13.8.8 5-2.4 13.7-11.4 20.1-20.8 3-4.4 5.8-8.4 6.2-8.9.4-.5-.6 3.6-2.2 9-4.2 14.4-4.6 18.5-2 20.8 4.7 4.3 13.2.5 20.3-8.9 2.6-3.4 3.4-5.3 2.7-6-.7-.7-2.4.5-5.2 3.8-2.3 2.6-5 4.7-6.1 4.7-1.6 0-1.8-.5-1.3-4.3.4-2.3 3.8-15 7.7-28.1 3.8-13.2 7-24.1 7-24.3 0-.2-2.5-.3-5.5-.1l-5.6.3-3.4 10.2c-5.1 15.1-9.6 23.1-20.5 36.2-5.4 6.4-9.3 9.1-13.5 9.1-2.2 0-2.5-.4-2.5-3.3 0-1.9 2.4-11.8 5.4-22 3-10.3 5.8-20.7 6.2-23.2 1.3-8.7-4.3-12-12.7-7.5zM398.8 40.3c-11.5 2.2-14.4 4.3-6.7 4.9 2.5.2 4.6 1 5.2 1.9.8 1.3-.9 8.4-6.6 28.6-4.2 14.7-7.7 27.2-7.7 27.6 0 .4 2.4.7 5.3.7h5.3l3.8-11.8c4.9-14.8 8.9-22.8 16.6-33C420.2 51 425 47 428.9 47c1.8 0 2.1.6 2.1 3.8 0 2.9-9.1 37.7-13.4 51-.7 2.2-.6 2.3 4.9 2l5.7-.3 3.7-10.5c6.2-17.4 14.2-31.2 23.6-40.6 5.6-5.7 8.7-6.7 10.4-3.5 1.2 2.1 1.1 2.3-6.4 29.1-5.1 18.5-5.7 23.2-3.3 25.7 4.2 4.1 12.6.1 20.6-9.6 3.1-3.9 4-5.6 3.1-6.1-.8-.5-3 1-6.1 4.2-4.8 4.9-6.8 5.4-6.8 1.8 0-1.1 2.5-10.7 5.5-21.5 6.3-22.3 6.9-28.8 3.2-32.3-7-6.6-18.7 1.1-32 21.3-3.3 4.9-5.6 8.1-5.3 7C440 64 444 47.6 444 45.8c0-3.2-5.4-7.8-9-7.8-7.2 0-16.7 7.8-25.2 20.9-2.7 4.2-5.1 7.7-5.3 7.9-.2.2 1.4-5.7 3.6-13 2.1-7.3 3.9-13.9 3.9-14.6 0-1.5.2-1.5-13.2 1.1zM524.2 39.9c-6.6 2.3-13.2 8.5-16.4 15.5-2 4.3-2.3 6.7-2.3 16.1 0 12.7 1.7 17.5 8.7 24.4 10.4 10.5 30.5 11.4 45.2 2.1l4.6-3V71h-27v7h19v12.9l-5.4 2.6c-10 4.9-20.3 4.4-28.3-1.4-12.8-9.2-11.3-36.3 2.5-43.9 5.8-3.2 13.9-3.9 19.6-1.8 4.6 1.8 10.6 7.5 10.6 10.1 0 .7.4 1.6.9 1.9 1.2.8 7.1-1.4 7.1-2.5 0-2.2-3.3-8.6-5.7-11.1-6.2-6.4-21.9-8.8-33.1-4.9zM567 42.5v3.4l10.8.3 10.7.3.3 28.7.2 28.8h8V46h22v-7h-52v3.5zM623.5 40c.3.5 1.3 1 2.1 1 1 0 1.4 1.3 1.4 5 0 3.8.4 5 1.5 5s1.5-1.2 1.5-5c0-3.7.4-5 1.4-5 .8 0 1.8-.5 2.1-1 .4-.6-1.5-1-5-1s-5.4.4-5 1zM635 45c0 6.4 1.9 8.5 2.1 2.2l.1-3.7 1.2 3.4c1.6 4.6 3.1 4.9 4.3.9l1.1-3.3.1 3.2c.1 2.2.6 3.3 1.6 3.3 1.2 0 1.5-1.3 1.5-6 0-5.2-.3-6-1.8-6-1.3 0-2.3 1.3-3.2 4.2l-1.3 4.3-1.4-4.3c-2.2-6.4-4.3-5.5-4.3 1.8z"/></svg>