<svg width="496" height="468" viewBox="0 0 496 468" fill="none" xmlns="http://www.w3.org/2000/svg">
<path d="M142.162 465.058C188.789 437.562 225.017 412.768 267 369.285C273.5 362.552 283.782 360.917 291.744 365.835C334.915 392.5 362.435 418.548 395.127 449.767C407.931 461.994 428.485 452.569 426.396 434.989C420.44 384.878 405.468 337.958 368.839 271.954C364.354 263.872 365.778 253.694 372.572 247.427C412.732 210.373 442.628 189.101 484.736 168.552C498.974 161.604 499.941 142.761 484.4 139.685C452.728 133.416 403.519 136.791 310.132 151.171C301.705 152.469 293.32 148.331 289.447 140.734C266.724 96.1686 255.25 61.9544 246.253 16.1712C242.83 -1.25088 222.02 -5.5963 215.534 10.9319C201.968 45.5027 192.13 93.1911 179.557 166.367C177.964 175.635 170.132 182.617 160.737 183.02C105.701 185.38 67.3555 185.486 21.6433 179.879C4.60592 177.79 -6.97945 195.67 5.13388 207.832C32.9988 235.808 75.0767 261.061 147.963 297.949C156.352 302.195 160.776 311.723 158.256 320.781C146.879 361.676 133.561 394.57 114.011 439.933C106.404 457.584 125.607 474.821 142.162 465.058Z" fill="url(#paint0_linear_1_2)"/>
<rect width="25" height="50" rx="12.5" transform="matrix(1 0 -0.0191166 0.999817 266.956 182)" fill="white"/>
<rect width="25" height="50" rx="12.5" transform="matrix(1 0 -0.0191166 0.999817 213.956 182)" fill="white"/>
<defs>
<linearGradient id="paint0_linear_1_2" x1="248.182" y1="-31" x2="248.182" y2="495" gradientUnits="userSpaceOnUse">
<stop stop-color="#9CCACD"/>
<stop offset="1" stop-color="#168C94"/>
</linearGradient>
</defs>
</svg>
