<svg width="485" height="746" viewBox="0 0 485 746" fill="none" xmlns="http://www.w3.org/2000/svg">
<path fill-rule="evenodd" clip-rule="evenodd" d="M131.91 143.872C131.031 126.74 117.261 119.214 110.504 117.571L109.322 122.429C114.898 123.786 126.195 130.06 126.916 144.128C127.086 147.446 125.787 151.505 123.448 156.408C121.845 159.768 119.876 163.291 117.778 167.045L117.773 167.053C117.429 167.67 117.08 168.293 116.729 168.923C116.576 168.729 116.422 168.533 116.267 168.337C115.714 167.638 115.155 166.931 114.621 166.234C113.02 164.145 111.45 161.922 110.205 159.496C107.756 154.725 106.547 149.175 109.103 142.38L104.424 140.62C101.262 149.025 102.82 156.058 105.757 161.779C107.204 164.599 108.983 167.098 110.653 169.276C111.304 170.126 111.917 170.9 112.489 171.623C113.072 172.359 113.613 173.043 114.11 173.699C113.107 175.568 112.118 177.476 111.176 179.416C107.862 176.273 103.832 171.605 100.561 165.98C96.4318 158.882 93.6368 150.484 94.7433 141.817L89.7836 141.183C88.4901 151.316 91.7827 160.834 96.2385 168.494C100.18 175.27 105.13 180.767 108.993 184.2C106.208 190.768 104.189 197.741 104.266 204.872C104.35 212.711 106.967 220.572 113.524 228.137C123.939 240.155 134.593 251.898 144.293 261.198C149.143 265.848 153.788 269.919 158.071 273.117C162.091 276.119 165.91 278.442 169.366 279.712C177.423 288.137 184.779 292.699 190.235 295.161C193.007 296.411 195.279 297.114 196.889 297.508C197.694 297.704 198.334 297.823 198.788 297.894C199.014 297.929 199.195 297.953 199.326 297.968C199.392 297.976 199.446 297.981 199.487 297.985L199.539 297.99L199.558 297.991L199.565 297.992L199.569 297.992C199.57 297.992 199.572 297.993 199.763 295.5C199.955 293.007 199.957 293.007 199.958 293.008L199.96 293.008L199.965 293.008L199.969 293.008L199.965 293.008C199.959 293.008 199.95 293.007 199.936 293.005C199.926 293.004 199.914 293.003 199.901 293.001C199.854 292.996 199.783 292.987 199.689 292.973C199.65 292.968 199.607 292.961 199.56 292.954C199.24 292.904 198.739 292.812 198.075 292.65C196.748 292.326 194.77 291.721 192.291 290.603C187.362 288.379 180.416 284.111 172.675 275.937C171.938 274.925 171.239 272.852 170.878 269.639C170.518 266.447 170.529 262.498 170.925 258.184C171.718 249.539 174.025 239.748 177.671 232.073L173.155 229.927C169.201 238.252 166.779 248.643 165.946 257.728C165.637 261.091 165.542 264.319 165.678 267.234C164.446 263.882 163.716 259.691 163.503 254.759C163.055 244.34 164.976 231.569 168.327 219.151L163.499 217.849C160.07 230.56 158.03 243.871 158.508 254.974C158.571 256.433 158.678 257.871 158.835 259.279C157.768 257.157 156.75 254.881 155.798 252.474C151.256 241.005 148.263 226.776 148.263 212.5H143.263C143.263 227.428 146.384 242.281 151.149 254.315C152.202 256.974 153.338 259.504 154.545 261.876C149.967 257.063 145.29 251.224 141.205 244.693C130.997 228.373 124.752 208.214 132.098 189.018L127.429 187.231C119.569 207.769 125.885 228.84 135.838 245.498C129.77 239.052 123.509 232.025 117.302 224.863C111.512 218.182 109.337 211.459 109.265 204.818C109.193 198.095 111.276 191.289 114.308 184.522C115.797 181.198 117.499 177.92 119.255 174.696C120.172 173.012 121.113 171.328 122.046 169.658L122.047 169.656C124.188 165.826 126.286 162.071 127.961 158.56C130.357 153.536 132.148 148.513 131.91 143.872ZM89.0102 215.448C88.4791 214.385 88.0539 213.398 87.8363 212.583C87.4161 211.008 86.9558 209.649 86.484 208.256L86.483 208.253C86.3518 207.865 86.2197 207.475 86.0873 207.077C85.4878 205.274 84.9109 203.383 84.548 201.148C83.8164 196.644 84.0007 191.048 86.0615 181.948L90.938 183.052C88.9572 191.799 88.8915 196.703 89.4833 200.347C89.7821 202.186 90.2602 203.78 90.8319 205.499C90.9477 205.848 91.0686 206.204 91.1928 206.571L91.1946 206.576C91.6733 207.989 92.2004 209.544 92.6673 211.293C92.8063 211.814 93.2613 212.847 94.1173 214.427C94.9389 215.943 96.0295 217.784 97.3015 219.848C99.2156 222.954 101.493 226.488 103.808 230.082L103.81 230.085C104.513 231.176 105.219 232.271 105.919 233.363C113.056 239.74 128.853 254.056 142.93 266.837C150.056 273.306 156.744 279.384 161.65 283.846C164.104 286.076 166.112 287.902 167.506 289.171L169.117 290.637L169.538 291.02L169.646 291.118L169.673 291.143L169.68 291.149L169.682 291.15C169.682 291.151 169.682 291.151 168 293C166.317 294.849 166.317 294.849 166.317 294.848L166.315 294.847L166.308 294.841L166.281 294.816L166.173 294.718L165.752 294.335L164.142 292.87C162.747 291.601 160.74 289.775 158.287 287.545C153.381 283.084 146.694 277.007 139.569 270.538C125.459 257.728 109.645 243.396 102.547 237.055C99.0758 235.122 94.3352 231.342 89.2242 226.442C83.9406 221.375 78.1279 214.982 72.7206 207.882C62.0026 193.809 52.4998 176.468 52.4998 161H57.4998C57.4998 174.736 66.1099 190.95 76.6984 204.853C76.8095 204.999 76.9207 205.144 77.0321 205.289C73.2448 198.113 70.0355 190.368 68.1572 182.797C66.2212 174.993 65.6541 167.193 67.5004 160.349L72.3278 161.651C70.7845 167.372 71.1865 174.242 73.01 181.593C74.8273 188.918 78.0118 196.54 81.8278 203.658C84.0694 207.84 86.5168 211.824 89.0102 215.448ZM92.9628 240.234C86.9763 236.987 78.0943 229.418 70.0965 219.712C62.1026 210.011 55.2618 198.501 53.0129 187.499L48.1142 188.501C50.5941 200.633 57.9925 212.886 66.2379 222.892C68.4806 225.613 70.8059 228.193 73.1386 230.579C61.5394 224.732 47.9537 216.665 34.7833 203.258L31.2163 206.762C49.0702 224.937 68.0194 233.841 81.2742 240.068C84.8291 241.739 87.9744 243.217 90.5791 244.629C94.6344 246.828 101.858 252.938 110.63 261.174C119.309 269.322 129.257 279.314 138.677 289.028C148.093 298.739 156.963 308.154 163.481 315.143C166.739 318.637 169.408 321.524 171.262 323.537C172.189 324.543 172.913 325.331 173.404 325.867L173.593 326.073L173.963 326.477L174.106 326.633L174.142 326.672L174.15 326.682L174.153 326.685C174.153 326.685 174.153 326.685 176 325C177.846 323.315 177.846 323.314 177.845 323.314L177.843 323.311L177.834 323.301L177.797 323.261L177.653 323.103C177.525 322.964 177.337 322.757 177.09 322.488C176.596 321.949 175.87 321.158 174.94 320.149C173.08 318.13 170.403 315.236 167.137 311.733C160.606 304.729 151.712 295.289 142.267 285.547C132.824 275.81 122.814 265.755 114.053 257.529C105.385 249.39 97.6895 242.797 92.9628 240.234ZM78.4862 246.393C73.2471 244.902 67.6045 243.61 61.8512 242.292C61.0161 242.101 60.1786 241.909 59.3396 241.716C52.6896 240.185 45.9101 238.57 39.2629 236.509C25.9606 232.385 13.4058 226.537 3.82581 216.292L0.173767 219.707C10.6056 230.863 24.1081 237.045 37.7822 241.285C44.623 243.406 51.5614 245.056 58.2182 246.588C59.0565 246.781 59.8897 246.972 60.7175 247.162L60.7428 247.168L60.7429 247.168L60.7432 247.168C66.5109 248.489 72.0139 249.75 77.1181 251.202C80.0382 252.033 83.7068 253.918 87.9707 256.733C92.2041 259.528 96.8911 263.15 101.831 267.328C111.71 275.684 122.475 286.16 132.457 296.442C142.433 306.718 151.595 316.765 158.265 324.245C161.6 327.985 164.309 331.081 166.185 333.241C167.122 334.321 167.851 335.167 168.345 335.742C168.592 336.03 168.78 336.25 168.906 336.398L169.048 336.564L169.084 336.606L169.092 336.616L169.095 336.619C169.095 336.619 169.095 336.619 171 335C172.905 333.381 172.904 333.38 172.904 333.38L172.901 333.377L172.891 333.365L172.854 333.321L172.708 333.15C172.579 332.999 172.388 332.776 172.139 332.485C171.639 331.904 170.904 331.051 169.96 329.964C168.073 327.789 165.348 324.676 161.997 320.918C155.297 313.403 146.085 303.301 136.045 292.96C126.011 282.625 115.118 272.018 105.06 263.51C100.031 259.257 95.1802 255.502 90.7256 252.561C86.3016 249.64 82.1328 247.43 78.4862 246.393Z" fill="url(#paint0_linear_246_119)"/>
<path fill-rule="evenodd" clip-rule="evenodd" d="M227.233 152.861C230.42 168.695 241.436 189.488 247.075 199.437C247.141 199.495 247.205 199.552 247.27 199.609C242.04 181.44 228.864 130.101 249.136 136.984C258.507 140.165 257.126 144.469 251.406 160.821C247.35 172.415 247.901 190.19 248.565 199.553C250.696 192.164 254.158 179.877 255.5 173.5C255.748 172.321 255.973 171.151 256.193 170.009L256.193 170.009L256.193 170.009C257.744 161.945 259.025 155.279 266.264 156.948C271.742 158.21 255.435 189.607 249.154 201.29C249.318 201.437 249.477 201.581 249.632 201.72C254.557 202.917 257.637 203.759 257.637 203.759C257.637 203.759 255.245 203.53 251.397 203.319C252.474 204.3 253.066 204.853 253.066 204.853C253.066 204.853 252.188 204.267 250.631 203.278C250.188 203.255 249.729 203.233 249.254 203.211C250.018 204.508 250.46 205.227 250.46 205.227C250.46 205.227 249.888 204.554 248.874 203.332C249.021 204.915 249.13 205.822 249.13 205.822C249.13 205.822 248.825 204.863 248.316 203.17C248.258 203.168 248.2 203.165 248.142 203.163C247.298 204.717 246.798 205.616 246.798 205.616C246.798 205.616 247.071 204.692 247.525 203.138C236.719 202.725 219.565 202.814 207.854 206.525C189.586 212.312 184.783 213.713 181.61 204.593C175.145 186.008 224.651 195.808 247.033 201.097L246.935 200.977C237.544 195.244 219.184 184.848 204.898 181.767C184.833 177.439 179.617 176.196 181.201 166.653C184.314 147.894 223.147 178.729 242.395 195.343C226.124 174.865 192.518 129.491 212.02 126.931C221.644 125.668 222.891 131.282 227.233 152.861Z" fill="url(#paint1_radial_246_119)"/>
<path fill-rule="evenodd" clip-rule="evenodd" d="M259.813 32.3423C260.706 30.434 263.488 23.9784 262.9 18.8257C262.25 13.1241 257.541 6.19541 257.541 6.19541C257.541 6.19541 254.175 13.4677 254.325 18.9948C254.445 23.3885 257.106 28.6746 258.581 31.2816C255.597 28.7425 252.496 26.3228 249.275 24.045C249.377 24.0197 249.431 24.0055 249.431 24.0055C249.431 24.0055 242.873 17.4086 236.953 15.9534C231.584 14.6333 223.763 16.3793 223.763 16.3793C223.763 16.3793 229.534 22.4518 234.968 24.2974C238.68 25.5579 243.527 25.0953 246.56 24.5925C253.532 29.364 259.955 34.8172 265.846 40.7273C263.838 39.2385 258.174 35.3291 253.299 34.6971C247.815 33.9862 240.239 36.5966 240.239 36.5966C240.239 36.5966 246.653 41.985 252.26 43.2108C257.828 44.4283 265.374 41.7564 266.466 41.3524C278.665 53.7356 288.558 68.0692 296.307 82.3192C297.221 83.9994 298.105 85.678 298.959 87.3516C296.796 85.0505 292.951 81.4104 289.15 80.0444C283.947 78.1743 275.987 79.0991 275.987 79.0991C275.987 79.0991 281.097 85.7378 286.309 88.1373C290.946 90.2716 297.802 89.6994 300.011 89.4413C303.583 96.6306 306.606 103.701 309.101 110.383C307.129 107.907 303.624 104.004 299.976 102.338C294.947 100.042 286.937 100.301 286.937 100.301C286.937 100.301 291.477 107.342 296.472 110.167C300.851 112.643 307.595 112.679 309.918 112.609C312.499 119.763 314.462 126.424 315.837 132.247C313.669 129.921 309.948 126.388 306.251 125.022C301.064 123.106 293.096 123.961 293.096 123.961C293.096 123.961 298.147 130.644 303.338 133.09C307.563 135.08 313.665 134.821 316.367 134.58C316.93 137.172 317.368 139.573 317.684 141.75L319.663 141.463C319.161 137.994 318.355 133.977 317.235 129.545C317.856 129.166 324.967 124.74 327.509 119.43C329.986 114.254 329.676 105.882 329.676 105.882C329.676 105.882 322.961 110.256 320.153 115.019C317.325 119.815 317.193 127.99 317.191 129.37C314.934 120.477 311.42 109.925 306.562 98.7694C308.827 97.2309 313.668 93.5953 315.671 89.4109C318.148 84.2347 317.838 75.8629 317.838 75.8629C317.838 75.8629 311.124 80.2368 308.315 84.9997C306.383 88.2763 305.71 93.1302 305.476 96.317C303.266 91.4037 300.798 86.3899 298.064 81.3636C296.539 78.5585 294.93 75.7482 293.236 72.9482C294.503 71.1342 298.263 65.3546 298.577 60.2514C298.93 54.5237 295.5 46.8808 295.5 46.8808C295.5 46.8808 290.918 53.4557 290.104 58.9245C289.543 62.689 290.743 67.4443 291.723 70.4854C286.8 62.6005 281.199 54.8347 274.889 47.5371C276.23 45.104 278.853 39.741 278.753 35.1522C278.628 29.415 274.574 22.0838 274.574 22.0838C274.574 22.0838 270.555 29.0169 270.198 34.5345C269.989 37.775 271.116 41.6276 272.215 44.5206C268.337 40.2529 264.205 36.1688 259.813 32.3423ZM286.186 65.756C286.186 65.756 277.359 67.0912 271.774 64.4985C266.569 62.0822 261.481 55.427 261.481 55.427C261.481 55.427 269.444 54.528 274.641 56.415C280.37 58.4953 286.186 65.756 286.186 65.756Z" fill="url(#paint2_linear_246_119)"/>
<path d="M386.5 101L483.5 138.5L506 717L111.5 462.5L62 320.5L187.5 285L215.5 225.5L386.5 101Z" fill="url(#paint3_linear_246_119)"/>
<path d="M387 130L482.5 144.5L506.5 746L112 491.5L70 342.5L216 289L238.5 238.5L387 130Z" fill="url(#paint4_linear_246_119)"/>
<path d="M283.999 446.5C282.01 447.334 276.966 440.156 272.175 428.722C267.383 417.287 265.111 407.343 267.1 406.509C269.089 405.676 274.585 414.269 279.377 425.704C284.168 437.138 290.5 440.5 283.999 446.5Z" fill="url(#paint5_linear_246_119)"/>
<ellipse cx="270" cy="405" rx="93.5" ry="19" fill="url(#paint6_linear_246_119)"/>
<path d="M347.499 326.5C345.51 327.334 340.466 320.156 335.675 308.722C330.883 297.287 328.611 287.343 330.6 286.509C332.589 285.676 338.085 294.269 342.877 305.704C347.668 317.138 354 320.5 347.499 326.5Z" fill="url(#paint7_linear_246_119)"/>
<ellipse cx="332.5" cy="293.5" rx="34.5" ry="12.5" fill="url(#paint8_linear_246_119)"/>
<defs>
<linearGradient id="paint0_linear_246_119" x1="-11.6515" y1="111.129" x2="213.216" y2="301.653" gradientUnits="userSpaceOnUse">
<stop stop-color="#F9FEFB"/>
<stop offset="0.461958" stop-color="#0AA934"/>
<stop offset="1" stop-color="#095787"/>
</linearGradient>
<radialGradient id="paint1_radial_246_119" cx="0" cy="0" r="1" gradientUnits="userSpaceOnUse" gradientTransform="translate(243.742 201.661) rotate(-101.912) scale(77.0387 243.762)">
<stop stop-color="#12652B"/>
<stop offset="0.544864" stop-color="#25CB57"/>
<stop offset="0.995" stop-color="#7AE69B"/>
</radialGradient>
<linearGradient id="paint2_linear_246_119" x1="275.701" y1="-18.4807" x2="325.972" y2="183.036" gradientUnits="userSpaceOnUse">
<stop stop-color="#18F520"/>
<stop offset="0.445" stop-color="#0BB5C8"/>
<stop offset="1" stop-color="#022C30"/>
</linearGradient>
<linearGradient id="paint3_linear_246_119" x1="420" y1="32.5001" x2="129" y2="582.5" gradientUnits="userSpaceOnUse">
<stop stop-color="#3474AC"/>
<stop offset="1" stop-color="#181642"/>
</linearGradient>
<linearGradient id="paint4_linear_246_119" x1="288.25" y1="130" x2="288.25" y2="746" gradientUnits="userSpaceOnUse">
<stop stop-color="#041D33"/>
<stop offset="1" stop-color="#181642"/>
</linearGradient>
<linearGradient id="paint5_linear_246_119" x1="280" y1="416.5" x2="273.193" y2="430.278" gradientUnits="userSpaceOnUse">
<stop stop-color="#F2CFCF"/>
<stop offset="1" stop-color="#A22A2A"/>
</linearGradient>
<linearGradient id="paint6_linear_246_119" x1="284.5" y1="345.5" x2="276" y2="424" gradientUnits="userSpaceOnUse">
<stop offset="0.422456" stop-color="#F2CFCF"/>
<stop offset="0.865" stop-color="#A22A2A"/>
<stop offset="1" stop-color="#531D65"/>
</linearGradient>
<linearGradient id="paint7_linear_246_119" x1="343.5" y1="296.5" x2="336.693" y2="310.278" gradientUnits="userSpaceOnUse">
<stop stop-color="#F2CFCF"/>
<stop offset="1" stop-color="#2AA23E"/>
</linearGradient>
<linearGradient id="paint8_linear_246_119" x1="337.85" y1="254.355" x2="328.125" y2="304.728" gradientUnits="userSpaceOnUse">
<stop offset="0.422456" stop-color="#CFF2D5"/>
<stop offset="0.795" stop-color="#2AA23E"/>
<stop offset="1" stop-color="#17605C"/>
</linearGradient>
</defs>
</svg>
