<svg width="199" height="230" viewBox="0 0 199 230" fill="none" xmlns="http://www.w3.org/2000/svg">
  <path
    d="M85.3856 119.097C85.3856 119.097 89.0111 120.918 91.5195 121.469C94.0279 122.02 98.0826 121.887 98.0826 121.887"
    stroke="white" stroke-width="6" stroke-linecap="round" />
  <path
    d="M60.8976 174.099C62.312 169.334 67.3214 166.618 72.0865 168.032C76.8516 169.447 79.5679 174.456 78.1536 179.221L73.2644 195.694C71.85 200.459 66.8406 203.175 62.0755 201.761C57.3104 200.347 54.5941 195.337 56.0084 190.572L60.8976 174.099Z"
    fill="#253946" />
  <path
    d="M98.1361 184.083C113.196 203.946 111.521 193.619 122.857 191.128C136.507 188.128 144.426 200.053 151.726 200.826"
    stroke="#253946" stroke-width="6" stroke-linecap="round" />
  <rect width="8.34437" height="9.94062" rx="3"
    transform="matrix(-0.945314 -0.326161 -0.326161 0.945314 158.907 198.355)" fill="#EBF0F3" />
  <path d="M154.685 200.769L157.201 201.405" stroke="#253946" stroke-width="2"
    stroke-linecap="round" />
  <path d="M152.916 203.535L155.432 204.17" stroke="#253946" stroke-width="2" stroke-linecap="round" />
  <rect x="76.7999" y="172.141" width="18" height="35.183" rx="9"
    transform="rotate(-2.5774 76.7999 172.141)" fill="#253946" />
  <path
    d="M77.5336 121.032C82.8528 107.663 102.732 111.559 102.612 125.947L102.163 179.746C102.094 188.007 94.4378 194.109 86.3696 192.333L67.1003 188.093C59.2705 186.37 54.8512 178.04 57.8151 170.591L77.5336 121.032Z"
    fill="#A5BECD" />
  <path d="M78.517 150.351L75.9412 162.071" stroke="#253946" stroke-width="2" stroke-linecap="round" />
  <path
    d="M172.107 99.5292L151.344 103.157L142.404 129.861L163.092 140.55L157.699 130.15L169.075 124.971L161.562 112.57L172.107 99.5292Z"
    fill="#253946" stroke="#253946" stroke-width="6" stroke-linecap="round" />
  <path
    d="M21.4714 109.427L42.2341 105.799L51.1742 79.0957L30.4865 68.406L35.8799 78.8061L24.5031 83.9848L32.0163 96.3866L21.4714 109.427Z"
    fill="#253946" stroke="#253946" stroke-width="6" stroke-linecap="round" />
  <path d="M86.5756 153L83.9998 164.72" stroke="#253946" stroke-width="2" stroke-linecap="round" />
  <path d="M83.9999 165L83.9998 165" stroke="#253946" stroke-width="4" stroke-linecap="round" />
  <path d="M75.9414 162.072L75.9413 162.072" stroke="#253946" stroke-width="4"
    stroke-linecap="round" />
  <path
    d="M110.669 25.8698L96.3821 41.3664L105.506 68.0077L128.432 63.9284L117.83 58.9451L123.719 47.9195L110.217 42.6342L110.669 25.8698Z"
    fill="#253946" stroke="#253946" stroke-width="6" stroke-linecap="round" />
  <rect x="56.6741" y="40.0928" width="106" height="106" rx="25"
    transform="rotate(12.3946 56.6741 40.0928)" fill="#A5BECD" />
  <rect x="68.7932" y="166.644" width="27" height="13" rx="5"
    transform="rotate(12.3946 68.7932 166.644)" fill="#C1D5E2" />
  <rect x="64.2946" y="52.0063" width="86" height="86" rx="26"
    transform="rotate(12.3946 64.2946 52.0063)" fill="#253946" />
  <rect x="80.9539" y="73" width="9" height="21" rx="4.5" transform="rotate(28.2945 80.9539 73)"
    fill="white" />
  <rect x="105.195" y="80" width="9" height="21" rx="4.5" transform="rotate(29.045 105.195 80)"
    fill="white" />
  <rect x="41.9998" y="156.274" width="13.1004" height="24.639" rx="6.55019"
    transform="rotate(-59.3843 41.9998 156.274)" fill="#253946" />
  <rect width="13.1004" height="24.639" rx="6.55019"
    transform="matrix(-0.509278 -0.860602 -0.860602 0.509278 126.876 158.274)" fill="#253946" />
  <circle cx="82.9998" cy="115" r="9" fill="white" />
  <rect x="159.636" y="30.1089" width="5" height="15" rx="2.5"
    transform="rotate(9.5122 159.636 30.1089)" fill="#A5BECD" />
  <rect x="156.826" y="46.875" width="5" height="5" rx="2.5"
    transform="rotate(9.5122 156.826 46.875)" fill="#A5BECD" />
  <rect x="174.545" y="39.7046" width="4.72742" height="14.1823" rx="2.36371"
    transform="rotate(21.7369 174.545 39.7046)" fill="#A5BECD" />
  <rect x="168.793" y="54.1328" width="4.72742" height="4.72742" rx="2.36371"
    transform="rotate(21.7369 168.793 54.1328)" fill="#A5BECD" />
  <rect width="3.62069" height="11.428" rx="1.81035"
    transform="matrix(0.924442 0.381323 -0.359864 0.933005 171.088 30)" fill="#A5BECD" />
  <rect width="3.62069" height="3.80934" rx="1.81035"
    transform="matrix(0.924442 0.381323 -0.359864 0.933005 166.584 41.6777)" fill="#A5BECD" />
</svg>