<svg width="634" height="525" viewBox="0 0 634 525" fill="none" xmlns="http://www.w3.org/2000/svg">
<path d="M298.231 380.385C298.231 380.385 338.462 294.3 357.031 276.166L431 266.345C431 266.345 382.926 375.121 342.335 403.793C312.061 425.176 256.407 452.963 253.224 436.459C251.481 427.421 298.231 380.385 298.231 380.385Z" fill="url(#paint0_linear_242_723)"/>
<path fill-rule="evenodd" clip-rule="evenodd" d="M395.585 37.7363C524.507 8.46654 635.29 -16.6847 633 14.0011C620.922 175.873 453.675 312.532 279.215 383.531C270.781 402.903 260.712 421.024 248.816 435.186C211.746 479.313 139.291 542.89 128.384 518.984C122.926 507.023 165.867 431.296 173.322 418.311C109.921 434.107 49.6457 439.782 0 433.285L21 74.8485C70.0045 111.654 245.145 71.8911 395.585 37.7363Z" fill="url(#paint1_linear_242_723)"/>
<ellipse cx="347.284" cy="187.439" rx="16.7897" ry="8.42878" transform="rotate(-27.5631 347.284 187.439)" fill="#101D2E"/>
<path d="M345.5 227.698C425.167 185.198 588 93.6978 627.5 4.19775" stroke="#0C4A78" stroke-width="5"/>
<path fill-rule="evenodd" clip-rule="evenodd" d="M633 19.194V19.1703C600.921 170.545 482.856 276.604 353.276 344.459C328.145 357.619 302.572 369.346 277.098 379.692C275.14 383.903 273.099 388.042 270.972 392.077C446.609 318.919 617.358 177.897 633 19.194ZM162.225 428.434C164.915 423.625 167.349 419.358 169.321 415.934C102.638 433.87 42.6908 441.764 0.974449 440.697L1.02555 438.698C42.9356 439.769 103.45 431.74 170.739 413.479C173.029 409.526 174.414 407.197 174.414 407.197C174.414 407.197 175.139 403.447 176.444 397.017C108.253 416.642 45.9538 427.571 1.10249 432.192L1.08104 431.984L0.5 442.698C47.1481 448.654 103.117 443.211 162.225 428.434ZM286.844 356.491C309.133 347.265 331.402 337.062 353.293 325.808C481.788 259.75 597.104 157.576 627.519 4.50287L628.119 4.62196C627.897 4.45989 627.689 4.31787 627.5 4.19775C624.341 11.8737 620.377 19.686 615.671 27.6055C581.809 158.827 469.287 249.548 345.073 311.717C328.299 320.112 311.308 327.989 294.263 335.376C291.989 342.38 289.519 349.46 286.844 356.491ZM285.855 359.063C308.779 349.627 331.692 339.162 354.207 327.587C482.761 261.499 598.534 159.14 629.337 5.61418C631.089 7.1913 633 9.59899 633 12.1978V14.1978L632.019 14.0029C601.603 167.079 483.035 274.253 352.349 342.687C327.921 355.478 303.078 366.912 278.318 377.036C280.988 371.146 283.499 365.128 285.855 359.063ZM180.373 378.105C179.001 384.566 177.827 390.232 176.894 394.806C108.585 414.533 46.1322 425.523 1.17923 430.174L1.45308 425.125C47.3564 415.514 111.074 400.568 180.373 378.105ZM295.078 332.842C311.55 325.671 327.966 318.042 344.177 309.928C466.154 248.879 576.36 160.482 611.988 33.5865C606.354 42.4343 599.824 51.4053 592.48 60.4597C545.335 177.961 438.094 254.428 322.668 307.544C315.021 311.063 307.336 314.48 299.63 317.8C298.213 322.734 296.698 327.764 295.078 332.842ZM184.072 361.033C182.915 366.27 181.838 371.241 180.854 375.846C111.494 398.389 47.6425 413.399 1.56518 423.058L2.00547 414.939C18.6478 409.935 37.1686 404.688 57.1041 399.039L57.1153 399.036L57.1193 399.035C95.3286 388.208 138.734 375.909 184.072 361.033ZM300.337 315.317C307.526 312.206 314.695 309.011 321.832 305.727C435.117 253.596 540.107 179.11 588.164 65.6804C576.359 79.694 562.657 93.8882 547.366 108.117L548.357 108.712C502.908 184.462 408.587 247.598 305.141 297.221C303.695 303.018 302.096 309.083 300.337 315.317ZM187.171 347.234C186.27 351.179 185.403 355.033 184.575 358.763C138.912 373.778 95.1676 386.173 56.6528 397.087L56.6522 397.087L56.6501 397.088C36.9589 402.667 18.6348 407.86 2.12061 412.817L2.49898 405.84C54.8749 392.147 119.901 372.527 187.171 347.234ZM305.763 294.703C407.393 245.782 499.625 183.954 545.106 110.209C525.774 128.02 503.976 145.874 480.311 163.486L480.733 163.877C445.285 202.119 382.38 242.714 309.191 279.985C308.169 284.613 307.028 289.543 305.763 294.703ZM190.203 334.178C189.347 337.8 188.514 341.38 187.707 344.895C120.343 370.283 55.1557 389.985 2.61272 403.743L2.93915 397.724C60.2988 382.674 125.77 360.475 190.203 334.178ZM309.745 277.458C378.414 242.381 437.729 204.472 473.524 168.492C425.223 203.818 369.601 238.053 311.547 268.873C310.997 271.58 310.397 274.449 309.745 277.458ZM192.183 325.894C191.706 327.866 191.235 329.831 190.77 331.786C126.219 358.193 60.5666 380.5 3.05292 395.626L3.44291 388.436C60.6645 376.047 125.878 354.106 192.183 325.894Z" fill="#D9D9D9"/>
<defs>
<linearGradient id="paint0_linear_242_723" x1="389.329" y1="247.275" x2="235.034" y2="283.665" gradientUnits="userSpaceOnUse">
<stop offset="0.31" stop-color="#1676BA"/>
<stop offset="1" stop-color="#0A3554"/>
</linearGradient>
<linearGradient id="paint1_linear_242_723" x1="316.517" y1="7.97416e-06" x2="106.331" y2="497.188" gradientUnits="userSpaceOnUse">
<stop offset="0.31" stop-color="#1676BA"/>
<stop offset="1" stop-color="#0A3554"/>
</linearGradient>
</defs>
</svg>
